<svg width="26" height="25" viewBox="0 0 26 25" fill="none" xmlns="http://www.w3.org/2000/svg">
<g clip-path="url(#clip0_2039_188864)">
<path d="M6.68382 13.4524L7.34662 8.47257L1.59766 4.48161L6.85041 6.26088L8.09093 4.35756L12.6206 1.54688L22.6051 7.04773L23.1226 15.4408L18.6744 21.6222L15.1584 22.1609L16.9767 18.8327V15.6286L15.6546 13.1263L14.3113 12.2367L12.2449 14.3668V16.6211L10.6322 18.131L8.5836 18.3791L7.67624 18.893L6.18761 18.4181L5.56735 16.1851L6.68382 14.615V13.4524Z" fill="white"/>
<path d="M15.8634 4.43946C14.7682 4.21262 13.5702 4.27288 13.5702 4.27288C13.5702 4.27288 13.1768 6.09114 10.7383 6.56963C10.756 6.56963 13.9601 7.66484 15.8634 4.43946Z" fill="#94A6C3"/>
<path d="M16.8565 20.9384C18.1786 19.9034 19.171 18.4786 19.6282 16.8659C19.6495 16.8056 19.8338 16.6993 19.9578 16.6178C20.1634 16.4937 20.3725 16.3909 20.4115 16.2244C20.493 15.7494 20.5356 15.2532 20.5356 14.757C20.5356 14.5727 20.3477 14.3848 20.1634 14.2005C20.0181 14.0765 19.8728 13.9312 19.8728 13.8284C19.6672 11.9463 18.7988 10.1883 17.413 8.90879L17.2677 9.05411C18.611 10.3159 19.4793 12.0314 19.6672 13.8496C19.6885 14.0162 19.8515 14.1793 20.0181 14.3458C20.1634 14.4699 20.33 14.6578 20.33 14.7393C20.33 15.2142 20.2875 15.6892 20.2059 16.1641C20.1847 16.2456 20.0004 16.3307 19.8551 16.4122C19.6495 16.515 19.4616 16.6178 19.4226 16.7844C18.9264 18.5424 17.7887 20.0735 16.2788 21.066C16.5482 20.4882 17.3953 18.6062 17.8489 17.6527L17.7674 14.594L15.141 12.0526L13.6524 12.2582L12.0185 14.9059C12.0185 14.9059 12.784 15.877 11.7066 17.0148C10.6539 18.1312 9.8245 18.3793 9.8245 18.3793L9.05891 17.9646C9.28575 17.674 9.74298 17.2416 10.0939 16.951C10.6929 16.4547 11.2919 16.4122 11.2919 15.877C11.3167 14.757 10.1151 15.0654 10.1151 15.0654L9.67918 15.48L9.49487 17.0112L8.58751 18.149L8.48473 18.1277L6.99609 17.7981C6.99609 17.7981 7.907 17.3231 8.05231 16.7844C8.19763 16.2669 7.76168 14.5514 7.74041 14.4486C7.76168 14.4699 8.17637 14.8208 8.36067 15.3985C8.6903 14.4876 9.12626 13.6193 9.25031 13.5377C9.37436 13.4562 11.0473 12.5666 11.0473 12.5666L10.4908 14.0339L10.9055 13.8071L11.898 11.3686C11.898 11.3686 12.8691 10.8936 13.5922 10.8936C14.8929 10.8724 16.8175 9.28095 15.9492 6.42773C16.1973 6.53052 20.4966 8.68195 21.2409 12.8997C21.7974 16.1428 19.9578 19.1804 16.8565 20.9384Z" fill="#94A6C3"/>
<path d="M11.9357 4.89171C12.4106 4.3317 12.2263 3.50586 12.2263 3.50586L10.8405 5.5545C10.8192 5.5545 11.3331 5.57577 11.9357 4.89171Z" fill="#1B314F"/>
<path d="M7.28325 16.0778L7.44983 15.252C7.44983 15.252 6.76577 16.4499 6.70551 16.6165C6.64172 16.8044 6.74805 17.134 7.01387 17.1127C7.28325 17.0915 7.61287 16.6981 7.61287 16.411C7.61287 16.0388 7.28325 16.0778 7.28325 16.0778Z" fill="#1B314F"/>
<path d="M19.5641 2.92817C19.5641 2.92817 20.599 2.97071 21.673 3.09476C19.2522 1.19144 16.959 0.63497 15.0982 0.63497C12.5356 0.63497 10.7989 1.69119 10.6925 1.75145L11.5007 0.468385C11.5007 0.468385 8.27529 0.15648 7.13754 3.5697C6.84691 2.84665 6.58108 1.79043 6.58108 1.79043C6.58108 1.79043 4.90459 3.26134 5.69144 5.69987C3.76685 4.99808 1.01997 4.02338 0.913639 4.00566C0.76832 3.9844 0.725788 4.04819 0.725788 4.04819C0.725788 4.04819 0.683255 4.10845 0.807308 4.21478C1.03769 4.39554 5.37954 7.60319 6.33297 8.22346C6.1274 8.96777 6.1274 9.31867 6.33297 9.66956C6.62361 10.1445 6.64133 10.3926 6.60235 10.7435C6.55981 11.0944 6.18765 14.1355 6.10613 14.5076C6.02461 14.8798 5.15624 16.2018 5.19523 16.5952C5.23777 16.9887 5.77296 18.6616 6.25145 18.8495C6.60235 18.9735 7.47072 19.2429 8.04845 19.2429C8.25402 19.2429 8.44187 19.2004 8.52339 19.1188C8.87428 18.8105 8.97707 18.7467 9.22518 18.7467C9.24644 18.7467 9.26771 18.7467 9.28543 18.7467C9.38822 18.7467 9.51227 18.7679 9.65759 18.7679C9.98722 18.7679 10.4232 18.7041 10.7315 18.4171C11.1852 17.9634 11.9721 17.3431 12.2202 17.0525C12.5321 16.659 12.6951 16.1238 12.6136 15.5851C12.5498 15.0889 12.8192 14.6529 13.1311 14.2205C13.5245 13.703 14.2475 12.7744 14.2475 12.7744C15.6759 13.8448 16.5656 15.4788 16.5656 17.297C16.5656 20.5224 13.7549 23.1275 10.2814 23.1275C9.74265 23.1275 9.22872 23.0673 8.71124 22.9432C10.3027 23.4997 11.646 23.6875 12.7447 23.6875C15.0805 23.6875 16.321 22.8404 16.321 22.8404C16.321 22.8404 15.8886 23.4004 15.1833 24.0384C15.2045 24.0384 15.2045 24.0384 15.2045 24.0384C19.0714 23.4997 20.9535 20.3168 20.9535 20.3168C20.9535 20.3168 20.8082 21.3518 20.6239 22.0536C25.7667 18.1867 24.8984 13.3486 24.8771 13.1856C24.9196 13.2458 25.4371 13.8661 25.7029 14.1993C26.5323 5.6786 19.5641 2.92817 19.5641 2.92817ZM11.646 16.535C11.5645 16.6378 11.2136 16.9497 10.9655 17.1765C10.7174 17.4034 10.448 17.6302 10.2424 17.8393C10.1609 17.9208 9.9943 17.9634 9.7462 17.9634C9.66468 17.9634 9.57961 17.9634 9.51936 17.9634C9.47683 17.9634 9.43784 17.9634 9.39531 17.9634C9.35277 17.9634 9.33151 17.9634 9.31379 17.9634C9.24999 17.9634 9.18973 17.9634 9.12593 17.9634C9.43784 17.5487 10.3452 16.5988 10.6571 16.3932C11.0293 16.1451 11.2171 15.897 10.9867 15.4646C10.7599 15.0286 10.1609 15.135 10.1609 15.135C10.1609 15.135 10.5118 14.9897 10.8237 14.9897C10.4303 14.8869 9.93405 14.9897 9.70721 15.2165C9.4591 15.4433 9.50164 16.2514 9.39885 16.7654C9.29606 17.3041 8.94517 17.5735 8.40643 18.0697C8.11579 18.3391 7.91022 18.4206 7.74363 18.4206C7.39274 18.3603 6.97805 18.254 6.68741 18.1512C6.48184 17.8819 6.16993 16.9922 6.08841 16.6201C6.14867 16.4145 6.39677 15.9785 6.52083 15.7304C6.76893 15.2555 6.91425 14.9861 6.95678 14.738C7.0383 14.3871 7.30767 12.2144 7.41046 11.3071C7.67983 11.6579 8.05199 12.2392 7.96693 12.6114C8.56592 11.7643 8.13351 10.9349 7.92439 10.6053C7.74009 10.2756 7.49198 9.61285 7.69755 8.91106C7.90313 8.20928 8.64744 6.26342 8.64744 6.26342C8.64744 6.26342 8.89555 6.69938 9.24644 6.61431C9.59733 6.53279 12.4293 2.27247 12.4293 2.27247C12.4293 2.27247 13.1949 3.94541 12.3868 5.16821C11.5609 6.38748 10.7528 6.61431 10.7528 6.61431C10.7528 6.61431 11.8905 6.81989 12.9432 6.05431C13.3756 7.06799 13.7903 8.12067 13.8116 8.26599C13.7478 8.41131 12.9219 10.3962 12.8404 10.5202C12.7979 10.5627 12.5108 10.6443 12.3017 10.6868C11.9508 10.7896 11.7452 10.8534 11.6602 10.9136C11.5148 11.0377 10.852 12.8559 10.5437 13.7456C10.1715 13.8484 9.79936 14.0575 9.52999 14.4686C9.67531 14.3658 10.129 14.302 10.4622 14.2631C10.7528 14.2418 11.6389 14.7167 11.8693 15.6064C11.8693 15.6276 11.8693 15.6276 11.8693 15.6489C11.9154 15.975 11.8126 16.2869 11.646 16.535ZM9.70367 16.7831C9.89152 16.5137 9.87025 16.06 9.89152 15.9147C9.91278 15.7694 9.95177 15.5 10.1184 15.4611C10.2849 15.4185 10.6784 15.4823 10.6784 15.7694C10.6784 16.0388 10.3877 16.099 10.1822 16.2869C10.0333 16.4287 9.74265 16.7406 9.70367 16.7831ZM17.9514 12.8311C18.157 11.7785 18.1782 10.8676 18.118 10.1232C18.9226 11.1972 19.4188 12.5015 19.5641 13.8448C19.5854 14.0114 19.7484 14.1744 19.915 14.341C20.0603 14.4651 20.2269 14.6317 20.2269 14.7345C20.2269 15.2094 20.1844 15.6843 20.1028 16.1628C20.0816 16.2231 19.8973 16.3294 19.7519 16.4109C19.5464 16.5137 19.3585 16.6165 19.3195 16.7831C18.8659 18.3745 17.8912 19.7816 16.5904 20.7741C18.5114 18.7679 19.44 15.4575 17.9514 12.8311ZM16.6506 20.9584C17.9939 19.9234 19.0289 18.4773 19.4826 16.8434C19.5038 16.7831 19.6881 16.6768 19.8122 16.5952C20.0178 16.4925 20.2269 16.3684 20.2659 16.2018C20.3474 15.7269 20.3899 15.2307 20.3899 14.7345C20.3899 14.5502 20.2021 14.3623 20.0178 14.178C19.915 14.0539 19.7484 13.9086 19.7484 13.8058C19.5818 12.2959 18.9828 10.8711 18.0542 9.69082C17.6395 7.20977 15.9878 6.44419 15.9453 6.42292C15.9878 6.48672 17.0618 8.03561 16.3175 9.85387C15.5519 11.6934 13.5883 11.4063 13.4217 11.424C13.2551 11.424 12.6171 12.2499 11.809 13.781C11.7062 13.7385 11.2703 13.6357 10.7741 13.7208C11.1462 12.6858 11.7062 11.2184 11.809 11.0944C11.8516 11.0519 12.1599 10.9703 12.369 10.9101C12.7625 10.8073 12.9468 10.7435 13.0106 10.662C13.0531 10.5982 13.2587 10.1232 13.4642 9.62703C13.6521 9.62703 14.127 9.58449 14.166 9.56323C14.2086 9.52069 14.602 8.51055 14.602 8.3865C14.602 8.28371 13.7939 6.2776 13.4855 5.51202C13.6308 5.34543 13.7761 5.13986 13.9179 4.91302C18.157 5.37024 21.4674 8.96777 21.4674 13.3273C21.4674 16.6768 19.5038 19.5938 16.6506 20.9584Z" fill="#1B314F"/>
<path d="M11.1503 9.79376C11.5437 9.34008 11.3381 8.49298 10.6115 8.34766C10.7994 7.91524 11.0652 7.04688 11.0652 7.04688C11.0652 7.04688 8.9563 10.3538 8.77199 10.4176C8.58414 10.4814 8.39983 9.75477 8.39983 9.75477C8.00641 11.2647 9.06263 11.4702 9.18668 10.9953C9.76441 10.8464 10.7568 10.2262 11.1503 9.79376Z" fill="#1B314F"/>
<path d="M9.34766 10.5993L10.4216 8.75977C10.4216 8.75977 11.0419 9.07167 10.73 9.56788C10.3401 10.1456 9.34766 10.5993 9.34766 10.5993Z" fill="#FFD923"/>
<path d="M22.6443 19.1189C22.3324 19.5336 21.9815 19.9661 21.5703 20.3807C24.2357 15.252 21.6944 10.5593 21.5916 10.375C21.7794 10.5629 21.9637 10.7684 22.1303 10.9527C24.1754 13.2247 24.4235 16.6379 22.6443 19.1189Z" fill="#D82122"/>
<path d="M25.1253 12.5238C24.1931 10.0214 22.871 7.89128 19.9576 5.97024C17.1469 4.10944 14.1271 4.25476 13.9605 4.27603C13.9392 4.27603 13.918 4.27603 13.918 4.27603C14.0208 4.2335 14.1235 4.21223 14.2263 4.19451C14.8679 3.98894 15.6937 3.82235 16.5231 3.71956C18.717 3.40412 20.9287 4.14843 22.4386 5.7434C22.4599 5.76466 22.4599 5.76466 22.4812 5.78593C24.1966 7.60419 25.0863 9.87613 25.1253 12.5238Z" fill="#D82122"/>
<path d="M19.2941 2.28705C16.214 1.70932 14.2292 1.99641 12.8008 2.53516C12.7583 2.36857 12.6129 2.03895 12.4889 1.76957C12.06 2.28705 11.6028 2.90732 11.3157 3.30074C10.5288 3.83948 10.1992 4.35696 10.1992 4.35696C10.6529 2.80453 11.9785 1.64907 13.5912 1.35843C14.0449 1.27691 14.5411 1.23438 15.0798 1.23438C16.5046 1.25564 17.9295 1.60653 19.2941 2.28705Z" fill="#D82122"/>
<path d="M7.90407 6.25605C5.48682 6.17453 6.29139 3.36031 6.33392 3.19727C6.33392 3.21853 6.49696 5.40895 7.90407 6.25605Z" fill="#D82122"/>
<path d="M10.2812 1.19141C8.42041 2.30788 8.79256 4.97324 8.79256 4.97324C7.01329 2.26889 10.1359 1.2552 10.2812 1.19141Z" fill="#D82122"/>
<path d="M7.22225 7.00217C7.34631 7.10496 7.47036 7.29281 7.32504 7.56218C7.24352 7.7075 7.11947 7.68624 6.93162 7.60471C6.68351 7.48066 5.19488 6.61229 3.85156 5.72266C5.38273 6.2614 6.93162 6.83913 7.17972 6.96318C7.17972 6.96318 7.20099 6.98445 7.22225 7.00217Z" fill="white"/>
</g>
<defs>
<clipPath id="clip0_2039_188864">
<rect width="25.0516" height="23.5771" fill="white" transform="translate(0.722656 0.460938)"/>
</clipPath>
</defs>
</svg>
