<svg width="156" height="57" viewBox="0 0 156 57" fill="none" xmlns="http://www.w3.org/2000/svg">
<g opacity="0.4">
<path d="M65.0664 15.9482H70.4072V37.3112H75.7479V10.6074H70.4072C67.4697 10.6074 65.0664 13.0108 65.0664 15.9482Z" fill="#322B3D"/>
<path d="M81.0859 21.2871V37.3094H86.4267V26.6279C86.4267 23.6904 84.0234 21.2871 81.0859 21.2871Z" fill="#322B3D"/>
<path d="M102.451 21.2871H91.7695V37.3094H97.1103V26.6279H102.451V31.9686C102.451 34.906 104.854 37.3094 107.792 37.3094V26.6279C107.792 23.6904 105.388 21.2871 102.451 21.2871Z" fill="#322B3D"/>
<path d="M139.837 21.2889H134.496V15.9482C134.496 13.0108 132.092 10.6074 129.155 10.6074V31.9704H118.474V26.6297H123.814V21.2889H118.474C115.536 21.2889 113.133 23.6923 113.133 26.6297V31.9704C113.133 34.9078 115.536 37.3112 118.474 37.3112H134.496V26.6297H139.837V31.9704C139.837 34.9078 142.24 37.3112 145.177 37.3112V26.6297C145.177 23.6923 142.774 21.2889 139.837 21.2889Z" fill="#322B3D"/>
<path d="M81.0859 10.6074V15.9482H86.4267C86.4267 13.0108 84.0234 10.6074 81.0859 10.6074Z" fill="#322B3D"/>
<path fill-rule="evenodd" clip-rule="evenodd" d="M43.6105 8.7402C43.6105 8.7402 45.8002 8.83366 48.0834 9.08735C42.9562 5.05508 38.0962 3.88012 34.1574 3.88012C28.7632 3.88012 25.1048 6.08318 24.8377 6.2434H24.8244L26.5334 3.53297C26.5334 3.53297 19.7106 2.87872 17.2939 10.1021C16.6797 8.56663 16.119 6.33686 16.119 6.33686C16.119 6.33686 12.5674 9.44785 14.2363 14.615C10.1507 13.1063 4.3159 11.0501 4.10227 11.01C3.79518 10.97 3.71507 11.1035 3.71507 11.1035C3.71507 11.1035 3.6216 11.237 3.88864 11.4506C4.36931 11.8378 13.5688 18.6339 15.5849 19.9424C15.1443 21.5179 15.1443 22.2657 15.5849 23.0134C16.1991 24.0148 16.2391 24.5488 16.159 25.2965C16.0656 26.0442 15.2911 32.4798 15.1042 33.2676C15.0375 33.5881 14.6903 34.2289 14.3165 34.9366C13.769 35.9914 13.1281 37.1797 13.1815 37.6871C13.275 38.5149 14.4099 42.0665 15.4113 42.4671C16.159 42.7341 18.0016 43.2949 19.2166 43.2949C19.6572 43.2949 20.0444 43.2014 20.218 43.0278C20.9657 42.3736 21.1793 42.2401 21.7134 42.2401H21.8469C21.9537 42.2401 22.0606 42.2534 22.1807 42.2668C22.3142 42.2801 22.4745 42.2935 22.6347 42.2935C23.329 42.2935 24.2636 42.16 24.9179 41.5458C25.3718 41.0918 25.986 40.5577 26.5601 40.0637C27.201 39.5029 27.8019 38.9822 28.0689 38.6618C28.7231 37.834 29.0703 36.6857 28.8967 35.5508C28.7632 34.496 29.3373 33.5747 29.9916 32.6668C30.8194 31.5719 32.3549 29.5958 32.3549 29.5958C35.3724 31.879 37.255 35.3372 37.255 39.1958C37.255 46.0187 31.3001 51.5463 23.9432 51.5463C22.8083 51.5463 21.7134 51.4128 20.6185 51.1591C23.9832 52.3341 26.8405 52.7347 29.1638 52.7347C34.1173 52.7347 36.7476 50.9321 36.7476 50.9321C36.7476 50.9321 35.8263 52.1071 34.3443 53.469H34.3843C42.569 52.3341 46.5613 45.578 46.5613 45.578C46.5613 45.578 46.2542 47.7678 45.867 49.2498C56.4951 41.2654 55.013 31.3316 54.8928 30.5038C54.8928 30.4771 54.8795 30.4637 54.8795 30.4637C54.9329 30.5438 55.3735 31.0779 55.8275 31.6387C56.1078 31.9858 56.4016 32.333 56.6152 32.6134C58.3643 14.5616 43.6105 8.7402 43.6105 8.7402ZM25.7724 38.555C25.6389 38.6751 25.5053 38.7953 25.3852 38.9021C25.1982 39.0757 25.0113 39.2359 24.8377 39.4095C24.4906 39.7166 24.1434 40.0237 23.8631 40.3174C23.6895 40.491 23.3423 40.5844 22.8083 40.5844H22.3276H22.0605H21.887H21.4998C22.154 39.7166 24.09 37.7004 24.7443 37.2598C25.532 36.7391 25.9192 36.205 25.4386 35.2837C24.9579 34.3625 23.6895 34.5894 23.6895 34.5894C23.6895 34.5894 24.4372 34.2823 25.0914 34.2823C24.2636 34.0687 23.2088 34.2823 22.7281 34.763C22.381 35.0835 22.3009 35.9513 22.2208 36.8192C22.1807 37.2465 22.1407 37.6871 22.0739 38.0476C21.8736 39.0623 21.2594 39.6231 20.3115 40.491C20.2046 40.5978 20.0845 40.6913 19.9643 40.7981C19.3501 41.3722 18.9095 41.5458 18.5624 41.5458C17.8147 41.4123 16.9334 41.1986 16.3326 40.9716C15.892 40.3975 15.2377 38.5149 15.0642 37.7271C15.1576 37.42 15.4514 36.8459 15.7184 36.3519C15.8252 36.165 15.9187 35.978 15.9854 35.8312L16.0389 35.7377L16.0656 35.6976C16.5462 34.7764 16.8266 34.2289 16.9067 33.7349C17.0803 32.9872 17.6544 28.3942 17.8681 26.4581C18.4422 27.2059 19.2166 28.4342 19.043 29.222C20.3115 27.4195 19.3902 25.6704 18.9496 24.9761C18.5624 24.2818 18.0283 22.8665 18.4689 21.3844C18.9095 19.889 20.485 15.7766 20.485 15.7766C20.485 15.7766 21.0058 16.6979 21.7535 16.5243C22.5012 16.3508 28.4962 7.3249 28.4962 7.3249C28.4962 7.3249 30.1251 10.8765 28.4027 13.4534C26.6669 16.057 24.9579 16.5377 24.9579 16.5377C24.9579 16.5377 27.3612 16.9783 29.6044 15.3627C30.5256 17.5124 31.4069 19.7421 31.4469 20.0492C31.4202 20.1027 31.3535 20.2629 31.26 20.5032C30.766 21.6648 29.5376 24.6156 29.3907 24.8292C29.2973 24.9227 28.6964 25.0963 28.2558 25.1764C27.5081 25.39 27.0809 25.5235 26.9073 25.657C26.6002 25.9241 25.1982 29.7694 24.544 31.652C23.7562 31.8657 22.9685 32.3063 22.3943 33.1875C22.7014 32.9739 23.6628 32.8403 24.3704 32.7469C24.9846 32.7068 26.8672 33.7082 27.3479 35.5908V35.6843C27.4414 36.3786 27.2144 37.0328 26.8672 37.5669C26.6937 37.7271 26.2263 38.1544 25.7724 38.555ZM22.7148 38.0876C23.0219 37.6337 23.0619 36.9394 23.0886 36.5255C23.102 36.4053 23.102 36.3118 23.1153 36.2451C23.1554 35.938 23.2489 35.3772 23.596 35.2837C23.9432 35.1903 24.771 35.3238 24.771 35.938C24.771 36.3252 24.4772 36.5121 24.1568 36.7124C24.0099 36.8059 23.8631 36.8993 23.7162 37.0195C23.5159 37.2198 23.1821 37.5669 22.9551 37.8072C22.835 37.9541 22.7415 38.0476 22.7148 38.0876ZM40.1791 29.7294C40.6197 27.4996 40.6597 25.5769 40.5262 23.9881C42.2352 26.2712 43.29 29.0217 43.5971 31.879C43.6372 32.2262 43.9843 32.5733 44.3448 32.9338C44.6519 33.2008 44.9991 33.548 44.9991 33.7616C44.9991 34.763 44.9056 35.7778 44.732 36.7792C44.692 36.8993 44.3315 37.1129 44.0377 37.2732L44.0244 37.2999L43.9977 37.3132C43.5571 37.5269 43.1699 37.7538 43.0764 38.101C42.1151 41.4657 40.0589 44.4431 37.295 46.5527C41.3674 42.2935 43.3435 35.2837 40.1791 29.7294ZM37.4286 46.9399C40.2725 44.7502 42.4622 41.6793 43.4236 38.2212C43.4636 38.1143 43.704 37.9675 43.9309 37.8206C43.9977 37.7805 44.0645 37.7271 44.1312 37.7004C44.5718 37.4868 44.9991 37.2198 45.0925 36.8726C45.2661 35.8712 45.3596 34.8164 45.3596 33.7616C45.3596 33.3744 44.9724 32.9739 44.5718 32.5867C44.5184 32.5199 44.4517 32.4531 44.3849 32.3864C44.198 32.1861 43.9977 31.9591 43.9977 31.7989C43.6505 28.6078 42.3688 25.5769 40.406 23.0801C39.5515 17.9129 36.1334 16.2573 35.9465 16.1638H35.9332C35.9332 16.1638 35.9332 16.1772 35.9465 16.1772C36.0934 16.3908 38.2831 19.6487 36.7343 23.4406C35.2789 26.9255 31.8074 26.8053 30.8327 26.7652C30.7126 26.7519 30.6325 26.7519 30.6058 26.7652C30.2586 26.7652 28.8967 28.5143 27.1877 31.7588C26.974 31.6654 26.0528 31.4517 24.998 31.6253C25.7857 29.4356 26.974 26.3246 27.1877 26.0576C27.2544 25.9908 27.695 25.8573 28.0822 25.7505C28.1891 25.7238 28.2825 25.6971 28.3626 25.657C29.1905 25.4434 29.591 25.3099 29.7112 25.1363C29.8046 25.0028 30.2319 24.0014 30.6725 22.9466C31.0597 22.9466 32.0745 22.8531 32.1679 22.8131C32.2614 22.7196 33.0892 20.5833 33.0892 20.3163C33.0892 20.1027 31.3802 15.8434 30.7259 14.2278C31.033 13.8807 31.3401 13.4401 31.6472 12.9594C40.6197 13.9207 47.6294 21.5447 47.6294 30.7842C47.6294 37.8607 43.477 44.0426 37.4286 46.9399ZM28.0555 9.96857C28.0555 9.96857 28.4428 11.7177 27.4414 12.906C26.1729 14.3613 25.0781 14.3079 25.1181 14.3079L28.0555 9.96857ZM17.9348 34.8431L17.5877 36.5922C17.5877 36.5922 18.282 36.4988 18.282 37.2865C18.282 37.9007 17.5877 38.7419 17.0135 38.7819C16.4394 38.822 16.2258 38.1277 16.3593 37.7271C16.4928 37.38 17.9348 34.8431 17.9348 34.8431ZM24.6375 20.2095C26.1729 20.5166 26.6135 22.3191 25.7724 23.2804C24.9446 24.2017 22.835 25.5102 21.6199 25.8173C21.3529 26.8186 19.1231 26.3914 19.951 23.1869C19.951 23.1869 20.3382 24.7224 20.7387 24.5889C21.1259 24.4554 25.5988 17.4456 25.5988 17.4456C25.5988 17.4456 25.038 19.3015 24.6375 20.2095ZM24.2503 21.0907L21.9671 24.9894C21.9671 24.9894 24.0767 24.0281 24.9045 22.7997C25.5587 21.7449 24.2503 21.0907 24.2503 21.0907ZM23.9432 5.06843C20.0044 7.43172 20.7921 13.0796 20.7921 13.0796C17.2005 7.59194 23.0619 5.40223 23.8631 5.09514C23.9031 5.08178 23.9298 5.06843 23.9432 5.06843ZM43.0364 7.39166C36.5073 6.16329 32.3014 6.77747 29.2839 7.91238C29.1905 7.56524 28.8967 6.85759 28.6297 6.28345C27.7351 7.33825 26.8138 8.59333 26.1996 9.4345L26.1329 9.52796C24.4639 10.6629 23.7696 11.7577 23.7696 11.7577C24.7309 8.47316 27.5348 6.01642 30.9529 5.41558C31.9142 5.24201 32.969 5.14854 34.1039 5.14854C37.1215 5.20195 40.139 5.9363 43.0364 7.39166ZM44.4383 15.1758C50.6069 19.2481 53.4108 23.7611 55.3868 29.0618C55.2934 23.454 53.4108 18.6339 49.7791 14.7886L49.6856 14.6951C46.4945 11.3305 41.7946 9.74159 37.1615 10.3958C35.4124 10.6095 33.6633 10.97 32.3014 11.3972C32.0878 11.4373 31.8608 11.4907 31.6472 11.5708H31.7407C32.0878 11.5441 38.4834 11.237 44.4383 15.1758ZM47.8564 45.6982C48.7243 44.8303 49.4853 43.8957 50.1396 43.0278C53.9048 37.7672 53.3841 30.5438 49.0447 25.7238C48.6976 25.3366 48.297 24.896 47.9098 24.4954C48.1101 24.9093 53.5042 34.8431 47.8564 45.6982ZM15.5582 9.35439C15.3846 9.98193 13.9159 15.6164 18.8962 15.8033C15.9187 14.0008 15.5715 9.36774 15.5715 9.32768C15.5715 9.32768 15.5715 9.34104 15.5582 9.35439ZM17.6678 18.5538C17.9749 17.9797 17.7078 17.5925 17.4542 17.3789L17.3607 17.2854C16.84 17.0184 13.5554 15.79 10.3109 14.6551C13.1548 16.5377 16.3059 18.3803 16.84 18.6339C17.2405 18.8209 17.4942 18.8609 17.6678 18.5538Z" fill="#322B3D"/>
<path d="M30.0856 16.5093C29.9254 16.1221 29.7651 15.7349 29.6049 15.3477C27.9626 16.536 26.2269 16.6161 25.4258 16.576C26.2536 16.7763 28.0695 17.0567 30.0856 16.5093Z" fill="#322B3D" fill-opacity="0.3"/>
<path d="M31.8777 11.5703C31.8109 11.5703 31.7442 11.5703 31.6908 11.5703C31.6774 11.5703 31.6774 11.5703 31.6641 11.5837H31.7575C31.7575 11.5837 31.8109 11.5703 31.8777 11.5703Z" fill="#322B3D" fill-opacity="0.3"/>
<path d="M34.6387 13.5465C33.6773 13.2661 32.6759 13.0792 31.6478 12.959C31.3408 13.4397 31.0337 13.8803 30.7266 14.2274C30.9001 14.668 31.1672 15.3089 31.4476 16.0166C32.5424 15.5225 33.6373 14.7348 34.6387 13.5465Z" fill="#322B3D" fill-opacity="0.3"/>
<path d="M30.9688 25.6025C29.4333 25.6025 27.3771 26.6039 27.3771 26.6039L25.3477 31.5708C26.2556 31.4907 26.9899 31.6643 27.1902 31.7444C28.8993 28.4999 30.2611 26.7508 30.6083 26.7508C30.6484 26.7374 30.7285 26.7374 30.8353 26.7508C31.81 26.7908 35.2815 26.911 36.7368 23.4262C38.2322 19.7544 36.2561 16.6034 35.9758 16.1895C37.7649 22.2112 33.7193 25.5625 30.9688 25.6025Z" fill="#322B3D" fill-opacity="0.3"/>
<path d="M43.0782 38.0875C43.1717 37.7404 43.5589 37.5134 43.9995 37.2998L44.0262 37.2864L44.0396 37.2597C44.3333 37.0862 44.6938 36.8859 44.7339 36.7657C44.9074 35.7643 45.0009 34.7496 45.0009 33.7482C45.0009 33.5346 44.6538 33.1741 44.3467 32.9204C43.9995 32.5732 43.6524 32.2261 43.599 31.8656C43.2919 29.0216 42.2504 26.2578 40.528 23.9746C40.6616 25.5501 40.6215 27.4728 40.1809 29.7159C43.3453 35.2837 41.3692 42.28 37.2969 46.5393C40.0607 44.443 42.1169 41.4656 43.0782 38.0875Z" fill="#322B3D" fill-opacity="0.3"/>
<path d="M47.1648 29.8491C45.5893 20.9167 36.4833 16.3637 35.9492 16.1367C35.9492 16.1501 35.9492 16.1501 35.9492 16.1634C36.243 16.3103 39.4207 17.9259 40.342 22.7593C42.5183 25.2961 43.8802 28.4739 44.2541 31.8252C44.2541 32.0388 44.5612 32.3459 44.8683 32.6129C45.2555 33.0001 45.656 33.4007 45.656 33.7879C45.656 34.8427 45.5626 35.8975 45.389 36.8989C45.2955 37.246 44.8683 37.473 44.4277 37.7267C44.1606 37.9003 43.7734 38.1139 43.7334 38.2474C42.8388 41.3985 40.9829 44.2291 38.4861 46.3654C42.6252 44.0288 45.7362 40.1033 47.0046 35.4302C47.4185 33.6544 47.4986 31.7718 47.1648 29.8491Z" fill="#322B3D" fill-opacity="0.3"/>
<path d="M27.3226 35.6039C26.842 33.7212 24.9594 32.7199 24.3452 32.7599C23.6375 32.8534 22.6762 32.9735 22.3691 33.2005C22.9432 32.3193 23.731 31.8787 24.5187 31.6651C24.7457 31.0242 25.0528 30.1429 25.3733 29.2617C24.6256 29.6623 21.9819 31.0642 21.7549 31.2244C21.4879 31.398 20.5666 33.2272 19.8723 35.1632C19.4851 33.9349 18.6039 33.1872 18.5638 33.1471C18.6039 33.3607 19.5251 37.0058 19.218 38.1007C18.911 39.2489 16.9883 40.2503 16.9883 40.2503L19.8723 40.8912C19.899 40.8645 19.9257 40.8511 19.9524 40.8244C20.0726 40.7176 20.1794 40.6108 20.2995 40.5174C21.2475 39.6495 21.8617 39.0887 22.062 38.074C22.1288 37.7135 22.1822 37.2728 22.2089 36.8456C22.289 35.9777 22.3691 35.1098 22.7162 34.7894C23.1969 34.3087 24.2517 34.0951 25.0795 34.3087C24.8392 34.3087 24.5855 34.3488 24.3719 34.4022C25.1196 34.4155 26.121 34.6959 26.0943 36.1913C26.0943 37.3396 24.8258 37.4197 23.5574 38.4745C23.2904 38.7015 22.9833 38.9685 22.6895 39.2489C22.1955 39.7696 21.7549 40.277 21.5012 40.6242H21.8884H22.062H22.329H22.8097C23.3304 40.6242 23.6776 40.5307 23.8645 40.3571C24.1449 40.0767 24.492 39.7696 24.8392 39.4492C25.0261 39.2756 25.213 39.1154 25.3866 38.9418C25.5068 38.835 25.6403 38.7149 25.7738 38.5947C26.2278 38.1808 26.6951 37.7669 26.842 37.6066C27.1891 37.0726 27.4161 36.4183 27.3226 35.724V35.6039Z" fill="#322B3D" fill-opacity="0.3"/>
</g>
</svg>
