<svg width="146" height="25" viewBox="0 0 146 25" fill="none" xmlns="http://www.w3.org/2000/svg">
<g opacity="0.4" clip-path="url(#clip0_2041_188880)">
<path d="M133.952 19.6317C130.824 19.6317 128.044 17.3652 127.328 14.2359H145.901C145.901 14.2359 146.001 13.102 146.001 12.7009C146.001 6.05916 140.597 0.654297 133.956 0.654297C127.314 0.654297 121.91 6.05804 121.91 12.7009C121.91 19.3439 127.284 24.6221 133.956 24.6221C140.628 24.6221 144.523 19.7068 145.496 16.1484H139.834C139.834 16.1484 138.034 19.6317 133.952 19.6317ZM133.956 5.64237C136.955 5.64237 139.559 7.62325 140.451 10.5755H127.461C128.349 7.62325 130.954 5.64237 133.956 5.64237Z" fill="#322B3D"/>
<path d="M63.0782 24.6221C56.4365 24.6221 51.2266 19.2744 51.2266 12.7009C51.2266 6.1275 56.6303 0.654297 63.272 0.654297C69.9139 0.654297 75.3176 6.27092 75.3176 12.6371C75.3176 15.3496 75.3176 24.0249 75.3176 24.0249H70.641V20.2245L70.3005 20.1348C69.477 22.1539 66.4932 24.6221 63.0772 24.6221H63.0782ZM63.272 5.64237C59.5209 5.64237 56.4678 8.79184 56.4678 12.664C56.4678 16.5361 59.5199 19.6329 63.272 19.6329C67.0243 19.6329 70.0764 16.507 70.0764 12.664C70.0764 8.82097 67.0243 5.64237 63.272 5.64237Z" fill="#322B3D"/>
<path d="M88.6604 24.6221C82.0185 24.6221 76.8086 19.2744 76.8086 12.7009C76.8086 6.1275 82.2125 0.654297 88.8542 0.654297C95.4959 0.654297 100.9 6.27092 100.9 12.6371C100.9 15.3496 100.9 24.0249 100.9 24.0249H96.2232V20.2245L95.8825 20.1348C95.059 22.1539 92.0754 24.6221 88.6592 24.6221H88.6604ZM88.8542 5.64237C85.1031 5.64237 82.05 8.79184 82.05 12.664C82.05 16.5361 85.1019 19.6329 88.8542 19.6329C92.6065 19.6329 95.6584 16.507 95.6584 12.664C95.6584 8.82097 92.6065 5.64237 88.8542 5.64237Z" fill="#322B3D"/>
<path d="M108.751 24.0229L99.1523 1.25391H104.404L111.439 18.0264L118.475 1.25391H123.725L114.128 24.0229H108.751Z" fill="#322B3D"/>
<path d="M17.2488 24.5874C19.8606 24.5874 21.978 22.47 21.978 19.8581C21.978 17.2463 19.8606 15.1289 17.2488 15.1289C14.6369 15.1289 12.5195 17.2463 12.5195 19.8581C12.5195 22.47 14.6369 24.5874 17.2488 24.5874Z" fill="#322B3D"/>
<path d="M29.612 24.5874C32.2239 24.5874 34.3413 22.47 34.3413 19.8581C34.3413 17.2463 32.2239 15.1289 29.612 15.1289C27.0002 15.1289 24.8828 17.2463 24.8828 19.8581C24.8828 22.47 27.0002 24.5874 29.612 24.5874Z" fill="#322B3D"/>
<path d="M23.4203 0.333984C10.5794 0.333984 0.168515 10.9431 0.171876 24.0262H6.11116C6.11116 14.2215 13.7994 6.27215 23.4203 6.27215C33.0413 6.27215 40.7296 14.2215 40.7296 24.0262H46.6688C46.6711 10.9431 36.2602 0.333984 23.4203 0.333984Z" fill="#322B3D"/>
</g>
<defs>
<clipPath id="clip0_2041_188880">
<rect width="145.828" height="24.3339" fill="white" transform="translate(0.171875 0.333984)"/>
</clipPath>
</defs>
</svg>
