<svg width="144" height="41" viewBox="0 0 144 41" fill="none" xmlns="http://www.w3.org/2000/svg">
<g opacity="0.3" clip-path="url(#clip0_1641_74156)">
<path d="M87.4485 38.1243L73.7593 4.91881C73.6518 4.61606 73.595 4.29761 73.5912 3.97634C73.5656 3.29696 73.8071 2.63457 74.2638 2.13096C74.4986 1.89057 74.7821 1.70316 75.0952 1.58132C75.4085 1.45946 75.744 1.40599 76.0795 1.42446C76.5879 1.43109 77.0816 1.59551 77.4925 1.89499C77.9232 2.21509 78.2599 2.64503 78.4675 3.13984L91.484 35.6388L104.501 3.13984C104.708 2.64503 105.045 2.21509 105.476 1.89499C105.886 1.59551 106.38 1.43109 106.889 1.42446C107.224 1.40599 107.56 1.45946 107.873 1.58132C108.186 1.70316 108.469 1.89057 108.704 2.13096C109.162 2.63563 109.404 3.29975 109.377 3.98058C109.373 4.30185 109.316 4.62029 109.209 4.92305L95.5195 38.1286C95.2851 38.8588 94.8286 39.4977 94.2135 39.956C93.5984 40.4142 92.8556 40.669 92.0888 40.6847H90.8778C90.1107 40.6684 89.3679 40.4128 88.753 39.9539C88.1382 39.4948 87.682 38.8551 87.4485 38.1243Z" fill="black"/>
<path d="M115.197 39.6699C114.964 39.4359 114.782 39.1573 114.66 38.8508C114.539 38.5442 114.481 38.2162 114.49 37.8867V4.24878C114.478 3.57376 114.732 2.92099 115.197 2.43167C115.424 2.18859 115.701 1.99691 116.008 1.86946C116.316 1.74201 116.647 1.68173 116.98 1.69267H139.218C139.532 1.68389 139.845 1.74239 140.135 1.86423C140.425 1.98608 140.685 2.16845 140.899 2.39917C141.127 2.615 141.308 2.87598 141.429 3.16549C141.551 3.45499 141.611 3.76665 141.606 4.08064C141.614 4.39025 141.556 4.69809 141.434 4.98281C141.312 5.26753 141.129 5.52233 140.899 5.72961C140.677 5.94673 140.414 6.11788 140.125 6.2333C139.837 6.34871 139.528 6.40609 139.218 6.40219H119.536V18.6487H137.228C137.543 18.6399 137.855 18.6984 138.145 18.8204C138.435 18.9422 138.696 19.1245 138.91 19.3552C139.135 19.573 139.314 19.8344 139.435 20.1235C139.557 20.4124 139.618 20.7231 139.616 21.0367C139.625 21.3463 139.566 21.654 139.444 21.9387C139.322 22.2235 139.14 22.4784 138.91 22.6856C138.687 22.9027 138.424 23.0739 138.136 23.1892C137.847 23.3047 137.539 23.362 137.228 23.3582H119.536V35.6697H139.218C139.532 35.6609 139.845 35.7193 140.135 35.8412C140.425 35.963 140.685 36.1455 140.899 36.3762C141.127 36.592 141.308 36.8529 141.429 37.1425C141.551 37.432 141.611 37.7437 141.606 38.0577C141.614 38.3672 141.556 38.675 141.434 38.9597C141.312 39.2444 141.129 39.4993 140.899 39.7066C140.677 39.9237 140.414 40.0949 140.125 40.2102C139.837 40.3257 139.528 40.383 139.218 40.3792H116.98C116.648 40.4035 116.316 40.3524 116.007 40.2294C115.698 40.1067 115.421 39.9152 115.197 39.6699Z" fill="black"/>
<path d="M76.8525 37.1817L63.1634 3.97619C62.9283 3.24669 62.4713 2.60873 61.8564 2.15129C61.2413 1.69385 60.4989 1.4397 59.7327 1.42432H58.5217C57.7549 1.44 57.0121 1.69476 56.397 2.15301C55.782 2.61126 55.3254 3.25014 55.0909 3.98043L49.138 18.4453H44.6305C43.9804 18.449 43.3578 18.709 42.8982 19.1686C42.4384 19.6284 42.1784 20.251 42.1747 20.9011V20.935C42.1784 21.5851 42.4384 22.2077 42.8982 22.6675C43.3578 23.1271 43.9804 23.3871 44.6305 23.3908H47.0524L41.3679 37.1831C41.2604 37.4859 41.2036 37.8042 41.1998 38.1256C41.173 38.8063 41.4145 39.4704 41.8723 39.9752C42.1072 40.2155 42.3906 40.403 42.7038 40.5248C43.017 40.6466 43.3526 40.7002 43.688 40.6817C44.1964 40.675 44.6901 40.5107 45.101 40.2111C45.5317 39.8911 45.8684 39.4611 46.076 38.9663L52.3328 23.3922H56.6382C57.2883 23.3885 57.9109 23.1285 58.3707 22.6689C58.8303 22.2091 59.0903 21.5865 59.094 20.9364V20.8672C59.0903 20.2171 58.8303 19.5945 58.3707 19.1347C57.9109 18.6751 57.2883 18.4151 56.6382 18.4114H54.318L59.1222 6.47014L72.1388 38.9691C72.3463 39.4639 72.6831 39.8939 73.1138 40.214C73.5247 40.5135 74.0184 40.6778 74.5267 40.6845C74.8623 40.703 75.1979 40.6494 75.511 40.5276C75.8242 40.4058 76.1076 40.2183 76.3425 39.978C76.8003 39.4733 77.0417 38.8092 77.015 38.1284C77.0303 37.8048 76.9749 37.4816 76.8525 37.1817Z" fill="black"/>
<path d="M35.9531 37.1817L22.264 3.97619C22.0289 3.24669 21.5719 2.60873 20.957 2.15129C20.3419 1.69385 19.5995 1.4397 18.8332 1.42432H17.6223C16.8555 1.44 16.1126 1.69476 15.4976 2.15301C14.8825 2.61126 14.4259 3.25014 14.1915 3.98043L8.23856 18.4453H3.7311C3.08093 18.449 2.45844 18.709 1.99869 19.1686C1.53894 19.6284 1.27902 20.251 1.27531 20.9011V20.935C1.27902 21.5851 1.53894 22.2077 1.99869 22.6675C2.45844 23.1271 3.08093 23.3871 3.7311 23.3908H6.15298L0.468485 37.1817C0.360954 37.4845 0.304141 37.8028 0.300338 38.1241C0.273652 38.8049 0.515152 39.469 0.972925 39.9738C1.20772 40.2141 1.4912 40.4016 1.80436 40.5234C2.11751 40.6452 2.45311 40.6988 2.78863 40.6803C3.29701 40.6736 3.79077 40.5093 4.20163 40.2097C4.63229 39.8897 4.96902 39.4597 5.17659 38.9649L11.4334 23.3908H15.7727C16.4228 23.3871 17.0454 23.1271 17.5052 22.6675C17.9648 22.2077 18.2248 21.5851 18.2285 20.935V20.8672C18.2248 20.2171 17.9648 19.5945 17.5052 19.1347C17.0454 18.6751 16.4228 18.4151 15.7727 18.4114H13.4511L18.2271 6.47014L31.2436 38.9691C31.4512 39.4639 31.7879 39.8939 32.2186 40.214C32.6295 40.5135 33.1232 40.6778 33.6316 40.6845C33.9672 40.703 34.3027 40.6494 34.6159 40.5276C34.929 40.4058 35.2124 40.2183 35.4473 39.978C35.9051 39.4733 36.1466 38.8092 36.1199 38.1284C36.1337 37.8044 36.0769 37.4814 35.9531 37.1817Z" fill="black"/>
</g>
<defs>
<clipPath id="clip0_1641_74156">
<rect width="142.713" height="40.977" fill="white" transform="translate(0.298828 0.0114746)"/>
</clipPath>
</defs>
</svg>
