<svg width="25" height="24" viewBox="0 0 25 24" fill="none" xmlns="http://www.w3.org/2000/svg">
<g clip-path="url(#clip0_2033_188578)">
<path d="M12.5018 23.5328C18.8713 23.5328 24.0348 18.3693 24.0348 11.9998C24.0348 5.6303 18.8713 0.466797 12.5018 0.466797C6.13225 0.466797 0.96875 5.6303 0.96875 11.9998C0.96875 18.3693 6.13225 23.5328 12.5018 23.5328Z" fill="#9391F7"/>
<path d="M10.359 12.5621C11.3479 12.4016 12.0195 11.4697 11.859 10.4807C11.6984 9.49179 10.7665 8.82021 9.77762 8.98074C8.78866 9.14128 8.11709 10.0731 8.27762 11.0621C8.43815 12.051 9.36999 12.7226 10.359 12.5621Z" fill="white"/>
<path d="M15.1012 12.5621C16.0901 12.4016 16.7617 11.4697 16.6011 10.4807C16.4407 9.49179 15.5088 8.82021 14.5198 8.98074C13.5309 9.14128 12.8593 10.0731 13.0198 11.0621C13.1804 12.051 14.1122 12.7226 15.1012 12.5621Z" fill="white"/>
<path d="M12.4336 3.2832C7.50786 3.2832 3.51434 7.3528 3.51563 12.3713H5.79389C5.79389 8.61035 8.74306 5.56105 12.4336 5.56105C16.1241 5.56105 19.0733 8.61035 19.0733 12.3713H21.3516C21.3524 7.3528 17.3589 3.2832 12.4336 3.2832Z" fill="white"/>
</g>
<defs>
<clipPath id="clip0_2033_188578">
<rect width="23.066" height="23.066" fill="white" transform="translate(0.96875 0.466797)"/>
</clipPath>
</defs>
</svg>
