<svg width="489" height="225" viewBox="0 0 489 225" fill="none" xmlns="http://www.w3.org/2000/svg">
<g clip-path="url(#clip0_1641_84879)">
<g clip-path="url(#clip1_1641_84879)">
<rect width="489" height="225" rx="8" fill="#FCFCFC"/>
</g>
<rect x="0.5" y="0.5" width="488" height="224" rx="7.5" stroke="#E2E2E2"/>
<path d="M142 27V207" stroke="#E2E2E2" stroke-linejoin="bevel"/>
<path d="M244 27V207" stroke="#E2E2E2" stroke-linejoin="bevel"/>
<path d="M346 27V207" stroke="#E2E2E2" stroke-linejoin="bevel"/>
<path d="M60 66H429M60 98.5H429M60 131H429M60 162H429" stroke="#E2E2E2" stroke-linejoin="bevel" stroke-dasharray="6 6"/>
<path d="M80 94V136" stroke="#51AB96" stroke-linejoin="bevel"/>
<path d="M83 100H77V129H83V100Z" fill="#51AB96" stroke="#51AB96" stroke-linejoin="bevel"/>
<path d="M88 124V149" stroke="#9D63D3" stroke-linejoin="bevel"/>
<path d="M91 128H85V140H91V128Z" fill="#9D63D3" stroke="#9D63D3" stroke-linejoin="bevel"/>
<path d="M132 106V131" stroke="#9D63D3" stroke-linejoin="bevel"/>
<path d="M135 105H129V122H135V105Z" fill="#9D63D3" stroke="#9D63D3" stroke-linejoin="bevel"/>
<path d="M141 118V143" stroke="#51AB96" stroke-linejoin="bevel"/>
<path d="M144 122H138V136H144V122Z" fill="#51AB96" stroke="#51AB96" stroke-linejoin="bevel"/>
<path d="M150 104L150 142" stroke="#51AB96" stroke-linejoin="bevel"/>
<path d="M153 116H147V142H153V116Z" fill="#51AB96" stroke="#51AB96" stroke-linejoin="bevel"/>
<path d="M167 99L167 142" stroke="#51AB96" stroke-linejoin="bevel"/>
<path d="M170 116H164V142H170V116Z" fill="#51AB96" stroke="#51AB96" stroke-linejoin="bevel"/>
<path d="M185 77L185 142" stroke="#51AB96" stroke-linejoin="bevel"/>
<path d="M188 100H182V157H188V100Z" fill="#51AB96" stroke="#51AB96" stroke-linejoin="bevel"/>
<path d="M194 142L194 170" stroke="#9D63D3" stroke-linejoin="bevel"/>
<path d="M197 157H191V185H197V157Z" fill="#9D63D3" stroke="#9D63D3" stroke-linejoin="bevel"/>
<path d="M203 123L203 151" stroke="#51AB96" stroke-linejoin="bevel"/>
<path d="M206 136H200V158H206V136Z" fill="#51AB96" stroke="#51AB96" stroke-linejoin="bevel"/>
<path d="M212 110L212 149" stroke="#51AB96" stroke-linejoin="bevel"/>
<path d="M215 123H209V140H215V123Z" fill="#51AB96" stroke="#51AB96" stroke-linejoin="bevel"/>
<path d="M221 108L221 140" stroke="#51AB96" stroke-linejoin="bevel"/>
<path d="M224 116H218V145H224V116Z" fill="#51AB96" stroke="#51AB96" stroke-linejoin="bevel"/>
<path d="M230 101L230 135" stroke="#51AB96" stroke-linejoin="bevel"/>
<path d="M233 114H227V129H233V114Z" fill="#51AB96" stroke="#51AB96" stroke-linejoin="bevel"/>
<path d="M239 124L239 158" stroke="#9D63D3" stroke-linejoin="bevel"/>
<path d="M242 137H236V152H242V137Z" fill="#9D63D3" stroke="#9D63D3" stroke-linejoin="bevel"/>
<path d="M248 131L248 163" stroke="#9D63D3" stroke-linejoin="bevel"/>
<path d="M251 144H245V159H251V144Z" fill="#9D63D3" stroke="#9D63D3" stroke-linejoin="bevel"/>
<path d="M257 144L257 166" stroke="#9D63D3" stroke-linejoin="bevel"/>
<path d="M260 152H254V167H260V152Z" fill="#9D63D3" stroke="#9D63D3" stroke-linejoin="bevel"/>
<path d="M266 144L266 158.326" stroke="#51AB96" stroke-linejoin="bevel"/>
<path d="M269 149.209H263V172H269V149.209Z" fill="#51AB96" stroke="#51AB96" stroke-linejoin="bevel"/>
<path d="M275 131L275 147" stroke="#51AB96" stroke-linejoin="bevel"/>
<path d="M278 138H272V151H278V138Z" fill="#51AB96" stroke="#51AB96" stroke-linejoin="bevel"/>
<path d="M284 120L284 136" stroke="#51AB96" stroke-linejoin="bevel"/>
<path d="M287 127H281V140H287V127Z" fill="#51AB96" stroke="#51AB96" stroke-linejoin="bevel"/>
<path d="M292 98L292 129" stroke="#9D63D3" stroke-linejoin="bevel"/>
<path d="M295 120H289V133H295V120Z" fill="#9D63D3" stroke="#9D63D3" stroke-linejoin="bevel"/>
<path d="M301 101L301 134" stroke="#51AB96" stroke-linejoin="bevel"/>
<path d="M304 115H298V128H304V115Z" fill="#51AB96" stroke="#51AB96" stroke-linejoin="bevel"/>
<path d="M309 110L309 128" stroke="#51AB96" stroke-linejoin="bevel"/>
<path d="M312 115H306V131H312V115Z" fill="#51AB96" stroke="#51AB96" stroke-linejoin="bevel"/>
<path d="M318 113L318 142" stroke="#9D63D3" stroke-linejoin="bevel"/>
<path d="M321 118H315V131H321V118Z" fill="#9D63D3" stroke="#9D63D3" stroke-linejoin="bevel"/>
<path d="M327 102L327 125" stroke="#51AB96" stroke-linejoin="bevel"/>
<path d="M330 115H324V128H330V115Z" fill="#51AB96" stroke="#51AB96" stroke-linejoin="bevel"/>
<path d="M336 103L336 120" stroke="#51AB96" stroke-linejoin="bevel"/>
<path d="M339 107H333V116H339V107Z" fill="#51AB96" stroke="#51AB96" stroke-linejoin="bevel"/>
<path d="M345 90L345 103" stroke="#51AB96" stroke-linejoin="bevel"/>
<path d="M348 94H342V107H348V94Z" fill="#51AB96" stroke="#51AB96" stroke-linejoin="bevel"/>
<path d="M354 60L354 90" stroke="#51AB96" stroke-linejoin="bevel"/>
<path d="M357 69H351V94H357V69Z" fill="#51AB96" stroke="#51AB96" stroke-linejoin="bevel"/>
<path d="M363 51L363 74" stroke="#51AB96" stroke-linejoin="bevel"/>
<path d="M366 69H360V78H366V69Z" fill="#51AB96" stroke="#51AB96" stroke-linejoin="bevel"/>
<path d="M372 29L372 65" stroke="#9D63D3" stroke-linejoin="bevel"/>
<path d="M375 40H369V69H375V40Z" fill="#9D63D3" stroke="#9D63D3" stroke-linejoin="bevel"/>
<path d="M381 52L381 66" stroke="#51AB96" stroke-linejoin="bevel"/>
<path d="M384 48H378V60H384V48Z" fill="#51AB96" stroke="#51AB96" stroke-linejoin="bevel"/>
<path d="M390 18L390 74" stroke="#51AB96" stroke-linejoin="bevel"/>
<path d="M393 29H387V64H393V29Z" fill="#51AB96" stroke="#51AB96" stroke-linejoin="bevel"/>
<path d="M399 50L399 78" stroke="#9D63D3" stroke-linejoin="bevel"/>
<path d="M402 61H396V75H402V61Z" fill="#9D63D3" stroke="#9D63D3" stroke-linejoin="bevel"/>
<path d="M408 64L408 106" stroke="#51AB96" stroke-linejoin="bevel"/>
<path d="M411 72H405V97H411V72Z" fill="#51AB96" stroke="#51AB96" stroke-linejoin="bevel"/>
<path d="M159 135L159 162" stroke="#9D63D3" stroke-linejoin="bevel"/>
<path d="M162 139H156V143H162V139Z" fill="#9D63D3" stroke="#9D63D3" stroke-linejoin="bevel"/>
<path d="M176 96L176 131" stroke="#9D63D3" stroke-linejoin="bevel"/>
<path d="M179 107H173V118H179V107Z" fill="#9D63D3" stroke="#9D63D3" stroke-linejoin="bevel"/>
<path d="M97 107V132" stroke="#51AB96" stroke-linejoin="bevel"/>
<path d="M100 120H94V139H100V120Z" fill="#51AB96" stroke="#51AB96" stroke-linejoin="bevel"/>
<path d="M106 100L106 159" stroke="#9D63D3" stroke-linejoin="bevel"/>
<path d="M109 112H103V146H109V112Z" fill="#9D63D3" stroke="#9D63D3" stroke-linejoin="bevel"/>
<path d="M115 128L115 194" stroke="#9D63D3" stroke-linejoin="bevel"/>
<path d="M118 124H112V164H118V124Z" fill="#9D63D3" stroke="#9D63D3" stroke-linejoin="bevel"/>
<path d="M123 98L123 159" stroke="#51AB96" stroke-linejoin="bevel"/>
<path d="M126 105H120V160H126V105Z" fill="#51AB96" stroke="#51AB96" stroke-linejoin="bevel"/>
</g>
<defs>
<clipPath id="clip0_1641_84879">
<rect width="489" height="225" rx="8" fill="white"/>
</clipPath>
<clipPath id="clip1_1641_84879">
<rect width="489" height="225" rx="8" fill="white"/>
</clipPath>
</defs>
</svg>
