<svg width="211" height="80" viewBox="0 0 211 80" fill="none" xmlns="http://www.w3.org/2000/svg">
<g clip-path="url(#clip0_1525_169200)">
<g clip-path="url(#clip1_1525_169200)">
<path opacity="0.5" fill-rule="evenodd" clip-rule="evenodd" d="M55.554 39.6626C60.0431 42.4459 65.0349 44.5283 70.4327 45.7908C70.435 45.789 70.4373 45.7873 70.4396 45.7855C70.4401 45.7857 70.4404 45.7858 70.4404 45.7858C63.5763 51.0628 59.3043 54.9238 54.922 59.5843C50.3642 64.4313 45.5171 70.1384 39.685 79.3322C39.467 79.0148 39.1294 78.4993 38.7092 77.8575C37.4108 75.8749 35.3238 72.6878 33.5401 70.4198C36.6046 57.3176 44.5314 46.5971 55.554 39.6626Z" fill="#E5E5FE"/>
<path opacity="0.75" fill-rule="evenodd" clip-rule="evenodd" d="M39.6621 23.7768C42.453 19.288 44.5279 14.3128 45.7904 8.91492C45.7886 8.91263 45.7868 8.91035 45.785 8.90806C45.7851 8.9075 45.7852 8.90723 45.7852 8.90723C51.0623 15.7713 54.9233 20.0434 59.5838 24.4257C64.4308 28.9835 70.1379 33.8306 79.3317 39.6627C79.0143 39.8806 78.4988 40.2182 77.857 40.6385C75.8744 41.9368 72.6873 44.0239 70.4193 45.8075C57.3171 42.743 46.5966 34.7993 39.6621 23.7768Z" fill="#E5E5FE"/>
<path opacity="0.95" fill-rule="evenodd" clip-rule="evenodd" d="M23.7771 39.6694C19.288 36.8862 14.2961 34.8037 8.8983 33.5412C8.89604 33.543 8.89377 33.5448 8.8915 33.5465C8.89092 33.5464 8.89062 33.5463 8.89062 33.5463C15.7547 28.2692 20.0267 24.4082 24.4091 19.7477C28.9669 14.9007 33.814 9.19364 39.6461 -0.000164399C39.864 0.317184 40.2016 0.832756 40.6219 1.47452C41.9202 3.45716 44.0073 6.64425 45.7909 8.91219C42.7264 22.0144 34.7996 32.735 23.7771 39.6694Z" fill="#E5E5FE"/>
<path opacity="0.75" fill-rule="evenodd" clip-rule="evenodd" d="M39.6855 55.5412C36.9023 60.0303 34.8043 65.0222 33.5418 70.42C33.5436 70.4223 33.5454 70.4246 33.5472 70.4269C33.5471 70.4275 33.547 70.4277 33.547 70.4277C28.2699 63.5637 24.4089 59.2916 19.7484 54.9093C14.9014 50.3515 9.19434 45.5044 0.000537872 39.6723C0.31789 39.4543 0.833462 39.1167 1.47523 38.6965C3.45787 37.3981 6.64495 35.3111 8.9129 33.5274C22.0151 36.5919 32.7511 44.5187 39.6855 55.5412Z" fill="#E5E5FE"/>
</g>
<g clip-path="url(#clip2_1525_169200)">
<g clip-path="url(#clip3_1525_169200)">
<path d="M110.378 20.3976L102.521 39.7428H96.0156L106.614 14.3363H114.142L124.777 39.7428H118.162L110.378 20.3976ZM116.773 35.5689H103.909L105.262 30.778H115.348L116.773 35.5689Z" fill="#E5E5FE"/>
<path d="M128.055 39.7428V14.3363H141.357C143.233 14.3363 144.841 14.5904 146.181 15.0985C147.546 15.6067 148.581 16.3447 149.288 17.3125C150.018 18.2562 150.384 19.4055 150.384 20.7606C150.384 21.7526 150.177 22.6721 149.763 23.519C149.373 24.3659 148.8 25.0797 148.045 25.6604C147.29 26.2411 146.413 26.6524 145.414 26.8944L145.231 26.3137C147.131 26.604 148.642 27.342 149.763 28.5277C150.883 29.6891 151.444 31.1288 151.444 32.8468C151.444 34.2744 151.054 35.5084 150.274 36.5489C149.495 37.5651 148.362 38.3515 146.876 38.908C145.414 39.4646 143.684 39.7428 141.686 39.7428H128.055ZM133.829 29.181V24.6804H140.151C141.077 24.6804 141.832 24.5836 142.417 24.39C143.026 24.1723 143.477 23.8698 143.769 23.4827C144.062 23.0713 144.208 22.5632 144.208 21.9583C144.208 21.0146 143.879 20.3371 143.221 19.9258C142.563 19.4902 141.54 19.2725 140.151 19.2725H134.231V34.8067H140.846C141.844 34.8067 142.661 34.7099 143.294 34.5163C143.928 34.2986 144.403 33.984 144.719 33.5727C145.036 33.1613 145.194 32.6411 145.194 32.012C145.194 31.0441 144.829 30.3303 144.098 29.8706C143.367 29.4109 142.246 29.181 140.736 29.181H133.829Z" fill="#E5E5FE"/>
<path d="M155.825 39.7428V14.3363H167.191C170.041 14.3363 172.538 14.8566 174.682 15.897C176.851 16.9375 178.508 18.4135 179.653 20.325C180.822 22.2365 181.407 24.4626 181.407 27.0033C181.407 29.5681 180.822 31.8184 179.653 33.7542C178.508 35.6657 176.851 37.1417 174.682 38.1821C172.538 39.2226 170.041 39.7428 167.191 39.7428H155.825ZM166.898 34.4075C168.555 34.4075 169.98 34.1171 171.174 33.5364C172.368 32.9315 173.282 32.0846 173.915 30.9957C174.573 29.8827 174.902 28.564 174.902 27.0396C174.902 25.491 174.573 24.1723 173.915 23.0834C173.282 21.9704 172.356 21.1235 171.138 20.5428C169.944 19.9621 168.531 19.6717 166.898 19.6717H162.111V34.4075H166.898Z" fill="#E5E5FE"/>
<path d="M202.147 39.7308L191.574 27.4751V26.3137L201.843 14.3H209.517L198.663 26.8218L209.804 39.7308H202.147ZM185.946 39.7428L185.909 14.3363H192.231V39.7428H185.946Z" fill="#E5E5FE"/>
</g>
<path d="M104.039 65.5471C102.639 65.5471 101.344 65.229 100.156 64.5927C98.9818 63.9565 98.0411 63.0586 97.3337 61.8992C96.6405 60.7398 96.2939 59.4037 96.2939 57.8908C96.2939 56.3638 96.6264 55.0276 97.2913 53.8824C97.9703 52.723 98.8828 51.8322 100.029 51.2101C101.189 50.5738 102.476 50.2557 103.891 50.2557C104.895 50.2557 105.843 50.4042 106.734 50.7011C107.64 50.998 108.566 51.4646 109.514 52.1009L108.602 53.7551C107.809 53.2037 107.045 52.8007 106.31 52.5462C105.588 52.2917 104.824 52.1645 104.018 52.1645C102.985 52.1645 102.045 52.3907 101.196 52.8432C100.361 53.2956 99.6962 53.9531 99.2011 54.8156C98.7201 55.678 98.4796 56.6961 98.4796 57.8696C98.4796 59.0149 98.7201 60.0258 99.2011 60.9024C99.6962 61.7649 100.368 62.4365 101.217 62.9172C102.066 63.3838 103.014 63.6171 104.06 63.6171C104.867 63.6171 105.645 63.4899 106.395 63.2354C107.144 62.9667 107.901 62.5638 108.665 62.0265L109.578 63.6808C108.686 64.317 107.788 64.7907 106.883 65.1017C105.977 65.3987 105.03 65.5471 104.039 65.5471Z" fill="#E5E5FE"/>
<path d="M117.381 65.5259C116.207 65.5259 115.146 65.2714 114.198 64.7624C113.264 64.2393 112.536 63.5252 112.012 62.6203C111.489 61.7154 111.227 60.6903 111.227 59.5451C111.227 58.414 111.489 57.3959 112.012 56.491C112.55 55.572 113.285 54.858 114.219 54.349C115.153 53.8258 116.207 53.5642 117.381 53.5642C118.555 53.5642 119.609 53.8258 120.543 54.349C121.49 54.858 122.226 55.5649 122.749 56.4698C123.287 57.3747 123.556 58.3927 123.556 59.5239C123.556 60.6691 123.287 61.7013 122.749 62.6203C122.226 63.5252 121.49 64.2393 120.543 64.7624C119.609 65.2714 118.555 65.5259 117.381 65.5259ZM117.402 63.6808C118.18 63.6808 118.88 63.5111 119.503 63.1718C120.125 62.8183 120.613 62.3305 120.967 61.7084C121.321 61.0721 121.497 60.351 121.497 59.5451C121.497 58.725 121.321 58.0039 120.967 57.3818C120.613 56.7597 120.125 56.279 119.503 55.9396C118.88 55.5861 118.173 55.4094 117.381 55.4094C116.603 55.4094 115.895 55.5861 115.259 55.9396C114.636 56.279 114.148 56.7597 113.795 57.3818C113.441 58.0039 113.264 58.7179 113.264 59.5239C113.264 60.3439 113.441 61.0721 113.795 61.7084C114.148 62.3305 114.636 62.8183 115.259 63.1718C115.895 63.5111 116.61 63.6808 117.402 63.6808Z" fill="#E5E5FE"/>
<path d="M135.177 58.7392C135.177 57.6929 134.908 56.8869 134.37 56.3214C133.847 55.7417 133.083 55.4518 132.079 55.4518C131.357 55.4518 130.699 55.6356 130.105 56.0032C129.525 56.3709 129.058 56.8869 128.705 57.5515C128.351 58.216 128.146 58.9795 128.089 59.842L127.601 57.5515C127.842 56.3779 128.379 55.4235 129.214 54.6883C130.049 53.9389 131.159 53.5642 132.545 53.5642C133.479 53.5642 134.293 53.7622 134.986 54.1581C135.679 54.554 136.217 55.1266 136.599 55.876C136.995 56.6112 137.193 57.4737 137.193 58.4634V65.3138H135.177V58.7392ZM126.307 65.3138V53.7975H128.323V65.3138H126.307Z" fill="#E5E5FE"/>
<path d="M144.196 65.5259C143.262 65.5259 142.385 65.434 141.565 65.2502C140.758 65.0522 140.002 64.7765 139.294 64.4231L139.676 62.5143C140.412 62.8819 141.169 63.1647 141.947 63.3626C142.739 63.5464 143.517 63.6383 144.281 63.6383C144.804 63.6383 145.264 63.5889 145.66 63.4899C146.071 63.3909 146.389 63.2283 146.615 63.0021C146.856 62.7617 146.976 62.4577 146.976 62.0901C146.976 61.6235 146.764 61.27 146.339 61.0297C145.915 60.7752 145.13 60.5419 143.984 60.3298C142.895 60.1318 142.032 59.8915 141.395 59.6087C140.758 59.3118 140.306 58.9512 140.037 58.5271C139.782 58.1029 139.655 57.5727 139.655 56.9364C139.669 56.2012 139.881 55.5791 140.292 55.0701C140.702 54.5611 141.247 54.1864 141.926 53.946C142.619 53.6915 143.397 53.5642 144.26 53.5642C144.995 53.5642 145.71 53.642 146.403 53.7975C147.096 53.9389 147.761 54.144 148.398 54.4126L148.079 56.3638C147.542 56.0669 146.926 55.8406 146.233 55.6851C145.554 55.5296 144.847 55.4518 144.111 55.4518C143.602 55.4518 143.17 55.4942 142.817 55.5791C142.477 55.6639 142.208 55.8124 142.01 56.0244C141.827 56.2224 141.728 56.4769 141.713 56.788C141.713 57.0566 141.798 57.2899 141.968 57.4878C142.138 57.6717 142.421 57.8413 142.817 57.9968C143.227 58.1382 143.807 58.2867 144.557 58.4422C145.703 58.6826 146.601 58.9654 147.252 59.2906C147.903 59.6016 148.362 59.9834 148.631 60.4358C148.9 60.8742 149.034 61.4044 149.034 62.0265C149.02 62.8041 148.801 63.4545 148.376 63.9777C147.952 64.5008 147.372 64.8896 146.636 65.1442C145.915 65.3987 145.101 65.5259 144.196 65.5259Z" fill="#E5E5FE"/>
<path d="M153.224 60.3722C153.224 61.4185 153.486 62.2315 154.01 62.8112C154.547 63.3768 155.318 63.6595 156.323 63.6595C157.044 63.6595 157.695 63.4757 158.275 63.1081C158.869 62.7405 159.343 62.2244 159.696 61.5599C160.05 60.8954 160.255 60.1318 160.312 59.2694L160.8 61.5599C160.559 62.7334 160.022 63.6949 159.187 64.4443C158.353 65.1795 157.242 65.5471 155.856 65.5471C154.922 65.5471 154.109 65.3492 153.415 64.9533C152.722 64.5574 152.178 63.9918 151.781 63.2566C151.399 62.5072 151.208 61.6377 151.208 60.6479V53.7975H153.224V60.3722ZM162.094 53.7975V65.3138H160.078V53.7975H162.094Z" fill="#E5E5FE"/>
<path d="M165.49 65.3138V49.6619H167.506V65.3138H165.49Z" fill="#E5E5FE"/>
<path d="M175.206 65.5259C174.102 65.5259 173.239 65.2219 172.617 64.6139C172.008 63.9918 171.704 63.1152 171.704 61.9841V55.6215H170.007V54.4974L170.749 53.7339L172.871 51.4222H173.741V53.7763H177.582V55.6215H173.741V61.6023C173.741 62.2527 173.904 62.7617 174.23 63.1293C174.555 63.4969 175.001 63.6808 175.566 63.6808C175.906 63.6808 176.245 63.6383 176.585 63.5535C176.939 63.4687 177.264 63.3485 177.561 63.193L177.964 64.826C177.568 65.0522 177.123 65.2219 176.627 65.335C176.146 65.4623 175.672 65.5259 175.206 65.5259Z" fill="#E5E5FE"/>
<path d="M180.512 65.3138V53.7975H182.528V65.3138H180.512ZM180.449 52.419V49.98H182.549V52.419H180.449Z" fill="#E5E5FE"/>
<path d="M194.79 58.7392C194.79 57.6929 194.521 56.8869 193.984 56.3214C193.46 55.7417 192.696 55.4518 191.692 55.4518C190.97 55.4518 190.312 55.6356 189.718 56.0032C189.138 56.3709 188.671 56.8869 188.318 57.5515C187.964 58.216 187.759 58.9795 187.702 59.842L187.214 57.5515C187.455 56.3779 187.992 55.4235 188.827 54.6883C189.662 53.9389 190.772 53.5642 192.159 53.5642C193.092 53.5642 193.906 53.7622 194.599 54.1581C195.292 54.554 195.83 55.1266 196.212 55.876C196.608 56.6112 196.806 57.4737 196.806 58.4634V65.3138H194.79V58.7392ZM185.92 65.3138V53.7975H187.936V65.3138H185.92Z" fill="#E5E5FE"/>
<path d="M204.679 69.1526C203.024 69.1526 201.73 68.891 200.796 68.3679C199.876 67.8447 199.417 67.1095 199.417 66.1622C199.417 65.7521 199.544 65.3704 199.799 65.0169C200.067 64.6634 200.4 64.3736 200.796 64.1473C201.206 63.907 201.638 63.7232 202.09 63.5959L203.406 63.8716C202.727 64.1968 202.232 64.522 201.921 64.8472C201.624 65.1583 201.475 65.4976 201.475 65.8652C201.475 66.2187 201.602 66.5015 201.857 66.7136C202.126 66.9257 202.501 67.0741 202.982 67.159C203.463 67.2579 204.071 67.3074 204.807 67.3074C205.698 67.3074 206.44 67.2509 207.035 67.1378C207.643 67.0246 208.103 66.8408 208.414 66.5863C208.725 66.3318 208.881 66.0066 208.881 65.6107C208.881 65.1583 208.626 64.8402 208.117 64.6564C207.622 64.4584 206.844 64.3594 205.783 64.3594H202.578C201.786 64.3594 201.15 64.1544 200.669 63.7444C200.188 63.3343 199.947 62.8253 199.947 62.2174C199.947 61.6659 200.124 61.1993 200.478 60.8176C200.831 60.4358 201.277 60.1743 201.815 60.0329L203.215 60.6479C202.748 60.7893 202.423 60.9378 202.239 61.0933C202.055 61.2488 201.963 61.4539 201.963 61.7084C201.963 61.9911 202.062 62.1962 202.26 62.3234C202.472 62.4507 202.769 62.5143 203.151 62.5143H206.356C207.841 62.5143 208.973 62.7829 209.751 63.3202C210.529 63.8575 210.918 64.5857 210.918 65.5047C210.918 66.2399 210.677 66.8762 210.196 67.4135C209.715 67.9649 209.008 68.3891 208.074 68.686C207.141 68.997 206.009 69.1526 204.679 69.1526ZM204.934 61.2206C203.392 61.2206 202.182 60.8812 201.305 60.2025C200.428 59.5097 199.99 58.5695 199.99 57.3818C199.99 56.6042 200.188 55.9325 200.584 55.367C200.98 54.7873 201.546 54.3419 202.281 54.0308C203.017 53.7056 203.887 53.543 204.891 53.543C205.613 53.543 206.242 53.6349 206.78 53.8188C207.332 54.0026 207.77 54.2853 208.096 54.6671C208.449 54.8085 208.753 55.0135 209.008 55.2821C209.263 55.5367 209.461 55.8477 209.602 56.2153C209.744 56.5688 209.814 56.9576 209.814 57.3818C209.814 58.1594 209.616 58.8381 209.22 59.4178C208.824 59.9975 208.258 60.4429 207.523 60.754C206.787 61.065 205.924 61.2206 204.934 61.2206ZM204.913 59.4602C205.535 59.4602 206.059 59.3825 206.483 59.2269C206.921 59.0714 207.254 58.8381 207.48 58.5271C207.707 58.216 207.82 57.8342 207.82 57.3818C207.82 56.7173 207.565 56.2083 207.056 55.8548C206.561 55.5013 205.846 55.3246 204.913 55.3246C204.29 55.3246 203.76 55.4023 203.321 55.5579C202.883 55.7134 202.55 55.9467 202.324 56.2577C202.112 56.5547 202.006 56.9223 202.006 57.3606C202.006 58.0393 202.253 58.5624 202.748 58.93C203.243 59.2835 203.965 59.4602 204.913 59.4602ZM207.883 55.2397L206.759 54.0945L210.154 53.0977L210.621 54.7731L207.883 55.2397Z" fill="#E5E5FE"/>
</g>
</g>
<defs>
<clipPath id="clip0_1525_169200">
<rect width="211" height="79.3804" fill="white"/>
</clipPath>
<clipPath id="clip1_1525_169200">
<rect width="79.3804" height="79.3804" fill="white"/>
</clipPath>
<clipPath id="clip2_1525_169200">
<rect width="114.902" height="54.8524" fill="white" transform="translate(96.0156 14.3)"/>
</clipPath>
<clipPath id="clip3_1525_169200">
<rect width="113.789" height="25.4307" fill="white" transform="translate(96.0156 14.3)"/>
</clipPath>
</defs>
</svg>
