<svg width="62" height="62" viewBox="0 0 62 62" fill="none" xmlns="http://www.w3.org/2000/svg">
<g clip-path="url(#clip0_802_9854)">
<path opacity="0.38" fill-rule="evenodd" clip-rule="evenodd" d="M43.346 30.8667C46.8396 33.0327 50.7244 34.6534 54.9252 35.6359C54.9269 35.6345 54.9287 35.6331 54.9305 35.6317C54.9309 35.6319 54.9312 35.6319 54.9312 35.6319C49.5893 39.7387 46.2647 42.7435 42.8542 46.3704C39.3072 50.1425 35.535 54.5839 30.9963 61.7388C30.8267 61.4918 30.5639 61.0906 30.2369 60.5912C29.2265 59.0482 27.6023 56.5679 26.2142 54.8029C28.5991 44.6064 34.768 36.2633 43.346 30.8667Z" fill="black"/>
<path opacity="0.55" fill-rule="evenodd" clip-rule="evenodd" d="M30.978 18.5038C33.15 15.0106 34.7647 11.1387 35.7472 6.93787C35.7458 6.93609 35.7444 6.93431 35.743 6.93253C35.7432 6.9321 35.7432 6.93188 35.7432 6.93188C39.85 12.2737 42.8548 15.5984 46.4817 19.0088C50.2538 22.5559 54.6952 26.328 61.8501 30.8667C61.6031 31.0363 61.2019 31.2991 60.7025 31.6261C59.1595 32.6365 56.6792 34.2607 54.9142 35.6488C44.7177 33.264 36.3746 27.0819 30.978 18.5038Z" fill="black"/>
<path opacity="0.75" fill-rule="evenodd" clip-rule="evenodd" d="M18.6154 30.8721C15.1218 28.706 11.237 27.0854 7.03625 26.1029C7.03448 26.1043 7.03272 26.1057 7.03096 26.1071C7.0305 26.1069 7.03027 26.1068 7.03027 26.1068C12.3721 22.0001 15.6968 18.9953 19.1072 15.3684C22.6542 11.5963 26.4264 7.15486 30.9651 -4.41544e-05C31.1347 0.246927 31.3975 0.648157 31.7245 1.1476C32.7349 2.69056 34.3591 5.17084 35.7472 6.93583C33.3623 17.1324 27.1934 25.4755 18.6154 30.8721Z" fill="black"/>
<path opacity="0.55" fill-rule="evenodd" clip-rule="evenodd" d="M30.9961 43.2239C28.8301 46.7175 27.1974 50.6023 26.2149 54.8031C26.2163 54.8049 26.2177 54.8067 26.2191 54.8084C26.2189 54.8089 26.2189 54.8091 26.2189 54.8091C22.1121 49.4672 19.1073 46.1426 15.4804 42.7321C11.7083 39.1851 7.26689 35.413 0.111986 30.8742C0.358959 30.7046 0.760193 30.4419 1.25964 30.1148C2.80259 29.1044 5.28288 27.4802 7.04786 26.0921C17.2444 28.477 25.5995 34.6459 30.9961 43.2239Z" fill="black"/>
</g>
<defs>
<clipPath id="clip0_802_9854">
<rect width="61.7763" height="61.7763" fill="white" transform="translate(0.111816)"/>
</clipPath>
</defs>
</svg>
