<svg width="380" height="196" viewBox="0 0 380 196" fill="none" xmlns="http://www.w3.org/2000/svg">
<g clip-path="url(#clip0_1443_1506)">
<path d="M0.489258 128.626V114.816H62.6749V128.626H38.911V194.055H24.2532V128.626H0.489258ZM133.173 125.004C140.798 132.852 144.611 142.663 144.611 154.435C144.611 166.208 140.798 176.018 133.173 183.867C125.548 191.715 116.035 195.639 104.634 195.639C93.2331 195.639 83.7201 191.715 76.095 183.867C68.4699 176.018 64.6577 166.208 64.6577 154.435C64.6577 142.663 68.4699 132.852 76.095 125.004C83.7201 117.156 93.2331 113.231 104.634 113.231C116.035 113.231 125.548 117.156 133.173 125.004ZM86.6442 174.471C91.3826 179.377 97.3793 181.829 104.634 181.829C111.889 181.829 117.886 179.377 122.623 174.471C127.361 169.491 129.731 162.812 129.731 154.435C129.731 146.059 127.361 139.418 122.623 134.513C117.886 129.532 111.889 127.042 104.634 127.042C97.3793 127.042 91.3826 129.532 86.6442 134.513C81.9065 139.418 79.5376 146.059 79.5376 154.435C79.5376 162.812 81.9065 169.491 86.6442 174.471ZM219.317 114.816V164.057C219.317 173.943 216.356 181.679 210.434 187.263C204.511 192.847 196.849 195.639 187.448 195.639C178.046 195.639 170.383 192.847 164.461 187.263C158.538 181.679 155.577 173.943 155.577 164.057V114.816H170.235V162.586C170.235 168.698 171.753 173.453 174.788 176.849C177.823 180.169 182.043 181.829 187.448 181.829C192.852 181.829 197.071 180.169 200.107 176.849C203.142 173.453 204.66 168.698 204.66 162.586V114.816H219.317ZM293.768 165.982L305.205 174.358C300.244 181.98 295.174 187.452 289.989 190.772C284.882 194.017 278.26 195.639 270.111 195.639C258.566 195.639 249.049 191.829 241.574 184.206C234.098 176.584 230.359 166.661 230.359 154.435C230.359 142.21 234.171 132.286 241.797 124.664C249.495 117.042 259.119 113.231 270.671 113.231C278.667 113.231 285.658 115.118 291.656 118.891C297.655 122.665 302.018 127.683 304.76 133.947L292.877 142.663C287.916 132.249 280.365 127.042 270.225 127.042C263.19 127.042 257.268 129.57 252.459 134.626C247.645 139.682 245.239 146.285 245.239 154.435C245.239 162.435 247.645 169 252.459 174.132C257.268 179.264 263.19 181.829 270.225 181.829C280.365 181.829 288.215 176.547 293.768 165.982ZM316.102 194.055V114.816H330.758V146.738H364.739V114.816H379.395V194.055H364.739V160.548H330.758V194.055H316.102Z" fill="#353539"/>
</g>
<path d="M71.3742 87.2885L67.9757 75.552C62.311 84.5173 53.6927 89 42.1206 89C30.144 89 20.1095 84.8024 12.0172 76.4078C4.00571 68.0132 0 57.3773 0 44.5C0 31.6227 4.24848 20.9867 12.7455 12.592C21.3234 4.19735 31.7625 0 44.0628 0C52.4789 0 59.9643 1.87454 66.5191 5.62363C73.0736 9.3727 77.9695 14.4666 81.207 20.9052L69.1895 29.7074C63.9295 19.3567 55.473 14.1813 43.8201 14.1813C36.0514 14.1813 29.4966 16.9523 24.1557 22.4945C18.8957 28.0366 16.2656 35.3718 16.2656 44.5C16.2656 53.2207 18.7338 60.3521 23.6701 65.8942C28.6873 71.355 34.9994 74.0849 42.6062 74.0849C49.4847 74.0849 54.8661 72.2921 58.7504 68.7061C62.6347 65.0385 65.022 60.3929 65.9121 54.7692H38.4791V41.5659H81.935V87.2885H71.3742ZM96.4502 87.2885V1.71154H155.079V16.1374H112.473V35.82H151.68V50.2459H112.473V72.8628H155.443V87.2885H96.4502ZM164.212 16.6264V1.71154H232.187V16.6264H206.211V87.2885H190.188V16.6264H164.212ZM276.513 87.2885V1.71154H292.536V87.2885H276.513ZM309.111 87.2885V1.71154H325.377L360.821 56.114C360.983 56.3585 361.509 57.2551 362.399 58.8036C363.29 60.2706 363.977 61.6154 364.463 62.8379V1.71154H380V87.2885H363.735L328.29 32.5192C328.129 32.2747 327.602 31.3782 326.712 29.8297C325.66 28.0366 324.972 26.6919 324.648 25.7953V87.2885H309.111Z" fill="#353539"/>
<defs>
<clipPath id="clip0_1443_1506">
<rect width="380" height="83" fill="white" transform="translate(0 113)"/>
</clipPath>
</defs>
</svg>
