<svg width="32" height="32" viewBox="0 0 32 32" fill="none" xmlns="http://www.w3.org/2000/svg">
<g clip-path="url(#clip0_1361_3002)">
<path fill-rule="evenodd" clip-rule="evenodd" d="M3.78303 13.3534C5.81753 13.8764 7.71055 14.6827 9.43029 15.7331C12.0091 14.0861 14.1669 11.9299 15.767 9.37313L15.8077 9.30776C15.8158 9.29467 15.8239 9.28158 15.832 9.26848C15.8392 9.25688 15.8464 9.24528 15.8535 9.23367C16.9516 7.44659 17.7791 5.46696 18.2903 3.33124L18.2813 3.31981L18.2818 3.31836C17.5554 2.3806 16.728 1.11713 16.2102 0.326378L16.2076 0.322447C16.1293 0.20294 16.0584 0.0946789 15.996 0C13.6564 3.64843 11.6965 5.95097 9.85128 7.91324C8.11074 9.76422 6.41213 11.3115 3.78303 13.3534ZM3.31278 13.7184L3.31131 13.7179C2.37431 14.443 1.11526 15.2675 0.326489 15.784L0.326439 15.784L0.322455 15.7866L0.322129 15.7868L0.319833 15.7883C0.201362 15.8659 0.0939883 15.9362 0 15.9982C3.64848 18.3377 5.95106 20.2977 7.91336 22.1428C9.76591 23.8848 11.3142 25.5848 13.3587 28.2176C13.8822 26.181 14.6897 24.287 15.7417 22.567C14.1066 20.0059 11.9672 17.86 9.43242 16.2628L9.42712 16.2661L9.30795 16.1923C7.50063 15.0717 5.49362 14.2285 3.32417 13.7095L3.31278 13.7184ZM13.7187 28.6813L13.7184 28.6822C14.4447 29.6199 15.2718 30.883 15.7895 31.6736L15.7921 31.6776C15.8704 31.7971 15.9413 31.9053 16.0036 32C18.3433 28.3516 20.3032 26.049 22.1484 24.0868C23.8887 22.236 25.5871 20.6889 28.2157 18.6473C26.1817 18.1242 24.29 17.3169 22.5718 16.2654C20.0127 17.8993 17.8682 20.0346 16.2715 22.565L16.2728 22.567L16.1989 22.6861C15.0781 24.4938 14.2288 26.5008 13.7097 28.6698L13.7187 28.6813ZM31.6736 16.2171C30.8851 16.7334 29.6266 17.5575 28.6897 18.2824L28.687 18.2815L28.6755 18.2905C26.5061 17.7715 24.4991 16.9283 22.6917 15.8077L22.5726 15.7339L22.5699 15.7356C20.0362 14.136 17.8984 11.9869 16.2631 9.4247C17.3156 7.70538 18.1183 5.81792 18.6409 3.7831C20.6856 6.41617 22.234 8.11624 24.0866 9.8583C26.0489 11.7035 28.3515 13.6634 32 16.003C31.9053 16.0653 31.7971 16.1362 31.6776 16.2145L31.6736 16.2171Z" fill="white"/>
</g>
<defs>
<clipPath id="clip0_1361_3002">
<rect width="32" height="32" fill="white"/>
</clipPath>
</defs>
</svg>
