<svg width="1238" height="574" viewBox="0 0 1238 574" fill="none" xmlns="http://www.w3.org/2000/svg">
<path opacity="0.3" d="M215.842 160.818V171H214.301V162.359H214.241L211.805 163.95V162.479L214.346 160.818H215.842Z" fill="#818197"/>
<path opacity="0.3" d="M732.979 11V9.88636L736.425 6.31676C736.793 5.92898 737.096 5.58925 737.335 5.29759C737.576 5.0026 737.757 4.72254 737.876 4.45739C737.996 4.19223 738.055 3.91051 738.055 3.61222C738.055 3.27415 737.976 2.98248 737.817 2.73722C737.658 2.48864 737.441 2.29806 737.165 2.16548C736.89 2.02959 736.58 1.96165 736.236 1.96165C735.871 1.96165 735.553 2.03622 735.281 2.18537C735.009 2.33452 734.801 2.54498 734.655 2.81676C734.509 3.08854 734.436 3.40672 734.436 3.77131H732.969C732.969 3.15151 733.112 2.60961 733.397 2.1456C733.682 1.68158 734.073 1.32197 734.57 1.06676C735.067 0.808238 735.633 0.678977 736.266 0.678977C736.905 0.678977 737.469 0.806581 737.956 1.06179C738.446 1.31368 738.829 1.65838 739.104 2.09588C739.379 2.53007 739.517 3.0206 739.517 3.56747C739.517 3.94531 739.446 4.31487 739.303 4.67614C739.164 5.0374 738.92 5.4401 738.572 5.88423C738.224 6.32505 737.741 6.86032 737.121 7.49006L735.097 9.60795V9.68253H739.681V11H732.979Z" fill="#818197"/>
<path opacity="0.3" d="M1.08488 119L1.08259 566C1.08258 568.762 3.32116 571 6.08259 571L678.499 571" stroke="#0A0A29" stroke-dasharray="6 6"/>
<path opacity="0.3" d="M0 166.002L204 166.002" stroke="#0A0A29" stroke-dasharray="6 6"/>
<path opacity="0.3" d="M726.501 6.00005L718.501 6.00005C715.74 6.00005 713.501 8.23862 713.501 11L713.501 161.327C713.501 164.089 711.262 166.327 708.501 166.327L223.001 166.327" stroke="#0A0A29" stroke-dasharray="6 6"/>
<path opacity="0.3" d="M744 6.00026L1232 6.00024C1234.76 6.00024 1237 8.23882 1237 11.0002L1237 405.5C1237 408.262 1234.76 410.5 1232 410.5L744 410.5" stroke="#0A0A29" stroke-dasharray="6 6"/>
<path opacity="0.3" d="M685.766 572.011V570.768L690.165 563.818H691.145V565.648H690.523L687.376 570.629V570.709H693.407V572.011H685.766ZM690.593 574V571.634L690.603 571.067V563.818H692.06V574H690.593Z" fill="#818197"/>
<path opacity="0.3" d="M733.524 416.139C732.841 416.139 732.232 416.022 731.695 415.786C731.161 415.551 730.738 415.224 730.427 414.807C730.119 414.386 729.953 413.899 729.93 413.345H731.491C731.511 413.647 731.612 413.909 731.794 414.131C731.98 414.349 732.222 414.518 732.52 414.638C732.818 414.757 733.15 414.817 733.514 414.817C733.915 414.817 734.27 414.747 734.578 414.608C734.89 414.469 735.133 414.275 735.309 414.026C735.485 413.774 735.572 413.484 735.572 413.156C735.572 412.815 735.485 412.515 735.309 412.256C735.137 411.995 734.883 411.789 734.548 411.64C734.217 411.491 733.816 411.416 733.345 411.416H732.485V410.163H733.345C733.723 410.163 734.054 410.095 734.339 409.96C734.628 409.824 734.853 409.635 735.016 409.393C735.178 409.147 735.259 408.861 735.259 408.533C735.259 408.218 735.188 407.944 735.045 407.712C734.906 407.477 734.707 407.293 734.449 407.161C734.194 407.028 733.892 406.962 733.544 406.962C733.213 406.962 732.903 407.023 732.614 407.146C732.329 407.265 732.097 407.437 731.918 407.663C731.739 407.885 731.643 408.152 731.63 408.463H730.143C730.16 407.913 730.322 407.429 730.631 407.011C730.942 406.594 731.353 406.267 731.864 406.032C732.374 405.797 732.941 405.679 733.564 405.679C734.217 405.679 734.78 405.807 735.254 406.062C735.732 406.314 736.099 406.65 736.358 407.071C736.62 407.492 736.749 407.953 736.746 408.453C736.749 409.023 736.59 409.507 736.268 409.905C735.95 410.303 735.526 410.569 734.996 410.705V410.785C735.672 410.888 736.196 411.156 736.567 411.59C736.941 412.024 737.127 412.563 737.124 413.206C737.127 413.766 736.971 414.268 736.656 414.712C736.345 415.156 735.919 415.506 735.379 415.761C734.838 416.013 734.22 416.139 733.524 416.139Z" fill="#818197"/>
</svg>
