<svg width="48" height="1284" viewBox="0 0 48 1284" fill="none" xmlns="http://www.w3.org/2000/svg">
<path d="M44.1506 61.2727V70H42.8295V62.5938H42.7784L40.6903 63.9574V62.696L42.8679 61.2727H44.1506Z" fill="#B6B6BF"/>
<path d="M40.8395 468V467.045L43.7926 463.986C44.108 463.653 44.3679 463.362 44.5724 463.112C44.7798 462.859 44.9347 462.619 45.0369 462.392C45.1392 462.165 45.1903 461.923 45.1903 461.668C45.1903 461.378 45.1222 461.128 44.9858 460.918C44.8494 460.705 44.6634 460.541 44.4276 460.428C44.1918 460.311 43.9261 460.253 43.6307 460.253C43.3182 460.253 43.0455 460.317 42.8125 460.445C42.5795 460.572 42.4006 460.753 42.2756 460.986C42.1506 461.219 42.0881 461.491 42.0881 461.804H40.831C40.831 461.273 40.9531 460.808 41.1974 460.411C41.4418 460.013 41.777 459.705 42.2031 459.486C42.6293 459.264 43.1136 459.153 43.6562 459.153C44.2045 459.153 44.6875 459.263 45.1051 459.482C45.5256 459.697 45.8537 459.993 46.0895 460.368C46.3253 460.74 46.4432 461.161 46.4432 461.629C46.4432 461.953 46.3821 462.27 46.2599 462.58C46.1406 462.889 45.9318 463.234 45.6335 463.615C45.3352 463.993 44.9205 464.452 44.3892 464.991L42.6548 466.807V466.871H46.5838V468H40.8395Z" fill="#B6B6BF"/>
<path d="M43.8778 886.119C43.2926 886.119 42.7699 886.018 42.3097 885.817C41.8523 885.615 41.4901 885.335 41.223 884.977C40.9588 884.616 40.8168 884.199 40.7969 883.724H42.1349C42.152 883.983 42.2386 884.207 42.3949 884.398C42.554 884.585 42.7614 884.73 43.017 884.832C43.2727 884.935 43.5568 884.986 43.8693 884.986C44.2131 884.986 44.517 884.926 44.7812 884.807C45.0483 884.687 45.2571 884.521 45.4077 884.308C45.5582 884.092 45.6335 883.844 45.6335 883.562C45.6335 883.27 45.5582 883.013 45.4077 882.791C45.2599 882.567 45.0426 882.391 44.7557 882.263C44.4716 882.135 44.1278 882.071 43.7244 882.071H42.9872V880.997H43.7244C44.0483 880.997 44.3324 880.939 44.5767 880.822C44.8239 880.706 45.017 880.544 45.1562 880.337C45.2955 880.126 45.3651 879.881 45.3651 879.599C45.3651 879.33 45.304 879.095 45.1818 878.896C45.0625 878.695 44.892 878.537 44.6705 878.423C44.4517 878.31 44.1932 878.253 43.8949 878.253C43.6108 878.253 43.3452 878.305 43.098 878.411C42.8537 878.513 42.6548 878.661 42.5014 878.854C42.348 879.044 42.2656 879.273 42.2543 879.54H40.9801C40.9943 879.068 41.1335 878.653 41.3977 878.295C41.6648 877.937 42.017 877.658 42.4545 877.456C42.892 877.254 43.3778 877.153 43.9119 877.153C44.4716 877.153 44.9545 877.263 45.3608 877.482C45.7699 877.697 46.0852 877.986 46.3068 878.347C46.5313 878.707 46.642 879.102 46.6392 879.531C46.642 880.02 46.5057 880.435 46.2301 880.776C45.9574 881.116 45.5938 881.345 45.1392 881.462V881.53C45.7188 881.618 46.1676 881.848 46.4858 882.22C46.8068 882.592 46.9659 883.054 46.9631 883.605C46.9659 884.085 46.8324 884.516 46.5625 884.896C46.2955 885.277 45.9304 885.577 45.4673 885.795C45.0043 886.011 44.4744 886.119 43.8778 886.119Z" fill="#B6B6BF"/>
<path d="M40.6562 1282.3V1281.23L44.4276 1275.27H45.267V1276.84H44.7344L42.0369 1281.11V1281.18H47.206V1282.3H40.6562ZM44.794 1284V1281.97L44.8026 1281.49V1275.27H46.0511V1284H44.794Z" fill="#B6B6BF"/>
<path opacity="0.3" d="M1.42115 0.000497354L1.37595 66.0005M29 1279L6.00131 1279C3.23963 1279 1.00094 1276.76 1.00129 1274L1.05071 881M1.37595 66.0005L29 66.0005M1.37595 66.0005L1.10309 464.5M1.10309 464.5L29 464.5M1.10309 464.5L1.05071 881M1.05071 881L29 881" stroke="#0A0A29" stroke-width="0.8" stroke-dasharray="6 6"/>
</svg>
