<svg width="48" height="948" viewBox="0 0 48 948" fill="none" xmlns="http://www.w3.org/2000/svg">
<path d="M40.8395 338V337.045L43.7926 333.986C44.108 333.653 44.3679 333.362 44.5724 333.112C44.7798 332.859 44.9347 332.619 45.0369 332.392C45.1392 332.165 45.1903 331.923 45.1903 331.668C45.1903 331.378 45.1222 331.128 44.9858 330.918C44.8494 330.705 44.6634 330.541 44.4276 330.428C44.1918 330.311 43.9261 330.253 43.6307 330.253C43.3182 330.253 43.0455 330.317 42.8125 330.445C42.5795 330.572 42.4006 330.753 42.2756 330.986C42.1506 331.219 42.0881 331.491 42.0881 331.804H40.831C40.831 331.273 40.9531 330.808 41.1974 330.411C41.4418 330.013 41.777 329.705 42.2031 329.486C42.6293 329.264 43.1136 329.153 43.6562 329.153C44.2045 329.153 44.6875 329.263 45.1051 329.482C45.5256 329.697 45.8537 329.993 46.0895 330.368C46.3253 330.74 46.4432 331.161 46.4432 331.629C46.4432 331.953 46.3821 332.27 46.2599 332.58C46.1406 332.889 45.9318 333.234 45.6335 333.615C45.3352 333.993 44.9205 334.452 44.3892 334.991L42.6548 336.807V336.871H46.5838V338H40.8395Z" fill="#B6B6BF"/>
<path d="M43.8778 643.119C43.2926 643.119 42.7699 643.018 42.3097 642.817C41.8523 642.615 41.4901 642.335 41.223 641.977C40.9588 641.616 40.8168 641.199 40.7969 640.724H42.1349C42.152 640.983 42.2386 641.207 42.3949 641.398C42.554 641.585 42.7614 641.73 43.017 641.832C43.2727 641.935 43.5568 641.986 43.8693 641.986C44.2131 641.986 44.517 641.926 44.7812 641.807C45.0483 641.687 45.2571 641.521 45.4077 641.308C45.5582 641.092 45.6335 640.844 45.6335 640.562C45.6335 640.27 45.5582 640.013 45.4077 639.791C45.2599 639.567 45.0426 639.391 44.7557 639.263C44.4716 639.135 44.1278 639.071 43.7244 639.071H42.9872V637.997H43.7244C44.0483 637.997 44.3324 637.939 44.5767 637.822C44.8239 637.706 45.017 637.544 45.1562 637.337C45.2955 637.126 45.3651 636.881 45.3651 636.599C45.3651 636.33 45.304 636.095 45.1818 635.896C45.0625 635.695 44.892 635.537 44.6705 635.423C44.4517 635.31 44.1932 635.253 43.8949 635.253C43.6108 635.253 43.3452 635.305 43.098 635.411C42.8537 635.513 42.6548 635.661 42.5014 635.854C42.348 636.044 42.2656 636.273 42.2543 636.54H40.9801C40.9943 636.068 41.1335 635.653 41.3977 635.295C41.6648 634.937 42.017 634.658 42.4545 634.456C42.892 634.254 43.3778 634.153 43.9119 634.153C44.4716 634.153 44.9545 634.263 45.3608 634.482C45.7699 634.697 46.0852 634.986 46.3068 635.347C46.5313 635.707 46.642 636.102 46.6392 636.531C46.642 637.02 46.5057 637.435 46.2301 637.776C45.9574 638.116 45.5938 638.345 45.1392 638.462V638.53C45.7188 638.618 46.1676 638.848 46.4858 639.22C46.8068 639.592 46.9659 640.054 46.9631 640.605C46.9659 641.085 46.8324 641.516 46.5625 641.896C46.2955 642.277 45.9304 642.577 45.4673 642.795C45.0043 643.011 44.4744 643.119 43.8778 643.119Z" fill="#B6B6BF"/>
<path d="M40.6562 946.295V945.23L44.4276 939.273H45.267V940.841H44.7344L42.0369 945.111V945.179H47.206V946.295H40.6562ZM44.794 948V945.972L44.8026 945.486V939.273H46.0511V948H44.794Z" fill="#B6B6BF"/>
<path opacity="0.3" d="M1.10241 -0.000116004L1.37573 30.0007M28.9997 944.5L6.00117 944.5C3.23941 944.5 1.00069 942.261 1.00115 939.499L1.05048 641M1.37573 30.0007L28.9998 30.0007M1.37573 30.0007L1.10285 334.5M1.10285 334.5L28.9998 334.5M1.10285 334.5L1.05048 641M1.05048 641L28.9998 641" stroke="#0A0A29" stroke-width="0.8" stroke-dasharray="6 6"/>
<path d="M44.1506 25.2727V34H42.8295V26.5938H42.7784L40.6903 27.9574V26.696L42.8679 25.2727H44.1506Z" fill="#B6B6BF"/>
</svg>
