<svg width="1238" height="614" viewBox="0 0 1238 614" fill="none" xmlns="http://www.w3.org/2000/svg">
<path opacity="0.3" d="M210.842 39.8182V50H209.301V41.3594H209.241L206.805 42.9503V41.4787L209.346 39.8182H210.842Z" fill="#818197"/>
<path opacity="0.3" d="M727.979 161V159.886L731.425 156.317C731.793 155.929 732.096 155.589 732.335 155.298C732.576 155.003 732.757 154.723 732.876 154.457C732.996 154.192 733.055 153.91 733.055 153.612C733.055 153.274 732.976 152.982 732.817 152.737C732.658 152.489 732.441 152.298 732.165 152.165C731.89 152.03 731.58 151.962 731.236 151.962C730.871 151.962 730.553 152.036 730.281 152.185C730.009 152.335 729.801 152.545 729.655 152.817C729.509 153.089 729.436 153.407 729.436 153.771H727.969C727.969 153.151 728.112 152.61 728.397 152.146C728.682 151.682 729.073 151.322 729.57 151.067C730.067 150.808 730.633 150.679 731.266 150.679C731.905 150.679 732.469 150.807 732.956 151.062C733.446 151.314 733.829 151.658 734.104 152.096C734.379 152.53 734.517 153.021 734.517 153.567C734.517 153.945 734.446 154.315 734.303 154.676C734.164 155.037 733.92 155.44 733.572 155.884C733.224 156.325 732.741 156.86 732.121 157.49L730.097 159.608V159.683H734.681V161H727.979Z" fill="#818197"/>
<path opacity="0.3" d="M1.50255 -5.19844e-05L1.08666 452.021C1.08413 454.774 3.30792 457.011 6.06114 457.025L197.003 458" stroke="#0A0A29" stroke-dasharray="6 6"/>
<path opacity="0.3" d="M1 45.5L198 45.5" stroke="#0A0A29" stroke-dasharray="6 6"/>
<path opacity="0.3" d="M727.766 612.011V610.768L732.165 603.818H733.145V605.648H732.523L729.376 610.629V610.709H735.407V612.011H727.766ZM732.593 614V611.634L732.603 611.067V603.818H734.06V614H732.593Z" fill="#818197"/>
<path opacity="0.3" d="M744 155L1232.01 155.99C1234.77 155.995 1237 158.232 1237 160.99L1237 603.5C1237 606.261 1234.76 608.5 1232 608.5L744 608.5" stroke="#0A0A29" stroke-dasharray="6 6"/>
<path opacity="0.3" d="M221 46.0006L725.5 46C728.814 46 731.5 48.6863 731.5 52L731.5 142" stroke="#0A0A29" stroke-dasharray="6 6"/>
<path opacity="0.3" d="M210.524 463.139C209.841 463.139 209.232 463.022 208.695 462.786C208.161 462.551 207.738 462.224 207.427 461.807C207.119 461.386 206.953 460.899 206.93 460.345H208.491C208.511 460.647 208.612 460.909 208.794 461.131C208.98 461.349 209.222 461.518 209.52 461.638C209.818 461.757 210.15 461.817 210.514 461.817C210.915 461.817 211.27 461.747 211.578 461.608C211.89 461.469 212.133 461.275 212.309 461.026C212.485 460.774 212.572 460.484 212.572 460.156C212.572 459.815 212.485 459.515 212.309 459.256C212.137 458.995 211.883 458.789 211.548 458.64C211.217 458.491 210.816 458.416 210.345 458.416H209.485V457.163H210.345C210.723 457.163 211.054 457.095 211.339 456.96C211.628 456.824 211.853 456.635 212.016 456.393C212.178 456.147 212.259 455.861 212.259 455.533C212.259 455.218 212.188 454.944 212.045 454.712C211.906 454.477 211.707 454.293 211.449 454.161C211.194 454.028 210.892 453.962 210.544 453.962C210.213 453.962 209.903 454.023 209.614 454.146C209.329 454.265 209.097 454.437 208.918 454.663C208.739 454.885 208.643 455.152 208.63 455.463H207.143C207.16 454.913 207.322 454.429 207.631 454.011C207.942 453.594 208.353 453.267 208.864 453.032C209.374 452.797 209.941 452.679 210.564 452.679C211.217 452.679 211.78 452.807 212.254 453.062C212.732 453.314 213.099 453.65 213.358 454.071C213.62 454.492 213.749 454.953 213.746 455.453C213.749 456.023 213.59 456.507 213.268 456.905C212.95 457.303 212.526 457.569 211.996 457.705V457.785C212.672 457.888 213.196 458.156 213.567 458.59C213.941 459.024 214.127 459.563 214.124 460.206C214.127 460.766 213.971 461.268 213.656 461.712C213.345 462.156 212.919 462.506 212.379 462.761C211.838 463.013 211.22 463.139 210.524 463.139Z" fill="#818197"/>
</svg>
