<svg width="144" height="48" viewBox="0 0 144 48" fill="none" xmlns="http://www.w3.org/2000/svg">
<g clip-path="url(#clip0_520_8095)">
<g clip-path="url(#clip0_1500_6449)">
<path fill-rule="evenodd" clip-rule="evenodd" d="M5.84178 21.4918L5.83957 21.4911C4.43502 22.578 2.54773 23.8138 1.36538 24.5881L1.35933 24.592L1.3554 24.5946C1.17781 24.7109 1.01686 24.8163 0.875977 24.9091C6.34498 28.4161 9.79651 31.354 12.738 34.1199C15.5149 36.731 17.8358 39.2793 20.9005 43.2258C21.6852 40.1729 22.8955 37.334 24.4725 34.7556C22.0214 30.9167 18.8146 27.6999 15.015 25.3058L15.007 25.3108L14.8284 25.2001C12.1193 23.5204 9.11081 22.2565 5.85884 21.4784L5.84178 21.4918ZM21.44 43.9209L21.4395 43.9223C22.5282 45.3279 23.7681 47.2212 24.5442 48.4063L24.548 48.4122C24.6654 48.5914 24.7716 48.7536 24.8651 48.8956C28.3722 43.4266 31.3101 39.9752 34.076 37.0338C36.6847 34.2595 39.2306 31.9404 43.1707 28.8802C40.1218 28.096 37.2862 26.8859 34.7106 25.3097C30.8746 27.7589 27.6601 30.9596 25.2667 34.7527L25.2685 34.7556L25.1578 34.9342C23.4778 37.6439 22.2047 40.6524 21.4265 43.9037L21.44 43.9209ZM48.3541 25.2373C47.1722 26.0112 45.2857 27.2465 43.8813 28.3331L43.8772 28.3318L43.86 28.3453C40.6081 27.5673 37.5996 26.3033 34.8904 24.6237L34.7118 24.5129L34.7078 24.5155C30.9098 22.1178 27.7054 18.8964 25.254 15.0556C26.8317 12.4784 28.0349 9.64913 28.8183 6.59898C31.8832 10.5459 34.2043 13.0943 36.9814 15.7056C39.9228 18.4715 43.3744 21.4094 48.8433 24.9163C48.7014 25.0098 48.5392 25.1161 48.36 25.2334L48.3541 25.2373Z" fill="white"/>
<path d="M6.54688 20.9445C9.59655 21.7285 12.4341 22.9371 15.012 24.5116C18.8776 22.0427 22.2417 18.6016 24.6403 14.7691C26.2863 12.0903 27.5268 9.12288 28.293 5.92148C27.2041 4.5158 25.6302 2.11354 24.8539 0.928223C21.3469 6.39714 18.409 9.84841 15.6431 12.7898C13.034 15.5644 10.4878 17.8837 6.54688 20.9445Z"/>
</g>
<g clip-path="url(#clip2_520_8095)">
<path d="M68.6386 19.086L62.7326 33.7084H57.843L65.8092 14.5045H71.468L79.4617 33.7084H74.4897L68.6386 19.086ZM73.4458 30.5534H63.7765L64.7929 26.9321H72.3745L73.4458 30.5534Z" fill="white"/>
<path d="M81.9254 33.7084V14.5045H91.9243C93.3345 14.5045 94.5431 14.6965 95.5504 15.0806C96.5759 15.4647 97.3542 16.0225 97.8853 16.7541C98.4347 17.4674 98.7094 18.3361 98.7094 19.3603C98.7094 20.1102 98.5537 20.8052 98.2424 21.4453C97.9494 22.0854 97.519 22.625 96.9513 23.0639C96.3836 23.5029 95.7243 23.8138 94.9735 23.9967L94.8361 23.5577C96.2646 23.7772 97.4 24.335 98.2424 25.2312C99.0848 26.1091 99.506 27.1973 99.506 28.4959C99.506 29.575 99.213 30.5077 98.627 31.2942C98.0409 32.0623 97.1894 32.6567 96.0723 33.0774C94.9735 33.498 93.6733 33.7084 92.1716 33.7084H81.9254ZM86.2656 25.725V22.3232H91.0178C91.7137 22.3232 92.2815 22.25 92.721 22.1037C93.1788 21.9391 93.5176 21.7105 93.7373 21.4179C93.9571 21.107 94.067 20.7229 94.067 20.2656C94.067 19.5524 93.8198 19.0403 93.3253 18.7293C92.8308 18.4001 92.0617 18.2355 91.0178 18.2355H86.5678V29.9773H91.5398C92.2906 29.9773 92.9041 29.9042 93.3802 29.7579C93.8564 29.5932 94.2135 29.3555 94.4516 29.0446C94.6896 28.7336 94.8087 28.3404 94.8087 27.8649C94.8087 27.1333 94.534 26.5938 93.9846 26.2463C93.4352 25.8988 92.5928 25.725 91.4574 25.725H86.2656Z" fill="white"/>
<path d="M102.799 33.7084V14.5045H111.342C113.485 14.5045 115.362 14.8977 116.974 15.6842C118.603 16.4706 119.849 17.5863 120.709 19.0311C121.588 20.476 122.028 22.1586 122.028 24.079C122.028 26.0177 121.588 27.7186 120.709 29.1817C119.849 30.6266 118.603 31.7423 116.974 32.5287C115.362 33.3151 113.485 33.7084 111.342 33.7084H102.799ZM111.122 29.6755C112.368 29.6755 113.439 29.4561 114.336 29.0171C115.234 28.5599 115.921 27.9198 116.397 27.0967C116.891 26.2554 117.138 25.2587 117.138 24.1064C117.138 22.9359 116.891 21.9391 116.397 21.1161C115.921 20.2748 115.225 19.6347 114.309 19.1957C113.412 18.7568 112.349 18.5373 111.122 18.5373H107.524V29.6755H111.122Z" fill="white"/>
<path d="M137.618 33.6993L129.67 24.4356V23.5577L137.389 14.4771H143.158L134.999 23.9418L143.373 33.6993H137.618ZM125.44 33.7084L125.412 14.5045H130.164V33.7084H125.44Z" fill="white"/>
</g>
</g>
<defs>
<clipPath id="clip0_520_8095">
<rect width="143.373" height="47.9674" fill="white" transform="translate(0 0.0163574)"/>
</clipPath>
<clipPath id="clip0_1500_6449">
<rect width="47.9674" height="47.9674" fill="white" transform="translate(0.875977 0.928223)"/>
</clipPath>
<clipPath id="clip2_520_8095">
<rect width="85.5301" height="19.2222" fill="white" transform="translate(57.843 14.4771)"/>
</clipPath>
</defs>
</svg>
