<svg width="184" height="43" viewBox="0 0 184 43" fill="none" xmlns="http://www.w3.org/2000/svg">
<g opacity="0.3" clip-path="url(#clip0_1641_73730)">
<path d="M90.3748 22.2017C90.3748 19.7422 88.8479 17.9682 86.5307 17.9682C84.2126 17.9682 82.6867 19.744 82.6867 22.2017C82.6867 24.6593 84.2107 26.4369 86.5307 26.4369C88.8498 26.4369 90.3748 24.6611 90.3748 22.2017ZM78.4756 22.2017C78.4756 17.8119 81.5882 14.0774 85.6444 14.0774C87.7503 14.0774 89.3376 15.166 90.0387 16.1622V14.4184H94.2149V29.9796H90.0473V28.2358C89.3511 29.232 87.7589 30.3223 85.653 30.3223C81.5978 30.3223 78.4843 26.5931 78.4843 22.1963" fill="#322B3D"/>
<path d="M108.624 14.4182L104.597 24.3804L100.571 14.4182H95.9644L102.706 29.9847H106.52L113.293 14.4182H108.624Z" fill="#322B3D"/>
<path d="M117.547 20.3906H124.716C124.229 18.3058 122.61 17.528 121.208 17.528C119.256 17.528 117.943 18.6485 117.554 20.3906H117.547ZM113.314 22.1663C113.314 17.528 116.7 14.0706 121.337 14.0706C125.792 14.0706 129.544 17.3398 129.3 23.1928H117.394C117.547 25.0307 118.888 26.6182 121.513 26.6182C122.978 26.6182 124.258 25.9949 124.748 24.9046H129.111C128.224 28.0548 125.174 30.3349 121.301 30.3349C116.632 30.3349 113.306 26.9112 113.306 22.1787" fill="#322B3D"/>
<path d="M147.293 14.4182H143.114V29.9847H147.293V14.4182Z" fill="#322B3D"/>
<path d="M149.495 22.2017C149.495 17.6876 152.881 14.0774 157.518 14.0774C161.728 14.0774 164.505 16.7855 165.328 20.3655H160.995C160.415 18.9644 159.317 17.9363 157.515 17.9363C155.317 17.9363 153.701 19.5877 153.701 22.1981C153.701 24.8085 155.317 26.4599 157.515 26.4599C159.314 26.4599 160.412 25.4336 160.995 24.0325H165.328C164.505 27.6125 161.728 30.3205 157.518 30.3205C152.881 30.3205 149.495 26.7086 149.495 22.1945" fill="#322B3D"/>
<path d="M176.46 14.4182L171.518 20.1469V14.4182H167.338V29.9847H171.518V22.8248L177.743 29.9847H182.898L175.454 21.4237L181.493 14.4182H176.46Z" fill="#322B3D"/>
<path d="M72.0947 21.6725C72.0947 19.3373 71.3987 17.9682 69.7143 17.9682C67.915 17.9682 66.7561 19.3071 66.6638 22.1715V29.9849H62.4877V21.6725C62.4877 19.3373 61.7917 17.9682 60.1089 17.9682C58.2784 17.9682 57.0585 19.3995 57.0585 22.3881V29.9796H52.8823V14.4184H57.0585V16.1942C57.9738 14.8358 59.4999 14.0384 61.1147 14.0775C63.3125 14.0775 64.8977 15.166 65.8443 16.94C66.7857 15.0719 68.8599 14.0775 70.5617 14.0775C74.2159 14.0775 76.2675 16.7234 76.2675 20.9568V29.9796H72.0913L72.0947 21.6725Z" fill="#322B3D"/>
<path d="M131.415 14.4182H135.591V17.0961C136.114 15.5707 137.666 14.4182 139.375 14.4182H140.777V18.9323C140.17 18.7085 139.531 18.5931 138.885 18.5913C136.903 18.5913 135.591 20.1469 135.591 22.7307V29.9794H131.415V14.4182Z" fill="#322B3D"/>
<path d="M21.0716 0.268067C9.38163 0.266541 -0.0956736 9.78327 -0.0971678 21.522C-0.098662 33.2607 9.37856 42.7775 21.0686 42.779C32.7586 42.7805 42.2359 33.2638 42.2374 21.525V21.522C42.2359 9.78477 32.7602 0.2696 21.0716 0.268067Z" fill="#322B3D"/>
<path d="M20.962 24.8319V20.0689L7.98926 26.7517H32.0714V13.3862L20.962 24.8319Z" fill="white"/>
</g>
<defs>
<clipPath id="clip0_1641_73730">
<rect width="184" height="43" fill="white" transform="translate(-0.826172)"/>
</clipPath>
</defs>
</svg>
