<svg width="209" height="34" viewBox="0 0 209 34" fill="none" xmlns="http://www.w3.org/2000/svg">
<g opacity="0.4" clip-path="url(#clip0_1641_73723)">
<path fill-rule="evenodd" clip-rule="evenodd" d="M33.2755 0.403809H30.3375V29.5373L33.2755 32.4753V0.403809ZM27.3995 0.403809H24.46V23.6613L27.398 26.5993L27.3995 0.403809ZM21.5235 0.403809H18.5854V17.7853L21.5235 20.7233V0.403809Z" fill="#322B3D"/>
<path fill-rule="evenodd" clip-rule="evenodd" d="M12.7154 12.0325V32.4753H15.6549V14.9705L12.7154 12.0325ZM6.84237 6.15653V32.4753H9.78038V9.09454L6.84237 6.15653ZM1.08814 0.403809H0.964844V32.4753H3.90285V3.21852L1.08814 0.403809Z" fill="#322B3D"/>
<path d="M54.5239 12.6884H59.2602V15.8625H59.3429C59.7865 14.8731 60.5473 14.0071 61.6284 13.2643C62.735 12.4945 64.0371 12.1095 65.5332 12.1095C66.8338 12.1095 67.9419 12.3441 68.8561 12.8117C69.748 13.2125 70.5315 13.8202 71.1416 14.5844C71.749 15.3257 72.1926 16.1782 72.4692 17.1405C72.7459 18.1028 72.8842 19.0922 72.8842 20.1101V32.4801H67.9013V21.5115C67.9013 20.9341 67.8607 20.3296 67.7765 19.6966C67.7062 19.104 67.523 18.5303 67.2367 18.0066C66.964 17.4889 66.564 17.0491 66.0745 16.7285C65.6038 16.3978 64.9663 16.2324 64.1634 16.2324C63.3605 16.2324 62.6673 16.3978 62.087 16.7285C61.5051 17.0308 61.0194 17.4292 60.633 17.9239C60.2721 18.4201 59.9955 18.996 59.8015 19.656C59.6075 20.2875 59.5113 20.9341 59.5113 21.5942V32.4801H54.5254V12.6869L54.5239 12.6884ZM77.9543 22.5008C77.9543 20.9341 78.231 19.5192 78.7843 18.2532C79.3662 16.9616 80.142 15.8625 81.1103 14.9558C82.1075 14.0313 83.2798 13.3161 84.5581 12.8523C85.9144 12.3525 87.3497 12.1009 88.7952 12.1095C90.2912 12.1095 91.7031 12.3576 93.0323 12.8523C94.3614 13.3485 95.5117 14.0477 96.48 14.9558C97.4638 15.8832 98.2423 17.0065 98.7654 18.2532C99.3458 19.5177 99.6375 20.9341 99.6375 22.5008C99.6375 24.0676 99.3458 25.4975 98.7654 26.789C98.2106 28.0821 97.4498 29.1948 96.48 30.13C95.4776 31.0572 94.3074 31.7844 93.0323 32.2726C91.6821 32.7994 90.2444 33.0657 88.7952 33.0575C87.346 33.0661 85.9083 32.8003 84.5581 32.2741C83.2826 31.7851 82.1124 31.0568 81.1103 30.1285C80.128 29.1754 79.3383 28.0421 78.7843 26.7905C78.231 25.4975 77.9543 24.0691 77.9543 22.5008ZM83.0214 22.5008C83.0214 23.2706 83.1327 24.0405 83.3537 24.8103C83.6033 25.5802 83.9626 26.2673 84.4348 26.8717C84.9054 27.4762 85.5008 27.9709 86.221 28.3558C86.9397 28.7407 87.7998 28.9332 88.7952 28.9332C89.792 28.9332 90.6506 28.7407 91.3708 28.3558C92.0645 27.993 92.6733 27.4872 93.1571 26.8717C93.6277 26.2673 93.975 25.5787 94.1945 24.8103C94.4406 24.0651 94.5675 23.2856 94.5704 22.5008C94.5704 21.731 94.4456 20.9762 94.1945 20.2334C93.9845 19.486 93.6322 18.786 93.1571 18.172C92.6791 17.5613 92.0682 17.0676 91.3708 16.7285C90.6506 16.3436 89.792 16.1512 88.7952 16.1512C87.7983 16.1512 86.9397 16.3436 86.221 16.7285C85.5236 17.0676 84.9127 17.5613 84.4348 18.172C83.9626 18.7764 83.6033 19.4636 83.3537 20.2319C83.1333 20.9685 83.0219 21.7334 83.0229 22.5023L83.0214 22.5008ZM102.019 16.6459V12.6869H105.508V6.95524H110.409V12.6884H115.395V16.6474H110.411V25.8433C110.411 26.7229 110.563 27.4506 110.868 28.028C111.199 28.6054 111.92 28.8941 113.027 28.8941C113.359 28.8941 113.719 28.867 114.108 28.8114C114.494 28.7287 114.842 28.6189 115.146 28.4806L115.311 32.3568C114.869 32.5222 114.343 32.6455 113.734 32.7282C113.125 32.838 112.543 32.8936 111.989 32.8936C110.66 32.8936 109.579 32.7147 108.749 32.3568C107.918 31.9719 107.253 31.4637 106.755 30.8322C106.28 30.1625 105.942 29.4059 105.759 28.6054C105.588 27.7083 105.505 26.797 105.509 25.8839V16.6474H102.021L102.019 16.6459ZM119.501 12.6884H124.486V32.4801H119.501V12.6869V12.6884ZM118.795 5.96738C118.795 5.17048 119.086 4.48184 119.667 3.90447C120.277 3.30002 121.038 2.9978 121.952 2.9978C122.866 2.9978 123.627 3.28649 124.238 3.86387C124.874 4.41268 125.192 5.11485 125.192 5.96588C125.192 6.81841 124.874 7.53262 124.236 8.10999C123.627 8.66031 122.866 8.93546 121.951 8.93546C121.038 8.93546 120.276 8.64677 119.667 8.0694C119.086 7.46496 118.795 6.76429 118.795 5.96588V5.96738ZM129.784 22.5008C129.784 20.9341 130.063 19.5192 130.616 18.2532C131.163 17.0099 131.954 15.8887 132.942 14.9558C133.939 14.0313 135.111 13.3161 136.39 12.8523C137.746 12.3525 139.181 12.1009 140.627 12.1095C142.123 12.1095 143.535 12.3576 144.864 12.8523C146.193 13.3485 147.342 14.0477 148.312 14.9558C149.295 15.8833 150.074 17.0065 150.597 18.2532C151.177 19.5177 151.469 20.9341 151.469 22.5008C151.469 24.0676 151.177 25.4975 150.597 26.789C150.042 28.0821 149.281 29.1948 148.312 30.13C147.309 31.0572 146.139 31.7845 144.864 32.2726C143.514 32.7994 142.076 33.0657 140.627 33.0575C139.178 33.0662 137.74 32.8004 136.39 32.2741C135.114 31.7851 133.944 31.0568 132.942 30.1285C131.96 29.1754 131.17 28.0422 130.616 26.7905C130.063 25.4975 129.784 24.0691 129.784 22.5008ZM134.853 22.5008C134.853 23.2706 134.964 24.0405 135.185 24.8103C135.435 25.5802 135.794 26.2673 136.265 26.8717C136.735 27.4762 137.332 27.9709 138.051 28.3558C138.773 28.7407 139.63 28.9332 140.627 28.9332C141.624 28.9332 142.482 28.7407 143.202 28.3558C143.896 27.993 144.505 27.4872 144.989 26.8717C145.459 26.2673 145.805 25.5787 146.026 24.8103C146.272 24.0651 146.399 23.2856 146.402 22.5008C146.402 21.731 146.276 20.9762 146.026 20.2334C145.816 19.486 145.464 18.786 144.989 18.172C144.511 17.5613 143.9 17.0676 143.202 16.7285C142.482 16.3436 141.624 16.1512 140.627 16.1512C139.63 16.1512 138.771 16.3436 138.051 16.7285C137.354 17.0676 136.743 17.5613 136.265 18.172C135.794 18.7764 135.435 19.4636 135.185 20.2319C134.964 20.9685 134.853 21.7319 134.853 22.5008ZM156.717 12.6884H161.453V15.8625H161.536C161.979 14.8731 162.74 14.0071 163.82 13.2643C164.928 12.4945 166.23 12.1095 167.724 12.1095C169.027 12.1095 170.135 12.3441 171.047 12.8117C171.939 13.2123 172.723 13.8201 173.333 14.5844C173.942 15.3257 174.385 16.1782 174.662 17.1405C174.939 18.106 175.079 19.1057 175.077 20.1101V32.4801H170.093V21.5115C170.093 20.9341 170.05 20.3296 169.968 19.6966C169.897 19.104 169.714 18.5303 169.428 18.0066C169.155 17.4885 168.755 17.0486 168.264 16.7285C167.794 16.3978 167.158 16.2324 166.355 16.2324C165.552 16.2324 164.859 16.3978 164.277 16.7285C163.712 17.0178 163.216 17.4255 162.823 17.9239C162.449 18.4493 162.168 19.0353 161.993 19.656C161.799 20.2875 161.701 20.9341 161.701 21.5942V32.4801H156.717V12.6869V12.6884Z" fill="#322B3D"/>
<path d="M193.691 29.9639H193.567C193.067 30.8435 192.264 31.5728 191.158 32.1486C190.05 32.699 188.79 32.9741 187.378 32.9741C186.522 32.9672 185.671 32.8561 184.843 32.6433C183.989 32.4531 183.175 32.1185 182.434 31.654C181.705 31.1497 181.083 30.5051 180.606 29.7579C180.135 28.961 179.9 27.9837 179.9 26.8305C179.9 25.3449 180.315 24.1631 181.147 23.2835C182.005 22.4039 183.099 21.7303 184.428 21.2627C185.757 20.7966 187.224 20.4943 188.83 20.356C190.418 20.1937 192.013 20.1114 193.609 20.1094V19.6132C193.609 18.3773 193.152 17.4706 192.237 16.8918C191.352 16.2873 190.284 15.9851 189.039 15.9851C187.987 15.9851 186.976 16.2046 186.006 16.6452C185.037 17.0857 184.234 17.621 183.598 18.254L181.022 15.2438C182.15 14.2026 183.479 13.4025 184.927 12.8922C186.381 12.3775 187.912 12.1131 189.454 12.1104C191.227 12.1104 192.681 12.3569 193.816 12.8516C194.978 13.3478 195.893 13.9928 196.557 14.7897C197.222 15.5866 197.679 16.4798 197.928 17.4706C198.205 18.46 198.343 19.4494 198.343 20.4387V32.4794H193.691V29.9639ZM193.609 23.4489H192.487C191.684 23.4489 190.839 23.4895 189.952 23.5722C189.119 23.6175 188.295 23.7702 187.501 24.0263C186.754 24.2458 186.131 24.5751 185.632 25.0156C185.134 25.4276 184.885 26.005 184.885 26.7478C184.885 27.2139 184.981 27.6138 185.175 27.9431C185.398 28.2453 185.674 28.4934 186.006 28.6859C186.339 28.8783 186.713 29.0167 187.128 29.0979C187.543 29.1806 187.958 29.2212 188.375 29.2212C190.092 29.2212 191.392 28.7671 192.279 27.8604C193.165 26.9538 193.609 25.7163 193.609 24.1496V23.4489Z" fill="#322B3D"/>
<path d="M204.646 1.30615H209.63V32.48H204.646V1.30615Z" fill="#322B3D"/>
</g>
<defs>
<clipPath id="clip0_1641_73723">
<rect width="208.999" height="33.0789" fill="white" transform="translate(0.964844 0.403809)"/>
</clipPath>
</defs>
</svg>
