<svg width="149" height="55" viewBox="0 0 149 55" fill="none" xmlns="http://www.w3.org/2000/svg">
<g opacity="0.3" clip-path="url(#clip0_1641_73800)">
<path d="M64.1079 14.3361H69.7096V36.7428H75.3113V8.73438H69.7096C66.6287 8.73438 64.1079 11.2551 64.1079 14.3361Z" fill="black"/>
<path d="M80.9126 36.7428H86.5143V25.5394C86.5143 22.4585 83.9935 19.9377 80.9126 19.9377V36.7428Z" fill="black"/>
<path d="M92.1162 19.9377V36.7428H97.7179V25.5394H103.32V31.1411C103.32 34.2221 105.84 36.7428 108.921 36.7428V25.5394C108.921 22.4585 106.401 19.9377 103.32 19.9377H92.1162Z" fill="black"/>
<path d="M142.531 19.9378H136.93V14.3361C136.93 11.2551 134.409 8.73438 131.328 8.73438V31.1411H120.125V25.5395H125.726V19.9378H120.125C117.044 19.9378 114.523 22.4585 114.523 25.5395V31.1411C114.523 34.2221 117.044 36.7428 120.125 36.7428H136.93V25.5395H142.531V31.1411C142.531 34.2221 145.052 36.7428 148.133 36.7428V25.5395C148.133 22.4585 145.612 19.9378 142.531 19.9378Z" fill="black"/>
<path d="M80.9126 14.3361H86.5143C86.5143 11.2551 83.9935 8.73438 80.9126 8.73438V14.3361Z" fill="black"/>
<path fill-rule="evenodd" clip-rule="evenodd" d="M72.8464 42.3445V46.0136H72.3283L70.3117 43.4648V45.9996H69.7095V42.3445H70.2276L72.2442 44.8933V42.3445H72.8464ZM84.2319 46.0136H82.0612V42.3445H84.1758V42.9467H82.7054V43.8569H84.0218V44.4591H82.7054V45.4114H84.2319V46.0136ZM93.4606 42.9467H94.651V46.0136H95.2952V42.9467H96.4856V42.3445H93.4606V42.9467ZM110.182 42.3445H110.798L109.748 46.0136H109.145L108.263 43.3668L107.395 46.0136H106.793L105.7 42.3445H106.429L107.171 44.9633L107.983 42.3445H108.627L109.467 44.9633L110.182 42.3445ZM120.559 42.8906C120.209 43.2548 120.027 43.7029 120.027 44.2351C120.027 44.7952 120.209 45.2574 120.573 45.6075C120.937 45.9576 121.385 46.1256 121.945 46.1256C122.491 46.1256 122.954 45.9436 123.318 45.5935C123.682 45.2434 123.864 44.7812 123.864 44.2351C123.864 43.6749 123.682 43.2268 123.318 42.8626C122.954 42.5125 122.505 42.3445 121.945 42.3445C121.385 42.3445 120.923 42.5265 120.559 42.8906ZM121.063 45.1593C120.825 44.9213 120.713 44.6132 120.713 44.2351C120.713 43.8569 120.825 43.5488 121.063 43.3108C121.301 43.0727 121.595 42.9467 121.945 42.9467C122.295 42.9467 122.575 43.0727 122.814 43.3108C123.052 43.5488 123.164 43.8709 123.164 44.2351C123.164 44.5992 123.052 44.9073 122.828 45.1593C122.603 45.3974 122.309 45.5234 121.931 45.5234C121.581 45.5234 121.287 45.3974 121.063 45.1593ZM133.709 44.6552V46.0276H133.065V42.3585C133.247 42.3585 133.443 42.3585 133.653 42.3585C133.863 42.3585 134.045 42.3585 134.171 42.3585C135.053 42.3585 135.501 42.7366 135.501 43.4928C135.501 43.7729 135.431 43.997 135.291 44.179C135.151 44.3471 134.983 44.4731 134.801 44.5291L135.949 46.0276H135.165L134.157 44.6552H133.709ZM134.157 42.9467C134.143 42.9467 134.115 42.9467 134.073 42.9467C134.031 42.9467 133.975 42.9467 133.905 42.9467H133.709V44.039H134.129C134.339 44.039 134.507 43.983 134.633 43.8849C134.759 43.7869 134.829 43.6469 134.829 43.4648C134.829 43.1287 134.605 42.9467 134.157 42.9467ZM145.178 46.0136H145.822V44.123L147.321 46.0136H148.133L146.537 44.053L148.049 42.3445H147.279L145.836 44.081V42.3445H145.192V46.0136H145.178Z" fill="black" fill-opacity="0.5"/>
<path d="M33.3125 10.1488C30.8758 9.64467 28.215 9.78471 28.215 9.78471C28.215 9.78471 27.3467 13.8319 21.9131 14.8822C21.9691 14.8822 29.0833 17.319 33.3125 10.1488Z" fill="black" fill-opacity="0.3"/>
<path d="M35.525 46.8118C38.4659 44.5151 40.6786 41.3502 41.6869 37.7651C41.7289 37.625 42.149 37.401 42.4151 37.2189C42.8772 36.9388 43.3394 36.7148 43.4234 36.3506C43.6055 35.3003 43.7035 34.194 43.7035 33.0877C43.7035 32.6675 43.2834 32.2614 42.8772 31.8413C42.5551 31.5612 42.233 31.2391 42.233 31.015C41.7709 26.8278 39.8383 22.9206 36.7714 20.0777L36.4493 20.3998C39.4322 23.2007 41.3648 27.0098 41.7849 31.057C41.8269 31.4212 42.205 31.7853 42.5691 32.1634C42.8912 32.4435 43.2554 32.8496 43.2554 33.0316C43.2554 34.082 43.1573 35.1463 42.9753 36.1966C42.9333 36.3787 42.5131 36.5607 42.191 36.7428C41.7289 36.9668 41.3228 37.2049 41.2247 37.569C40.1184 41.4762 37.5976 44.8792 34.2366 47.0779C34.8388 45.7895 36.7154 41.6162 37.7237 39.5016L37.5416 32.6955L31.7019 27.0378L28.3969 27.5L24.7698 33.3817C24.7698 33.3817 26.4643 35.5384 24.0836 38.0732C21.7449 40.5519 19.8963 41.1121 19.8963 41.1121L18.2018 40.1878C18.7059 39.5436 19.7142 38.5773 20.4985 37.9331C21.8289 36.8268 23.1593 36.7428 23.1593 35.5384C23.2013 33.0596 20.5405 33.7459 20.5405 33.7459L19.5742 34.6701L19.1541 38.0732L17.1375 40.5939L16.9134 40.5519L13.6084 39.8237C13.6084 39.8237 15.625 38.7734 15.9471 37.569C16.2692 36.4207 15.3029 32.6115 15.2609 32.3734C15.3029 32.4155 16.2272 33.1997 16.6333 34.4881C17.3615 32.4715 18.3278 30.5389 18.6079 30.3568C18.888 30.1748 22.5991 28.2002 22.5991 28.2002L21.3527 31.4632L22.277 30.959L24.4757 25.5394C24.4757 25.5394 26.6323 24.4891 28.2428 24.4891C31.1417 24.447 35.413 20.904 33.4804 14.5601C34.0266 14.7841 43.5915 19.5736 45.244 28.9424C46.5043 36.1546 42.4151 42.9046 35.525 46.8118Z" fill="black" fill-opacity="0.3"/>
<path fill-rule="evenodd" clip-rule="evenodd" d="M41.5466 6.78785C41.5466 6.78785 43.8433 6.88588 46.2381 7.15196C40.8604 2.92268 35.7629 1.69031 31.6317 1.69031C25.9739 1.69031 22.1228 4.00101 21.8427 4.16906L23.6352 1.3262C23.6352 1.3262 16.4651 0.639992 13.9443 8.21628C13.3001 6.60579 12.6979 4.26709 12.6979 4.26709C12.6979 4.26709 8.97281 7.53007 10.7233 12.9497C6.45205 11.3812 0.332202 9.22459 0.108134 9.18257C-0.213963 9.14056 -0.311993 9.2806 -0.311993 9.2806C-0.311993 9.2806 -0.410022 9.42064 -0.129937 9.64471C0.374215 10.0648 10.0231 17.179 12.1378 18.5654C11.6756 20.2179 11.6756 21.0021 12.1378 21.7864C12.782 22.8367 12.824 23.3969 12.74 24.1811C12.6419 24.9653 11.8157 31.7154 11.6336 32.5416C11.5636 32.8777 11.1995 33.5499 10.8074 34.3062C10.2192 35.4125 9.56099 36.6729 9.61701 37.191C9.71504 38.0593 10.9054 41.7844 11.9557 42.2046C12.74 42.4846 14.6725 43.0728 15.9469 43.0728C16.4091 43.0728 16.8152 42.9748 16.9972 42.7927C17.7815 42.1065 18.0055 41.9665 18.5657 41.9665H18.7058C18.8178 41.9665 18.9298 41.9805 19.0559 41.9805C19.2099 41.9945 19.364 42.0085 19.532 42.0085C20.2602 42.0085 21.2265 41.8685 21.9267 41.2243C22.4029 40.7481 23.0471 40.1879 23.6492 39.6698C24.3214 39.0816 24.9516 38.5354 25.2457 38.1993C25.9319 37.3311 26.296 36.1267 26.114 34.9364C25.9739 33.83 26.5761 32.8637 27.2623 31.8974C28.1306 30.7491 29.7411 28.6765 29.7411 28.6765C32.906 31.0712 34.8946 34.6983 34.8946 38.7455C34.8946 45.9157 28.6488 51.6994 20.9324 51.6994C19.7421 51.6994 18.5937 51.5594 17.4454 51.2793C20.9884 52.5257 23.9713 52.9318 26.4081 52.9318C31.6036 52.9318 34.3625 51.0412 34.3625 51.0412C34.3625 51.0412 33.3962 52.2876 31.8417 53.702H31.8837C40.4823 52.5117 44.6556 45.4255 44.6556 45.4255C44.6556 45.4255 44.3335 47.7222 43.9274 49.2907C55.0747 40.9162 53.5343 30.497 53.3942 29.6288V29.6007C53.3942 29.5867 53.3942 29.5867 53.3942 29.5727C53.4502 29.6568 53.9124 30.2169 54.4025 30.8051C54.6966 31.1692 55.0047 31.5333 55.2288 31.8134C57.0213 12.9077 41.5466 6.78785 41.5466 6.78785ZM23.9433 37.023C23.8033 37.205 23.2991 37.6532 22.837 38.0733C22.697 38.1993 22.5569 38.3254 22.4309 38.4374C22.2348 38.6195 22.0388 38.7875 21.8427 38.9556C21.4786 39.2777 21.1145 39.5998 20.8204 39.9079C20.6383 40.0899 20.2742 40.1879 19.7141 40.1879H19.2099H18.9298H18.7478H18.3276C19.0138 39.2637 21.0445 37.149 21.7307 36.7009C22.5569 36.1547 22.977 35.5946 22.4589 34.6283C21.9547 33.662 20.6243 33.886 20.6243 33.886C20.6243 33.886 21.4086 33.5639 22.0948 33.5639C21.2265 33.3399 20.1202 33.5639 19.616 34.0681C19.2519 34.4042 19.1679 35.3145 19.0839 36.2247C19.0419 36.6729 18.9998 37.135 18.9298 37.5131C18.7198 38.5775 18.0756 39.1796 17.0813 40.0759C16.9692 40.1739 16.8432 40.286 16.7312 40.398C16.087 41.0002 15.6248 41.1822 15.2607 41.1822C14.4765 41.0422 13.5662 40.8181 12.922 40.5801C12.4599 39.9779 11.7737 38.0033 11.5916 37.177C11.6896 36.8409 11.9977 36.2528 12.2778 35.7486C12.3898 35.5525 12.4879 35.3565 12.5579 35.2024L12.6279 35.0624C13.1321 34.0961 13.4262 33.5219 13.5102 33.0038C13.6922 32.2195 14.2944 27.4021 14.5185 25.3715C15.1207 26.1557 15.9469 27.4441 15.7649 28.2703C17.0953 26.3798 16.129 24.5452 15.6668 23.817C15.2467 23.0888 14.7005 21.6043 15.1627 20.0499C15.6248 18.4814 17.2773 14.1681 17.2773 14.1681C17.2773 14.1681 17.8235 15.1344 18.6077 14.9523C19.392 14.7703 25.6799 5.3034 25.6799 5.3034C25.6799 5.3034 27.3744 9.02853 25.5818 11.7313C23.7473 14.4482 21.9547 14.9523 21.9547 14.9523C21.9547 14.9523 24.4755 15.4145 26.8282 13.7059C27.7945 15.9606 28.7188 18.2993 28.7608 18.6214C28.7328 18.6774 28.6628 18.8455 28.5647 19.0976C28.0466 20.3159 26.7582 23.3969 26.6041 23.6349C26.5061 23.733 25.8759 23.915 25.4138 23.9991C24.6295 24.2231 24.1674 24.3632 23.9853 24.5032C23.6632 24.7833 22.1928 28.8165 21.5066 30.8051C20.6803 31.0292 19.8541 31.4913 19.2519 32.4156C19.574 32.1915 20.5823 32.0515 21.3245 31.9535C21.9687 31.9114 23.9433 32.9618 24.4475 34.9364V35.0344C24.5455 35.7906 24.3074 36.4768 23.9433 37.023ZM19.63 37.5832C19.9521 37.107 19.9941 36.3928 20.0222 35.9447C20.0222 35.8186 20.0362 35.7206 20.0502 35.6506C20.0922 35.3285 20.1902 34.7263 20.5543 34.6423C20.9184 34.5442 21.8007 34.6843 21.8007 35.3285C21.8007 35.7346 21.4926 35.9307 21.1565 36.1547C21.0024 36.2528 20.8484 36.3508 20.6944 36.4768C20.4843 36.6869 20.1342 37.051 19.8961 37.3031C19.7561 37.4431 19.658 37.5411 19.63 37.5832ZM37.9616 28.8025C38.4237 26.4638 38.4657 24.4332 38.3257 22.7807C40.1182 25.1754 41.2246 28.0603 41.5466 31.0572C41.5887 31.4213 41.9668 31.7854 42.3309 32.1635C42.653 32.4436 43.0171 32.8077 43.0171 33.0318C43.0171 34.0821 42.9191 35.1464 42.737 36.1967C42.695 36.3228 42.3169 36.5468 42.0088 36.7149L41.9528 36.7429C41.4906 36.967 41.0845 37.205 40.9865 37.5692C39.9782 41.1122 37.8215 44.2352 34.9227 46.4338C39.1939 41.9945 41.2666 34.6423 37.9616 28.8025ZM35.0627 46.868C38.0456 44.5713 40.3423 41.3503 41.3646 37.7232C41.4066 37.6112 41.6587 37.4571 41.8968 37.3031C41.9668 37.2611 42.0368 37.219 42.0928 37.177C42.555 36.953 43.0171 36.6729 43.1011 36.3088C43.2832 35.2585 43.3812 34.1521 43.3812 33.0458C43.3812 32.6257 42.9611 32.2195 42.555 31.7994C42.4989 31.7294 42.4289 31.6594 42.3589 31.5893C42.1628 31.3793 41.9528 31.1552 41.9528 30.9732C41.5887 27.6121 40.2583 24.4472 38.1856 21.8284C37.2754 16.4088 33.7043 14.6722 33.5082 14.5742C33.5082 14.5742 33.5082 14.5742 33.4942 14.5742V14.5882C33.6483 14.8263 35.945 18.2293 34.3205 22.2065C32.794 25.8616 29.1529 25.7356 28.1306 25.7076C28.0046 25.7076 27.9205 25.7076 27.8925 25.7076C27.5284 25.7076 26.1 27.5421 24.3074 30.9452C24.0834 30.8471 23.1171 30.6231 22.0107 30.8051C22.837 28.5084 24.0834 25.2454 24.3074 24.9653C24.3775 24.8953 24.8396 24.7553 25.2457 24.6432C25.3578 24.6152 25.4558 24.5872 25.5538 24.5592C26.4221 24.3352 26.8422 24.1951 26.9823 24.0131C27.0803 23.873 27.5284 22.8227 27.9906 21.7164C28.4107 21.7164 29.461 21.6183 29.559 21.5763C29.6571 21.4783 30.5253 19.2376 30.5253 18.9575C30.5253 18.7335 28.7328 14.2661 28.0466 12.5716C28.3687 12.2075 28.6908 11.7453 29.0129 11.2412C38.4377 12.2495 45.7899 20.2459 45.7899 29.9368C45.7759 37.3451 41.4066 43.829 35.0627 46.868ZM25.2317 8.07624C25.2317 8.07624 25.6518 9.91079 24.5875 11.1572C23.2571 12.6696 22.1088 12.6276 22.1508 12.6276L25.2317 8.07624ZM14.6165 34.1801L14.2524 36.0147C14.2524 36.0147 14.9806 35.9167 14.9806 36.7429C14.9806 37.3871 14.2524 38.2554 13.6502 38.3114C13.048 38.3534 12.824 37.6252 12.964 37.205C13.1041 36.8409 14.6165 34.1801 14.6165 34.1801ZM21.6466 18.8315C23.2571 19.1536 23.7193 21.0442 22.837 22.0525C21.9687 23.0188 19.7561 24.3912 18.4677 24.7133C18.1876 25.7636 15.8489 25.3154 16.7172 21.9544C16.7172 21.9544 17.1373 23.5649 17.5434 23.4249C17.9635 23.2848 22.6409 15.9326 22.6409 15.9326C22.6409 15.9326 22.0528 17.8652 21.6466 18.8315ZM21.2265 19.7558L18.8318 23.845C18.8318 23.845 21.0445 22.8367 21.9127 21.5483C22.6129 20.442 21.2265 19.7558 21.2265 19.7558ZM20.9044 2.93669C16.7732 5.41543 17.5994 11.3392 17.5994 11.3392C13.8323 5.59749 19.9801 3.28679 20.8204 2.96469C20.8624 2.95069 20.8904 2.93669 20.9044 2.93669ZM40.9445 5.37342C34.0964 4.08503 29.6851 4.72923 26.5201 5.91959C26.4221 5.55548 26.1 4.81325 25.8339 4.22508C24.9096 5.33141 23.9293 6.64781 23.2851 7.53007L23.2151 7.6281C21.4646 8.81846 20.7364 9.96681 20.7364 9.96681C21.7447 6.52177 24.6856 3.94499 28.2706 3.3008C29.2789 3.11874 30.3853 3.02071 31.5756 3.02071C34.7406 3.07673 37.9056 3.84696 40.9445 5.37342ZM42.4149 13.5519C48.8989 17.8232 51.8398 22.5566 53.8984 28.1163C53.8004 22.2345 51.8258 17.179 48.0166 13.1318L47.9186 13.0337C44.5576 9.49067 39.6421 7.83817 34.7826 8.52437C32.9481 8.74844 31.1135 9.12656 29.6851 9.57469C29.461 9.6167 29.2229 9.67272 28.9989 9.75675H29.0969C29.461 9.72874 36.169 9.40664 42.4149 13.5519ZM46 45.5796C46.9243 44.6553 47.6945 43.689 48.3947 42.7787C52.3439 37.2611 51.7977 29.6848 47.2464 24.6292C46.8823 24.2091 46.4621 23.761 46.056 23.3409C46.2801 23.747 51.9238 34.1801 46 45.5796ZM12.1238 7.43204C11.9557 8.10425 10.4012 14.014 15.6248 14.1821C12.5019 12.2915 12.1378 7.43204 12.1378 7.37603C12.1378 7.40404 12.1238 7.41804 12.1238 7.43204ZM14.3364 17.081C14.6585 16.4788 14.3784 16.0727 14.1124 15.8346L14.0143 15.7366C13.4682 15.4565 10.0231 14.1681 6.6201 12.9777C9.603 14.9523 12.922 16.8849 13.4682 17.165C13.8743 17.361 14.1544 17.4031 14.3364 17.081Z" fill="black"/>
</g>
<defs>
<clipPath id="clip0_1641_73800">
<rect width="148" height="55" fill="white" transform="translate(0.0117188)"/>
</clipPath>
</defs>
</svg>
