<svg width="184" height="55" viewBox="0 0 184 55" fill="none" xmlns="http://www.w3.org/2000/svg">
<g opacity="0.3" clip-path="url(#clip0_1641_74161)">
<path d="M69.7498 15.4495C66.3605 15.4495 63.7486 17.459 63.7486 20.4423C63.7486 23.3427 65.9617 24.3371 68.7131 24.8756L72.1822 25.4558C76.7877 26.243 79.9576 28.4391 79.9576 33.6598C79.9576 39.1082 75.6512 42.2987 70.1685 42.2987C65.2241 42.2987 60.5587 39.2741 59.8807 33.349C59.8211 32.8517 60.1997 32.4168 60.6782 32.4168H62.7518C63.1505 32.4168 63.4894 32.7275 63.5493 33.1419C63.9878 37.3267 67.118 38.984 70.1884 38.984C73.5379 38.984 76.1896 37.2646 76.1896 33.784C76.1896 30.6765 74.0562 29.5992 71.2251 29.0398L67.796 28.4183C62.991 27.5896 59.9806 25.1863 59.9806 20.6287C59.9806 15.3459 64.4067 12.114 69.7297 12.114C73.9765 12.114 78.6617 14.6001 79.579 20.5044C79.6587 21.0016 79.2798 21.4781 78.7815 21.4781H76.6281C76.2493 21.4781 75.9104 21.1881 75.8505 20.7945C75.2326 16.8789 72.4813 15.4495 69.7498 15.4495Z" fill="#101010"/>
<path d="M93.7538 18.6812C98.8778 18.6812 102.526 21.5194 103.822 26.1601C103.962 26.678 103.583 27.2165 103.045 27.2165H100.632C100.293 27.2165 99.9943 26.9887 99.8746 26.6571C98.9774 24.0054 96.9039 22.4931 93.7538 22.4931C89.4673 22.4931 87.0747 26.1186 87.0747 30.4899C87.0747 34.8404 89.4872 38.4867 93.7538 38.4867C96.9039 38.4867 98.9774 36.9742 99.8746 34.3225C99.9943 33.9909 100.293 33.7631 100.632 33.7631H103.045C103.583 33.7631 103.962 34.3019 103.802 34.8198C102.427 39.6676 98.8977 42.2984 93.7538 42.2984C87.1545 42.2984 82.9678 36.9951 82.9678 30.4899C82.9477 24.0054 87.1545 18.6812 93.7538 18.6812Z" fill="#101010"/>
<path d="M107.69 38.5276H112.854V23.6114H108.249C107.81 23.6114 107.451 23.2383 107.451 22.7826V20.6695C107.451 20.2137 107.81 19.8408 108.249 19.8408H114.529C115.845 19.8408 116.921 20.9595 116.921 22.3268V22.9276C118.058 20.0894 120.51 19.385 124.318 19.385C125.773 19.385 126.75 19.6336 127.309 19.8408C127.628 19.9651 127.827 20.2758 127.827 20.6073V22.8033C127.827 23.3627 127.309 23.7771 126.79 23.5905C126.113 23.3627 125.156 23.1556 123.899 23.1556C119.832 23.1556 116.941 26.0353 116.941 31.0279V38.5276H123.58C124.019 38.5276 124.378 38.9005 124.378 39.3563V41.4694C124.378 41.9252 124.019 42.2981 123.58 42.2981H107.71C107.272 42.2981 106.913 41.9252 106.913 41.4694V39.3563C106.893 38.9005 107.252 38.5276 107.69 38.5276Z" fill="#101010"/>
<path d="M130.858 30.4899C130.858 24.0054 135.005 18.6812 141.744 18.6812C148.482 18.6812 152.629 23.9848 152.629 30.4899C152.629 36.9951 148.482 42.2984 141.744 42.2984C135.005 42.2984 130.858 36.9951 130.858 30.4899ZM141.744 38.4867C146.07 38.4867 148.562 34.8611 148.562 30.4899C148.562 26.1392 146.07 22.4931 141.744 22.4931C137.417 22.4931 134.925 26.1186 134.925 30.4899C134.925 34.8611 137.417 38.4867 141.744 38.4867Z" fill="#101010"/>
<path d="M161.64 38.7146H167.88C168.319 38.7146 168.678 39.0875 168.678 39.5433V41.4905C168.678 41.9463 168.319 42.3192 167.88 42.3192H158.53C158.091 42.3192 157.732 41.9463 157.732 41.4905V15.9258H154.622C154.183 15.9258 153.825 15.5529 153.825 15.0971V13.1497C153.825 12.694 154.183 12.321 154.622 12.321H159.228C160.544 12.321 161.62 13.4398 161.62 14.8071V38.7146H161.64Z" fill="#101010"/>
<path d="M175.437 38.7146H181.678C182.116 38.7146 182.475 39.0875 182.475 39.5433V41.4905C182.475 41.9463 182.116 42.3192 181.678 42.3192H172.327C171.888 42.3192 171.529 41.9463 171.529 41.4905V15.9258H168.419C167.981 15.9258 167.622 15.5529 167.622 15.0971V13.1497C167.622 12.694 167.981 12.321 168.419 12.321H173.025C174.341 12.321 175.417 13.4398 175.417 14.8071V38.7146H175.437Z" fill="#101010"/>
<path d="M47.5194 36.2279V5.77398C47.4794 3.22579 45.5256 1.1748 43.0734 1.1748H12.4895C5.89023 1.27839 0.586914 6.89271 0.586914 13.7708C0.586914 16.0911 1.18503 18.0799 2.10215 19.8201C2.8797 21.2703 4.09588 22.6376 5.29212 23.6529C5.63105 23.9428 5.47157 23.8185 6.5083 24.4815C7.94379 25.3929 9.57863 25.8487 9.57863 25.8487L9.5587 44.059C9.59858 44.9291 9.67833 45.7578 9.89764 46.5244C10.5755 49.0933 12.2901 51.0614 14.6228 52.0143C15.5997 52.408 16.6963 52.6773 17.8726 52.6981L42.2958 52.7809C47.1604 52.7809 51.108 48.679 51.108 43.6032C51.1279 40.5993 49.6926 37.9061 47.5194 36.2279Z" fill="white"/>
<path d="M48.117 43.8311C48.0174 47.0836 45.4454 49.6938 42.2954 49.6938L25.4883 49.6317C26.824 48.0159 27.6414 45.9234 27.6414 43.6445C27.6414 40.0606 25.5879 37.5952 25.5879 37.5952H42.3152C45.5252 37.5952 48.1369 40.309 48.1369 43.6445L48.117 43.8311Z" fill="white"/>
<path d="M6.88711 21.0844C4.95318 19.1784 3.59745 16.7131 3.59745 13.792V13.4812C3.75695 8.48843 7.70453 4.46932 12.5094 4.32431H43.0933C43.8908 4.36574 44.5288 4.94583 44.5288 5.79521V32.6859C45.2265 32.8103 45.5654 32.9139 46.2434 33.1625C46.7818 33.3697 47.5194 33.8046 47.5194 33.8046V5.79521C47.4794 3.24702 45.5256 1.19604 43.0734 1.19604H12.4895C5.89023 1.29963 0.586914 6.91394 0.586914 13.792C0.586914 17.7904 2.3414 21.2087 5.21236 23.6118C5.41174 23.7777 5.59117 23.9849 6.10956 23.9849C7.00674 23.9849 7.64473 23.2389 7.60485 22.431C7.5849 21.7473 7.30579 21.4987 6.88711 21.0844Z" fill="#101010"/>
<path d="M42.2962 34.4462H18.3116C16.6967 34.4668 15.4008 35.8136 15.4008 37.4916V41.0755C15.4407 42.7331 16.7964 44.1417 18.4113 44.1417H20.1857V41.0755H18.4113V37.5745C18.4113 37.5745 18.85 37.5745 19.3883 37.5745C22.4187 37.5745 24.6518 40.4955 24.6518 43.6238C24.6518 46.4 22.2193 49.9424 18.1521 49.6525C14.5435 49.4039 12.5896 46.0683 12.5896 43.6238V13.2526C12.5896 11.8853 11.513 10.7666 10.1972 10.7666H7.80469V13.8742H9.57911V43.6445C9.47943 49.694 13.7261 52.7394 18.1521 52.7394L42.3163 52.8221C47.1809 52.8221 51.1285 48.7203 51.1285 43.6445C51.1285 38.5689 47.161 34.4462 42.2962 34.4462ZM48.1178 43.831C48.0182 47.0836 45.4463 49.694 42.2962 49.694L25.4891 49.6317C26.825 48.0158 27.6424 45.9233 27.6424 43.6445C27.6424 40.0605 25.5887 37.5951 25.5887 37.5951H42.3163C45.526 37.5951 48.1379 40.3092 48.1379 43.6445L48.1178 43.831Z" fill="#101010"/>
<path d="M35.8356 14.4337H17.7524V11.3262H35.8356C36.653 11.3262 37.331 12.0098 37.331 12.8799C37.331 13.7293 36.6731 14.4337 35.8356 14.4337Z" fill="#101010"/>
<path d="M35.8356 29.0601H17.7524V25.9524H35.8356C36.653 25.9524 37.331 26.6362 37.331 27.5064C37.331 28.3557 36.6731 29.0601 35.8356 29.0601Z" fill="#101010"/>
<path d="M39.0256 21.7474H17.7524V18.6399H39.0055C39.8231 18.6399 40.5009 19.3235 40.5009 20.1937C40.5208 21.043 39.843 21.7474 39.0256 21.7474Z" fill="#101010"/>
</g>
<defs>
<clipPath id="clip0_1641_74161">
<rect width="183" height="55" fill="white" transform="translate(0.586914)"/>
</clipPath>
</defs>
</svg>
