<svg width="196" height="35" viewBox="0 0 196 35" fill="none" xmlns="http://www.w3.org/2000/svg">
<g opacity="0.4" clip-path="url(#clip0_1641_73684)">
<path fill-rule="evenodd" clip-rule="evenodd" d="M57.5685 22.2344C57.5685 24.9241 55.9861 26.4682 52.8734 26.4682H45.4286V23.2804H51.9913C52.9511 23.2804 53.4181 22.9566 53.4181 22.1349C53.4181 21.4625 52.8993 21.0391 51.7579 20.267L47.867 17.3781C45.8955 15.9336 45.0654 14.5887 45.0654 12.9948C45.0654 10.2803 46.7256 9.03516 49.994 9.03516H57.2572V12.2229H50.7203C49.7087 12.2229 49.2158 12.5466 49.2158 13.3934C49.2158 14.0409 49.7346 14.4643 50.9019 15.2113L54.7669 17.8014C56.7384 19.0965 57.5685 20.6655 57.5685 22.2344Z" fill="#322B3D"/>
<path fill-rule="evenodd" clip-rule="evenodd" d="M72.7861 12.223H68.0818V26.4682H63.9001V12.223H59.1958V9.03516H72.7861V12.223Z" fill="#322B3D"/>
<path fill-rule="evenodd" clip-rule="evenodd" d="M84.0068 20.1923L81.512 13.2937L78.9916 20.1923H84.0068ZM85.0761 23.1061H77.8968L76.6749 26.4682H72.2451L79.348 9.03516H83.6249L90.7279 26.4682H86.2982L85.0761 23.1061Z" fill="#322B3D"/>
<path fill-rule="evenodd" clip-rule="evenodd" d="M97.7796 17.2535C100.062 17.2535 100.736 16.4815 100.736 14.6386C100.736 12.7957 100.062 12.0236 97.7796 12.0236H95.9641V17.2535H97.7796ZM105.405 26.4682H101.229L100.425 23.131C99.9064 20.8149 99.4396 20.1923 97.624 20.1673H95.9641V26.4682H91.8145V9.03516H99.258C103.122 9.03516 104.886 10.6788 104.886 14.2649C104.886 16.6808 103.9 18.1501 101.903 18.7478C103.33 19.3953 104.03 20.6904 104.601 23.131L105.405 26.4682Z" fill="#322B3D"/>
<path fill-rule="evenodd" clip-rule="evenodd" d="M112.157 17.4778L118.6 9.03516H123.425L116.654 17.4778L123.88 26.4682H119.054L112.157 17.4778ZM108.115 26.4682H112.157V9.03516H108.115V26.4682Z" fill="#322B3D"/>
<path fill-rule="evenodd" clip-rule="evenodd" d="M150.522 9.03516L145.097 26.4682H142.562L138.278 12.5217L133.993 26.4682H131.433L126.059 9.03516H128.543L132.777 23.7536L137.264 9.03516H139.292L143.779 23.7536L148.037 9.03516H150.522Z" fill="#322B3D"/>
<path fill-rule="evenodd" clip-rule="evenodd" d="M161.269 20.267L157.872 11.5255L154.45 20.267H161.269ZM161.912 21.9356H153.807L152.032 26.4682H149.434L156.612 9.03516H159.107L166.286 26.4682H163.687L161.912 21.9356Z" fill="#322B3D"/>
<path fill-rule="evenodd" clip-rule="evenodd" d="M174.096 17.5773C176.95 17.5773 178.013 16.5065 178.013 14.1654C178.013 11.8742 176.95 10.7785 174.096 10.7785H170.854V17.5773H174.096ZM180.97 26.4682H178.558L177.909 23.4796C177.261 20.3666 176.457 19.3206 174.018 19.2708H170.854V26.4682H168.467V9.03516H174.9C178.714 9.03516 180.4 10.6539 180.4 13.9662C180.4 16.4566 179.336 17.9758 177.105 18.4739C178.869 19.1214 179.673 20.5908 180.296 23.4796L180.97 26.4682Z" fill="#322B3D"/>
<path d="M187.147 10.878V16.1826H195.136V17.9011H187.147V21.6368C187.147 23.7039 188.075 24.6253 190.188 24.6253H196.192V26.4682H189.827C186.065 26.4682 184.776 25.2728 184.776 21.836V9.03516H196.192V10.878H187.147Z" fill="#322B3D"/>
<path fill-rule="evenodd" clip-rule="evenodd" d="M17.8569 19.7238L14.7826 22.8047C14.7807 22.8064 14.7788 22.8084 14.7765 22.8098C14.769 22.8147 14.7599 22.8175 14.7503 22.8175C14.7236 22.8175 14.7019 22.7957 14.7019 22.7689C14.7019 22.7635 14.7027 22.7582 14.7045 22.7533C14.7045 22.7532 14.7045 22.7534 14.7045 22.7533L15.8739 18.3813C15.9737 18.0679 15.8996 17.7111 15.6514 17.4625L12.5771 14.3815C12.5754 14.3795 12.5735 14.3776 12.572 14.3753C12.5673 14.3679 12.5644 14.3588 12.5644 14.3492C12.5644 14.3223 12.5861 14.3006 12.6128 14.3006C12.6183 14.3006 12.6235 14.3015 12.6284 14.3031L16.9911 15.4752C17.3037 15.5752 17.6598 15.5009 17.9078 15.2522L20.9822 12.1714C20.9842 12.1696 20.986 12.1676 20.9883 12.1662C20.9959 12.1613 21.0048 12.1585 21.0145 12.1585C21.0412 12.1585 21.0629 12.1803 21.0629 12.2071C21.0629 12.2126 21.062 12.2178 21.0604 12.2227L19.8909 16.5947C19.7912 16.908 19.8653 17.2649 20.1133 17.5135L23.1876 20.5945C23.1895 20.5965 23.1913 20.5983 23.1927 20.6005C23.1976 20.6081 23.2005 20.6172 23.2005 20.6268C23.2005 20.6535 23.1787 20.6753 23.152 20.6753C23.1465 20.6753 23.1413 20.6745 23.1365 20.6728C23.1363 20.6728 23.1366 20.6728 23.1365 20.6728L18.7738 19.5008C18.4611 19.4008 18.105 19.4752 17.8569 19.7238ZM35.1453 17.1669L27.8022 9.80809C27.5541 9.55949 27.1981 9.48511 26.8854 9.58506L22.0567 10.8828C22.0561 10.8827 22.056 10.882 22.055 10.8823C22.0505 10.8837 22.0456 10.8845 22.0405 10.8845C22.0139 10.8845 21.9922 10.8628 21.9922 10.8359C21.9922 10.8187 22.001 10.8037 22.0144 10.7951C22.5415 10.4438 23.3403 9.80809 25.2509 7.89336C25.4278 7.71612 25.4278 7.42859 25.2509 7.25124L18.2027 0.187946C18.0259 0.0105936 17.739 0.0105936 17.5621 0.187946L10.219 7.54679C9.97093 7.79538 9.89682 8.1523 9.99656 8.46563L11.2914 13.3047C11.2912 13.3053 11.2907 13.3054 11.2909 13.3064C11.2924 13.311 11.2931 13.3159 11.2931 13.3209C11.2931 13.3477 11.2714 13.3694 11.2446 13.3694C11.2276 13.3694 11.2125 13.3605 11.2039 13.347C10.8533 12.8188 10.219 12.0184 8.30849 10.1036C8.13152 9.92628 7.84461 9.92628 7.66776 10.1036L0.619544 17.1669C0.442574 17.3443 0.442574 17.6318 0.619544 17.809L7.96255 25.1679C8.21061 25.4165 8.56676 25.4909 8.87941 25.3909L13.7082 24.0932C13.7088 24.0933 13.7088 24.094 13.7098 24.0937C13.7143 24.0923 13.7192 24.0915 13.7242 24.0915C13.751 24.0915 13.7727 24.1132 13.7727 24.14C13.7727 24.1571 13.7639 24.1722 13.7504 24.181C13.7503 24.181 13.7504 24.1808 13.7504 24.181C13.2232 24.5322 12.4245 25.1679 10.5139 27.0826C10.3369 27.26 10.3369 27.5474 10.5139 27.7247L17.5621 34.788C17.739 34.9654 18.0259 34.9654 18.2027 34.788L25.5457 27.4292C25.7938 27.1806 25.868 26.8237 25.7683 26.5104L24.4735 21.6713C24.4735 21.6706 24.4742 21.6706 24.4738 21.6697C24.4724 21.665 24.4717 21.6602 24.4717 21.6551C24.4717 21.6283 24.4934 21.6066 24.5201 21.6066C24.5373 21.6066 24.5523 21.6155 24.5609 21.629C24.9114 22.1572 25.5457 22.9577 27.4563 24.8723C27.6333 25.0497 27.9201 25.0497 28.0971 24.8723L35.1453 17.809C35.3221 17.6318 35.3221 17.3443 35.1453 17.1669Z" fill="#322B3D"/>
</g>
<defs>
<clipPath id="clip0_1641_73684">
<rect width="195.7" height="34.8661" fill="white" transform="translate(0.486816 0.0549316)"/>
</clipPath>
</defs>
</svg>
