<svg width="24" height="24" viewBox="0 0 24 24" fill="none" xmlns="http://www.w3.org/2000/svg">
<path fill-rule="evenodd" clip-rule="evenodd" d="M11.984 13.4318L10.0165 15.4036C10.0153 15.4047 10.0141 15.406 10.0126 15.4069C10.0078 15.41 10.002 15.4118 9.99581 15.4118C9.97874 15.4118 9.96486 15.3979 9.96486 15.3807C9.96486 15.3773 9.96538 15.3738 9.9665 15.3707C9.9665 15.3708 9.9665 15.3706 9.9665 15.3707L10.7149 12.5726C10.7788 12.372 10.7313 12.1437 10.5725 11.9846L8.60499 10.0127C8.60387 10.0115 8.60268 10.0103 8.60172 10.0088C8.59868 10.004 8.59682 9.99824 8.59682 9.99206C8.59682 9.97488 8.6107 9.96097 8.62785 9.96097C8.63133 9.96097 8.63467 9.96157 8.63779 9.96261L11.4299 10.7127C11.63 10.7767 11.8579 10.7292 12.0166 10.57L13.9842 8.59831C13.9855 8.59712 13.9867 8.59585 13.9882 8.59496C13.993 8.59184 13.9987 8.59005 14.0049 8.59005C14.022 8.59005 14.0359 8.60396 14.0359 8.62114C14.0359 8.62464 14.0353 8.62799 14.0343 8.63111L13.2858 11.4292C13.222 11.6297 13.2694 11.8581 13.4282 12.0172L15.3957 13.9891C15.3969 13.9903 15.3981 13.9915 15.399 13.9929C15.4021 13.9978 15.4039 14.0036 15.4039 14.0098C15.4039 14.0269 15.39 14.0408 15.3729 14.0408C15.3694 14.0408 15.3661 14.0403 15.363 14.0392C15.363 14.0392 15.3629 14.0392 15.363 14.0392L12.5708 13.2891C12.3707 13.2251 12.1428 13.2727 11.984 13.4318ZM23.0486 11.7954L18.349 7.08577C18.1903 6.92667 17.9624 6.87907 17.7623 6.94303L14.6719 7.77357C14.6715 7.7735 14.6714 7.77305 14.6708 7.77327C14.668 7.77417 14.6648 7.77469 14.6616 7.77469C14.6445 7.77469 14.6306 7.76078 14.6306 7.7436C14.6306 7.73259 14.6363 7.72299 14.6449 7.71749C14.9822 7.49263 15.4934 7.08577 16.7162 5.86034C16.8294 5.74691 16.8294 5.56289 16.7162 5.44939L12.2054 0.928879C12.0922 0.815374 11.9086 0.815374 11.7954 0.928879L7.09578 5.63854C6.93702 5.79764 6.88959 6.02606 6.95342 6.2266L7.7821 9.3236C7.78202 9.32397 7.78165 9.32405 7.7818 9.32472C7.78277 9.32762 7.78321 9.33074 7.78321 9.33394C7.78321 9.35112 7.76933 9.36503 7.75219 9.36503C7.74128 9.36503 7.73163 9.3593 7.72614 9.35067C7.50176 9.01261 7.09578 8.50035 5.87306 7.27492C5.7598 7.16142 5.57618 7.16142 5.46299 7.27492L0.952133 11.7954C0.838872 11.9089 0.838872 12.093 0.952133 12.2064L5.65166 16.916C5.81042 17.0751 6.03835 17.1227 6.23845 17.0588L9.32886 16.2282C9.32923 16.2283 9.32923 16.2288 9.3299 16.2285C9.3328 16.2276 9.33591 16.2271 9.33911 16.2271C9.35625 16.2271 9.37013 16.241 9.37013 16.2582C9.37013 16.2692 9.36449 16.2788 9.35588 16.2844C9.35588 16.2843 9.3558 16.2844 9.35588 16.2844C9.01847 16.5092 8.50731 16.916 7.28452 18.1415C7.17126 18.255 7.17126 18.4389 7.28452 18.5524L11.7954 23.0729C11.9086 23.1864 12.0922 23.1864 12.2054 23.0729L16.9049 18.3633C17.0637 18.2042 17.1112 17.9758 17.0473 17.7752L16.2186 14.6782C16.2186 14.6778 16.2191 14.6778 16.2189 14.6772C16.218 14.6742 16.2175 14.6712 16.2175 14.6679C16.2175 14.6507 16.2314 14.6368 16.2485 14.6368C16.2595 14.6368 16.2691 14.6425 16.2746 14.6511C16.4989 14.9892 16.9049 15.5015 18.1277 16.7269C18.2409 16.8404 18.4245 16.8404 18.5378 16.7269L23.0486 12.2064C23.1618 12.093 23.1618 11.9089 23.0486 11.7954Z" fill="#323189"/>
</svg>
