<svg width="179" height="39" viewBox="0 0 179 39" fill="none" xmlns="http://www.w3.org/2000/svg">
<g opacity="0.4" clip-path="url(#clip0_1641_73698)">
<path d="M1.32275 19.5845C1.32275 29.9768 10.0755 38.4013 20.8728 38.4013C31.6702 38.4013 40.4234 29.9768 40.4234 19.5845C40.4234 9.19211 31.6702 0.767578 20.8728 0.767578C10.0755 0.767578 1.32275 9.19208 1.32275 19.5845Z" fill="#322B3D" stroke="#322B3D" stroke-width="1.21426"/>
<path fill-rule="evenodd" clip-rule="evenodd" d="M12.021 15.0365L12.5161 13.5642C12.6168 13.2647 12.8623 13.0317 13.1746 12.9398L14.7118 12.4848C14.9245 12.4223 14.9263 12.1334 14.7152 12.0675L13.1849 11.5909C12.8744 11.4941 12.6323 11.2577 12.5362 10.9572L12.0641 9.47762C11.9991 9.27336 11.6989 9.27114 11.6305 9.47485L11.1353 10.9472C11.0347 11.2461 10.7892 11.4791 10.4769 11.5716L8.93969 12.026C8.72692 12.0891 8.72461 12.3775 8.93624 12.4433L10.4665 12.9199C10.7771 13.0168 11.0192 13.2537 11.1152 13.5542L11.5874 15.0332C11.6523 15.238 11.9525 15.2402 12.021 15.0365Z" fill="#FAFAFA"/>
<path fill-rule="evenodd" clip-rule="evenodd" d="M36.3233 14.18C35.6899 13.498 34.7007 13.1139 33.7391 12.9564C32.77 12.8052 31.7536 12.8192 30.7969 12.9828C28.861 13.298 27.1022 14.0696 25.5682 15.0214C24.7716 15.4885 24.0922 16.0291 23.3884 16.5796C23.0493 16.858 22.7401 17.1544 22.4181 17.4467L21.5383 18.2892C20.5823 19.2511 19.64 20.1271 18.7283 20.8532C17.8129 21.576 16.9571 22.125 16.1137 22.5083C15.2708 22.8936 14.369 23.1202 13.1934 23.1565C12.0282 23.1961 10.6496 22.9937 9.17504 22.6596C7.69251 22.3269 6.1357 21.8528 4.396 21.4449C5.00302 23.0657 5.91711 24.4981 7.09072 25.8074C8.27808 27.094 9.76076 28.2668 11.6654 29.0381C13.5426 29.8265 15.9016 30.1094 18.1073 29.6825C20.3189 29.2727 22.2596 28.2876 23.8284 27.1485C25.4012 25.9978 26.6736 24.6869 27.7463 23.3239C28.0424 22.9474 28.199 22.7367 28.4133 22.4424L29.0057 21.5979C29.4173 21.0756 29.792 20.4809 30.1995 19.9633C30.9983 18.8795 31.7856 17.7969 32.7007 16.7994C33.1613 16.2935 33.647 15.8096 34.2203 15.3446C34.5064 15.1176 34.8152 14.8955 35.1574 14.6954C35.5048 14.4796 35.8717 14.3106 36.3233 14.18Z" fill="#322B3D"/>
<path fill-rule="evenodd" clip-rule="evenodd" d="M36.3233 14.1793C35.6426 12.5258 34.3769 11.134 32.6784 10.1069C30.9897 9.09112 28.6446 8.57275 26.3209 9.01463C25.1728 9.22834 24.0605 9.63978 23.0845 10.1877C22.1128 10.7334 21.2422 11.3903 20.4884 12.0951C20.1121 12.4487 19.7706 12.8175 19.4313 13.1884L18.5518 14.2676L17.1935 16.0049C15.4618 18.2401 13.597 20.8596 10.5368 21.6358C7.53258 22.3977 6.22959 21.7229 4.396 21.4441C4.73127 22.2772 5.14655 23.0863 5.70958 23.798C6.26209 24.5242 6.91469 25.2063 7.72605 25.7908C8.13608 26.0716 8.56898 26.3487 9.04979 26.5838C9.52839 26.8108 10.0445 27.0107 10.5954 27.1613C11.6913 27.4504 12.925 27.5516 14.1195 27.3961C15.3146 27.2427 16.4569 26.8781 17.4554 26.3939C18.4612 25.9145 19.3375 25.3304 20.1199 24.7141C21.6751 23.4709 22.8849 22.0973 23.9067 20.7089C24.4207 20.0147 24.8873 19.3074 25.3188 18.5999L25.8267 17.7577C25.9819 17.5114 26.139 17.2637 26.2986 17.033C26.942 16.1061 27.5714 15.3629 28.3359 14.805C29.0897 14.2327 30.1396 13.8099 31.5424 13.7117C32.9394 13.6123 34.5521 13.7959 36.3233 14.1793Z" fill="#FAFAFA"/>
<path fill-rule="evenodd" clip-rule="evenodd" d="M28.7573 27.9174C28.7573 29.1318 29.7808 30.1168 31.0424 30.1168C32.3043 30.1168 33.3263 29.1318 33.3263 27.9174C33.3263 26.7031 32.3043 25.718 31.0424 25.718C29.7808 25.718 28.7573 26.7031 28.7573 27.9174Z" fill="#322B3D"/>
<path d="M176.117 14.1864V11.9656C176.117 11.8775 176.043 11.8062 175.952 11.8062H162.805C162.713 11.8062 162.639 11.8775 162.639 11.9656V14.1864H167.982V28.5535H170.774V14.1864H176.117Z" fill="#322B3D"/>
<path d="M148.898 11.8062C148.806 11.8062 148.732 11.8775 148.732 11.9656V28.3939C148.732 28.4819 148.806 28.5535 148.898 28.5535H159.961C160.053 28.5535 160.127 28.4819 160.127 28.3939V26.1967H151.524V20.9335H158.632V18.624H151.524V14.1628H159.514V11.9656C159.514 11.8775 159.44 11.8062 159.348 11.8062H148.898Z" fill="#322B3D"/>
<path d="M142.484 28.456L142.544 28.5535H144.688C144.78 28.5535 144.854 28.4819 144.854 28.3939V11.9656C144.854 11.8775 144.78 11.8062 144.688 11.8062H142.111V23.4046C141.664 22.719 141.144 21.9643 140.553 21.1407C139.8 20.0688 138.989 18.9814 138.122 17.8786C137.27 16.76 136.403 15.6807 135.519 14.6407C134.65 13.5841 133.83 12.66 133.057 11.8689L132.996 11.8062H130.978C130.886 11.8062 130.812 11.8775 130.812 11.9656V28.3939C130.812 28.4819 130.886 28.5535 130.978 28.5535H133.555V16.1285C133.907 16.529 134.282 16.9729 134.68 17.4602C135.217 18.1187 135.771 18.8245 136.342 19.5777L136.343 19.5785L136.343 19.5793C136.913 20.3163 137.484 21.0849 138.055 21.885L138.055 21.886L138.056 21.8871C138.643 22.6876 139.205 23.4801 139.743 24.2647L139.744 24.2655L139.745 24.2662C140.282 25.0345 140.779 25.7791 141.235 26.4998L141.235 26.501L141.236 26.5025C141.709 27.2246 142.125 27.8759 142.484 28.456Z" fill="#322B3D"/>
<path d="M127.439 12.1397L127.502 12.073C127.599 11.9706 127.524 11.8062 127.38 11.8062H124.323L124.262 11.8753C123.856 12.3283 123.352 12.8606 122.749 13.4725C122.161 14.0693 121.533 14.6978 120.863 15.3577C120.194 16.0174 119.517 16.6771 118.832 17.3368C118.283 17.852 117.772 18.3267 117.297 18.7612V11.8062H114.671C114.58 11.8062 114.505 11.8775 114.505 11.9656V28.3939C114.505 28.4819 114.58 28.5535 114.671 28.5535H117.297V20.9559C117.873 21.3191 118.462 21.7441 119.064 22.2314L119.065 22.2321L119.066 22.2328C119.795 22.8099 120.509 23.4419 121.207 24.129L121.208 24.1307L121.21 24.1323C121.923 24.8033 122.596 25.5132 123.228 26.2622L123.229 26.263L123.23 26.2639C123.862 26.9973 124.42 27.7297 124.906 28.4614L124.967 28.5535H127.946C128.073 28.5535 128.153 28.4208 128.09 28.3145L128.054 28.2549C127.607 27.5059 127.046 26.7197 126.371 25.8961C125.714 25.0738 125.007 24.2676 124.252 23.4774C123.497 22.687 122.725 21.9438 121.936 21.2478C121.221 20.6174 120.539 20.0762 119.888 19.6248C120.441 19.1048 121.028 18.5465 121.648 17.9498C122.335 17.2887 123.022 16.6197 123.709 15.9429C124.412 15.2503 125.082 14.5812 125.72 13.9357L125.721 13.9348L125.722 13.934C126.36 13.2731 126.932 12.675 127.439 12.1397Z" fill="#322B3D"/>
<path fill-rule="evenodd" clip-rule="evenodd" d="M98.6577 11.681C98.5663 11.6811 98.4922 11.7524 98.4922 11.8405V28.4044C98.4922 28.4926 98.5663 28.564 98.6577 28.564H101.023V22.4738H104.479C104.868 22.9219 105.247 23.3906 105.617 23.8801L105.618 23.882L105.619 23.8838C106.224 24.6471 106.783 25.4432 107.296 26.2727L107.297 26.2734L107.297 26.2744C107.762 27.0082 108.167 27.7331 108.514 28.4489L108.569 28.564H111.369C111.489 28.564 111.569 28.4449 111.519 28.3399C111.197 27.661 110.848 26.996 110.461 26.3484C109.934 25.4432 109.357 24.5469 108.728 23.6598C108.369 23.1527 108.002 22.6602 107.628 22.1821C108.672 21.8749 109.498 21.3193 110.095 20.5129L110.096 20.5122C110.813 19.5363 111.168 18.3884 111.168 17.0774C111.168 16.1765 111.006 15.3521 110.676 14.6073C110.346 13.8516 109.848 13.2249 109.186 12.7305C108.528 12.2334 107.717 11.9171 106.762 11.7753C106.539 11.7358 106.309 11.7121 106.072 11.7041C105.841 11.6887 105.638 11.6809 105.467 11.6809C104.741 11.6809 104.015 11.6809 103.289 11.6808C101.745 11.6806 100.202 11.6805 98.6577 11.681ZM108.59 17.0774C108.59 17.5125 108.515 17.9407 108.363 18.3627C108.216 18.768 107.979 19.1233 107.653 19.4304C107.344 19.7211 106.936 19.9273 106.419 20.0426C106.256 20.0784 106.08 20.1038 105.89 20.1184L105.89 20.1184L105.89 20.1184C105.703 20.1333 105.539 20.1406 105.395 20.1406H101.023V14.0141H105.395C105.539 14.0141 105.703 14.0214 105.89 14.0364L105.894 14.0367L105.898 14.0369C106.083 14.044 106.253 14.0687 106.411 14.1102L106.416 14.1115L106.422 14.1126C106.936 14.2203 107.343 14.4257 107.651 14.7227L107.652 14.7236L107.653 14.7244C107.979 15.0309 108.215 15.3898 108.363 15.803V15.8035L108.364 15.804C108.514 16.2179 108.59 16.6421 108.59 17.0774Z" fill="#322B3D"/>
<path fill-rule="evenodd" clip-rule="evenodd" d="M92.2797 26.3424L92.28 26.3431L92.2803 26.3438C92.5258 27.0218 92.7878 27.7153 93.0663 28.4245L93.1169 28.5535H95.9171C96.0321 28.5535 96.1121 28.4436 96.0728 28.3394C95.4611 26.7219 94.8436 25.1063 94.2137 23.4953C93.6414 22.0158 93.0773 20.6148 92.521 19.2921C91.9812 17.9695 91.4411 16.7095 90.9011 15.5122C90.3592 14.2954 89.789 13.0906 89.1951 11.8966C89.1674 11.8413 89.1095 11.8062 89.0458 11.8062H86.8123C86.7485 11.8062 86.6904 11.8413 86.663 11.8966C86.0688 13.0907 85.4988 14.2955 84.957 15.5123C84.417 16.7092 83.869 17.9688 83.313 19.2911L83.3125 19.2921L83.3122 19.293C82.7724 20.6152 82.2164 22.016 81.6444 23.4952C81.0142 25.1063 80.3967 26.7219 79.7851 28.3394C79.7457 28.4436 79.8257 28.5535 79.9407 28.5535H82.6214L82.6216 28.5533H82.6739L82.7354 28.4897C83.3821 27.8216 84.1049 27.1657 84.9042 26.5225L84.905 26.522L84.9057 26.5213C85.708 25.8619 86.5446 25.2505 87.4153 24.6867L87.4173 24.6855L87.4191 24.684C88.2768 24.1008 89.14 23.5774 90.0086 23.1137L90.0096 23.1132L90.0106 23.1126C90.3234 22.9413 90.6314 22.7816 90.9346 22.6337L91.5206 24.2448L91.5211 24.246C91.7821 24.9528 92.035 25.6515 92.2797 26.3424ZM89.2672 18.3984L89.2677 18.3997L89.2682 18.4011C89.5041 18.9758 89.74 19.5601 89.9759 20.1541C89.9583 20.1616 89.9403 20.1693 89.922 20.1774C89.092 20.5412 88.1998 21.0116 87.2459 21.5875C86.3326 22.1388 85.4265 22.7378 84.5277 23.3844L84.9083 22.3383C85.4117 20.9786 85.9152 19.6658 86.4187 18.3997C86.8816 17.2579 87.3637 16.1596 87.8649 15.1049C88.3514 16.1592 88.8188 17.257 89.2672 18.3984Z" fill="#322B3D"/>
<path d="M80.4658 14.1864V11.9656C80.4658 11.8775 80.3917 11.8062 80.3 11.8062H67.1533C67.0619 11.8062 66.9878 11.8775 66.9878 11.9656V14.1864H72.3309V28.3939C72.3309 28.4819 72.405 28.5535 72.4967 28.5535H74.957C75.0484 28.5535 75.1225 28.4819 75.1225 28.3939V14.1864H80.4658Z" fill="#322B3D"/>
<path d="M54.9251 28.3497L54.9243 28.3495C53.9118 27.9341 53.0696 27.3409 52.4018 26.5697L52.4011 26.5687L52.4003 26.568C51.7394 25.7869 51.3101 24.8661 51.1107 23.8104C51.1008 23.7576 51.1133 23.7031 51.1455 23.6593C51.1778 23.6156 51.227 23.5862 51.2821 23.5778L53.5091 23.24C53.6145 23.2241 53.7153 23.2878 53.7417 23.3872C54.0123 24.3993 54.5694 25.1848 55.4138 25.7542C56.271 26.3187 57.2818 26.6039 58.4548 26.6039C59.2157 26.6039 59.8957 26.4908 60.4977 26.2681C61.1065 26.0379 61.5793 25.7151 61.9244 25.3036C62.2638 24.8989 62.4352 24.4196 62.4352 23.8562C62.4352 23.5065 62.3707 23.2202 62.2511 22.9902C62.2501 22.9881 62.2491 22.986 62.2481 22.9839C62.1318 22.7388 61.9693 22.5341 61.7598 22.3673C61.7578 22.3658 61.7558 22.3641 61.754 22.3625C61.5438 22.1818 61.3023 22.0291 61.0289 21.9048C60.7491 21.7776 60.4573 21.6727 60.1534 21.5902L60.1506 21.5895L55.7086 20.3196C55.214 20.1768 54.7359 19.9983 54.2743 19.7841L54.2731 19.7835L54.2715 19.7828C53.8028 19.5572 53.3829 19.2785 53.0127 18.9466L53.0117 18.9455L53.0109 18.945C52.6357 18.6002 52.3381 18.1904 52.118 17.7175L52.1175 17.7163C51.8935 17.2275 51.7851 16.6593 51.7851 16.0168C51.7851 14.9869 52.0616 14.0976 52.624 13.3596L52.6242 13.3593C53.1889 12.621 53.9504 12.06 54.901 11.6747C55.8506 11.2899 56.9157 11.1037 58.0933 11.1116C59.2866 11.1195 60.3601 11.3255 61.3097 11.7342C62.2666 12.1348 63.0603 12.7131 63.6869 13.4691C64.3232 14.2266 64.7475 15.1307 64.963 16.1761C64.974 16.2287 64.9623 16.2833 64.9308 16.3276C64.8993 16.3718 64.8506 16.4019 64.7957 16.4112L62.5083 16.7956C62.454 16.8047 62.3984 16.7926 62.3534 16.7621C62.3083 16.7315 62.2778 16.685 62.2686 16.6327C62.1531 15.9804 61.8967 15.4271 61.5021 14.9672L61.4998 14.9645C61.1098 14.4934 60.6208 14.1325 60.0292 13.8811L60.0272 13.8802C59.4344 13.6209 58.7813 13.4862 58.0653 13.4787H58.0651C57.3788 13.4712 56.7654 13.5763 56.2215 13.7901C55.6761 14.0045 55.2506 14.3003 54.9368 14.6744L54.9355 14.6758C54.6275 15.0356 54.4744 15.4489 54.4744 15.9236C54.4744 16.3951 54.6141 16.7588 54.8784 17.0337C55.1635 17.3225 55.5141 17.5556 55.9336 17.732C56.3782 17.9077 56.8095 18.0524 57.2282 18.1664L57.2292 18.1667L60.5442 19.0866C60.9306 19.1895 61.3719 19.3312 61.8675 19.5111C62.3862 19.6963 62.8864 19.9574 63.3678 20.2929C63.8634 20.6303 64.2704 21.0808 64.5901 21.6395C64.9186 22.2055 65.076 22.9093 65.076 23.7397C65.076 24.5745 64.9008 25.3248 64.5449 25.9856C64.1996 26.6423 63.7146 27.1938 63.0926 27.6388L63.091 27.6398C62.4725 28.0743 61.7563 28.4023 60.9453 28.6254C60.1339 28.8563 59.267 28.9712 58.3459 28.9712C57.0878 28.9712 55.9463 28.7654 54.9251 28.3497Z" fill="#322B3D"/>
</g>
<defs>
<clipPath id="clip0_1641_73698">
<rect width="177.629" height="38.8563" fill="white" transform="translate(0.772461 0.215088)"/>
</clipPath>
</defs>
</svg>
