<svg width="51" height="41" viewBox="0 0 51 41" fill="none" xmlns="http://www.w3.org/2000/svg">
<path fill-rule="evenodd" clip-rule="evenodd" d="M49.5 28L51 29.5L51 39.5L49.5 41L39.5 41L38 39.5L38 29.5L39.5 28L49.5 28ZM48 31L41 31L41 38L48 38L48 31Z" fill="#3D3D3D"/>
<path fill-rule="evenodd" clip-rule="evenodd" d="M11.5 28L13 29.5L13 39.5L11.5 41L1.5 41L-5.02681e-07 39.5L-6.55671e-08 29.5L1.5 28L11.5 28ZM10 31L3 31L3 38L10 38L10 31Z" fill="#3D3D3D"/>
<path fill-rule="evenodd" clip-rule="evenodd" d="M30.5 28L32 29.5L32 39.5L30.5 41L20.5 41L19 39.5L19 29.5L20.5 28L30.5 28ZM29 31L22 31L22 38L29 38L29 31Z" fill="#3D3D3D"/>
<path fill-rule="evenodd" clip-rule="evenodd" d="M44.5 5.5L46 7L46 23.5L43 23.5L43 8.5L27 8.5L27 23.5L24 23.5L24 8.5L8 8.5L8 23.5L5 23.5L5 7L6.5 5.5L44.5 5.5Z" fill="#989898"/>
<path d="M30.5 12L30.5 2L20.5 2L20.5 12L30.5 12Z" fill="white"/>
<path fill-rule="evenodd" clip-rule="evenodd" d="M30.5 0.5L32 2L32 12L30.5 13.5L20.5 13.5L19 12L19 2L20.5 0.499999L30.5 0.5ZM29 3.5L22 3.5L22 10.5L29 10.5L29 3.5Z" fill="#3D3D3D"/>
</svg>
