<svg width="197" height="35" viewBox="0 0 197 35" fill="none" xmlns="http://www.w3.org/2000/svg">
<g opacity="0.4" clip-path="url(#clip0_1641_73671)">
<path fill-rule="evenodd" clip-rule="evenodd" d="M116.374 9.77829C112.86 10.6348 111.213 13.3004 112.212 16.514C112.64 17.8912 113.956 19.2803 115.817 20.3193C119.171 22.1915 120.159 22.9496 120.732 24.0921C121.211 25.0451 121.252 25.3636 121.011 26.2274C120.445 28.2552 118.966 29.3734 116.85 29.3734C114.691 29.3734 113.175 28.2015 112.837 26.2711C112.701 25.4947 112.533 25.2469 112.146 25.2469C111.683 25.2469 111.634 25.4523 111.634 27.4186V29.5899L113.038 30.0515C115.231 30.7722 118.351 30.6861 120.212 29.8535C123.838 28.2313 125.228 25.0118 123.6 22.0033C122.992 20.878 121.464 19.622 118.847 18.0948C116.097 16.4892 114.871 15.3213 114.691 14.1343C114.415 12.3103 116.111 10.8007 118.428 10.8071C120.243 10.812 121.022 11.2278 121.665 12.535C122.068 13.3533 122.357 13.6239 122.834 13.6311C123.361 13.6388 123.44 13.5437 123.305 13.0601C123.217 12.741 123.142 11.941 123.14 11.2822C123.138 10.4458 123.013 10.0388 122.726 9.93278C121.944 9.6434 117.381 9.53249 116.374 9.77829ZM45.8286 10.5453C45.8286 10.9165 46.007 11.0612 46.4646 11.0612C47.7563 11.0612 47.8254 11.4218 47.9685 18.9019C48.0935 25.4368 48.1398 25.9588 48.6796 26.9233C49.453 28.305 50.5018 29.2245 52.1149 29.935C53.22 30.4217 53.9176 30.525 56.1275 30.5294C58.5248 30.5338 58.9615 30.4589 60.3351 29.8085C61.178 29.4093 62.228 28.6614 62.6683 28.1463C64.195 26.3607 64.3565 25.4979 64.5297 18.2087C64.6963 11.1897 64.719 11.0756 65.9581 11.065C66.2465 11.0627 66.4261 10.8631 66.4261 10.5453C66.4261 10.0581 66.2478 10.0295 63.2161 10.0295C60.2197 10.0295 60.0061 10.0628 60.0061 10.5291C60.0061 10.9031 60.2228 11.0488 60.8693 11.1094C62.2901 11.2422 62.4053 11.7705 62.4097 18.1716C62.4142 24.6611 62.1852 25.9097 60.7491 27.2238C59.4136 28.4462 58.3508 28.8577 56.5313 28.8577C53.9178 28.8577 52.0657 27.6806 51.4585 25.6336C51.254 24.9454 51.1789 22.4137 51.2323 18.0251L51.3124 11.4481L52.2486 11.1569C52.7636 10.9967 53.2237 10.6777 53.2713 10.4476C53.3478 10.078 52.9216 10.0295 49.5931 10.0295C46.007 10.0295 45.8286 10.054 45.8286 10.5453ZM70.7062 10.5453C70.7062 10.9446 70.8847 11.0612 71.4961 11.0612C72.8583 11.0612 73.6255 11.5678 73.9333 12.6704C74.1086 13.2974 74.1841 16.2918 74.1326 20.5716C74.0409 28.2129 73.9325 28.7128 72.2993 29.0277C71.7607 29.1316 71.5087 29.3344 71.5087 29.6637C71.5087 30.1136 71.7704 30.1472 75.2537 30.1472C78.676 30.1472 78.9988 30.1076 78.9988 29.6849C78.9988 29.3558 78.6561 29.1342 77.8089 28.9158C76.7568 28.6443 76.5868 28.4964 76.3391 27.6372C76.0215 26.5345 75.9464 14.9181 76.257 14.9517C76.3671 14.9635 77.4048 16.0372 78.5628 17.3374C79.7206 18.6375 82.8882 22.0516 85.6021 24.9244C89.8498 29.4205 90.6443 30.1472 91.3118 30.1472H92.0868L92.1637 21.0038C92.218 14.5117 92.3301 11.7738 92.5496 11.5621C92.7201 11.3981 93.2617 11.1845 93.7533 11.0875C94.2753 10.9846 94.6477 10.7542 94.6477 10.5348C94.6477 10.2268 93.9807 10.1456 90.9695 10.0867C87.4281 10.0176 87.2914 10.0344 87.2914 10.5381C87.2914 10.9209 87.4666 11.0612 87.9451 11.0612C88.3049 11.0612 88.9368 11.341 89.3496 11.6833L90.1002 12.3054L90.1844 18.5182C90.2324 22.026 90.1653 24.731 90.0315 24.731C89.9009 24.731 89.0841 23.9476 88.2164 22.9899C87.3489 22.0324 84.8783 19.392 82.7262 17.1224C80.5741 14.8526 78.2231 12.3376 77.5019 11.5337L76.1899 10.0718L73.4482 10.0507C70.8773 10.0308 70.7062 10.0617 70.7062 10.5453ZM98.7939 10.5453C98.7939 10.9387 98.9725 11.0612 99.5454 11.0612C99.9588 11.0612 100.53 11.2257 100.816 11.4269C101.306 11.7723 101.34 12.2175 101.419 19.358C101.518 28.2744 101.437 28.7741 99.8539 29.0181C99.0567 29.1412 98.7939 29.3014 98.7939 29.6645C98.7939 30.1148 99.0635 30.1472 102.806 30.1472C106.641 30.1472 106.819 30.1244 106.819 29.6315C106.819 29.2645 106.641 29.1156 106.201 29.1156C105.862 29.1156 105.35 28.951 105.065 28.7498C104.573 28.4033 104.541 27.9573 104.468 20.2488C104.392 12.3524 104.406 12.0983 104.936 11.5874C105.236 11.298 105.782 11.0612 106.15 11.0612C106.641 11.0612 106.819 10.9237 106.819 10.5453C106.819 10.0525 106.641 10.0295 102.806 10.0295C98.9723 10.0295 98.7939 10.0525 98.7939 10.5453ZM126.804 10.5453C126.891 10.8649 127.169 11.0612 127.535 11.0612C127.86 11.0612 128.389 11.3312 128.711 11.6616C129.038 11.9969 130.867 16.237 132.855 21.2692L136.415 30.2763L137.348 30.3534L138.281 30.4305L140.782 24.0343C142.158 20.5165 143.427 17.3598 143.604 17.0193C143.906 16.4366 143.974 16.5252 144.778 18.567C145.247 19.7586 146.495 22.9096 147.552 25.5692L149.473 30.4052H150.32C150.786 30.4052 151.228 30.2511 151.303 30.0625C151.378 29.8741 152.608 26.8274 154.035 23.292C155.462 19.757 157.043 15.8404 157.548 14.589C158.698 11.7393 158.929 11.3874 159.846 11.0792C160.253 10.9423 160.587 10.6501 160.587 10.4298C160.587 10.0904 160.1 10.0295 157.377 10.0295C154.345 10.0295 154.167 10.0581 154.167 10.5453C154.167 10.9191 154.345 11.0612 154.814 11.0612C155.854 11.0612 156.307 11.3335 156.307 11.9585C156.307 12.48 151.212 25.8609 150.898 26.1633C150.705 26.3493 146.104 13.9195 145.938 12.763C145.776 11.6395 146.272 11.0612 147.397 11.0612C147.836 11.0612 148.014 10.9124 148.014 10.5453C148.014 10.0517 147.836 10.0295 143.868 10.0295C139.9 10.0295 139.722 10.0517 139.722 10.5453C139.722 10.8394 139.9 11.0612 140.136 11.0612C140.972 11.0612 142.078 11.8391 142.363 12.6262C142.771 13.7557 142.459 14.9009 140.054 21.0935L138.011 26.3543L137.571 25.3492C137.329 24.7964 136.069 21.5349 134.772 18.1014C132.223 11.3562 132.185 11.0612 133.869 11.0612C134.461 11.0612 134.639 10.9418 134.639 10.5453C134.639 10.0525 134.461 10.0295 130.652 10.0295C126.796 10.0295 126.669 10.0465 126.804 10.5453ZM180.978 10.7205C180.978 10.7205 180.978 11.0726 181.023 11.1706C181.067 11.2685 181.355 11.3053 181.355 11.3053C181.534 11.3517 181.703 11.3924 181.864 11.4308C182.672 11.6245 183.24 11.7606 183.467 12.2742C183.621 12.6211 183.63 13.8274 183.632 20.2943C183.634 27.1135 183.633 27.9493 183.444 28.3997C183.21 28.9586 182.763 29.2553 181.73 29.5358C181.73 29.5358 181.273 29.6589 181.15 29.7688C181.027 29.8787 181.004 30.1244 181.004 30.1244C181.004 30.1244 180.994 30.3524 181.1 30.4619C181.205 30.5714 181.486 30.5192 181.486 30.5192L184.163 30.526L188.603 30.5606C188.603 30.5606 188.784 30.5838 188.878 30.4677C188.973 30.3516 188.949 30.1238 188.949 30.1238C188.949 30.1238 188.949 29.8801 188.831 29.7704C188.715 29.6607 188.261 29.5578 188.261 29.5578C187.258 29.3192 186.744 29.0079 186.516 28.5026C186.347 28.1272 186.329 27.1133 186.304 25.002V21.9064C186.416 21.9675 186.518 22.037 186.626 22.1102C187.138 22.4568 187.779 22.8906 190.173 22.9577C193.073 23.0389 194.818 21.7901 195.856 20.3397C196.894 18.8893 197.296 16.6107 196.535 14.1834C195.773 11.7559 193.54 10.287 190.399 10.1351C188.762 10.056 186.38 10.1341 185.049 10.1926L185.048 10.1926L185.047 10.1927C184.912 10.1986 184.788 10.204 184.677 10.2087C183.467 10.2598 182.018 10.3717 181.296 10.4381L181.294 10.4383C181.097 10.4564 181.078 10.4582 181.023 10.5257C180.968 10.5935 180.978 10.7205 180.978 10.7205ZM192.765 20.2292C193.931 19.168 193.951 17.5078 193.951 16.4474C193.836 14.7846 193.144 11.5866 189.221 11.5866C188.304 11.541 186.428 11.6942 186.376 12.9251C186.319 13.1425 186.294 14.6634 186.308 16.9979L186.331 20.7237L186.731 20.9271L186.752 20.9381C186.969 21.0488 187.25 21.1923 187.741 21.2854C189.301 21.5809 191.598 21.2904 192.765 20.2292ZM168.223 10.3516C168.513 10.2451 168.705 10.174 168.705 10.174C168.705 10.174 169.139 10.0013 169.279 10.174C169.322 10.2271 169.48 10.6202 169.87 11.5944C169.947 11.7856 170.032 11.9994 170.128 12.2373C170.709 13.6869 171.545 15.7677 171.984 16.8614C172.424 17.9548 173.293 20.1189 173.917 21.6702C174.54 23.2215 175.339 25.2118 175.694 26.0929C176.048 26.9739 176.501 27.89 176.628 28.0572C176.69 28.1391 176.754 28.2412 176.823 28.3531C177.097 28.7917 177.464 29.3807 178.202 29.4958C178.202 29.4958 178.779 29.5883 178.865 29.6757C178.95 29.7634 178.97 29.9224 178.97 29.9224V30.2213C178.97 30.2213 178.96 30.2977 178.912 30.3628C178.865 30.4277 178.69 30.4096 178.69 30.4096L174.238 30.4098L171.072 30.4319C171.072 30.4319 170.961 30.4451 170.896 30.3928C170.83 30.3406 170.796 30.2087 170.796 30.2087V29.9836C170.796 29.9836 170.769 29.8143 170.896 29.6669C171.022 29.5198 171.531 29.5028 171.531 29.5028C172.489 29.4223 172.87 28.6319 173.066 28.2251C173.08 28.1947 173.094 28.1665 173.107 28.1409C173.316 27.7203 173.24 27.4464 172.297 25.1982C171.675 23.7144 171.463 23.2978 171.311 23.2607C171.205 23.2347 169.548 23.2251 167.629 23.2393L164.14 23.2652L163.932 23.8199C163.328 25.425 162.793 27.0194 162.712 27.4504C162.547 28.3276 162.777 29.3032 164.11 29.4727C164.11 29.4727 164.604 29.5386 164.736 29.6347C164.868 29.731 164.914 29.9776 164.914 29.9776V30.205C164.914 30.205 164.889 30.3132 164.798 30.386C164.707 30.4589 164.472 30.4323 164.472 30.4323H161.142L157.92 30.4677C157.92 30.4677 157.783 30.4647 157.681 30.4125C157.58 30.3604 157.563 30.2557 157.563 30.2557V30.0397C157.563 30.0397 157.546 29.8996 157.725 29.728C157.905 29.5566 158.389 29.5106 158.389 29.5106C159.27 29.3734 159.768 28.4666 160.055 27.9445C160.077 27.906 160.097 27.8696 160.116 27.8358C160.229 27.6324 160.742 26.4464 161.256 25.2004C161.769 23.9542 162.346 22.5601 162.536 22.1022C163.185 20.5457 163.802 19.0545 164.735 16.7847C165.248 15.5385 166.007 13.699 166.421 12.697L167.175 10.8751L168.223 10.3516ZM167.948 14.7802C168.11 15.1743 168.357 15.7673 168.498 16.0978C168.638 16.4285 169.032 17.3649 169.373 18.1786C169.713 18.9924 170.131 19.983 170.302 20.3796C170.473 20.7763 170.613 21.1195 170.613 21.1425C170.613 21.1655 169.331 21.1843 167.763 21.1843C165.964 21.1843 164.914 21.1509 164.914 21.0937C164.914 21.0438 164.974 20.8462 165.048 20.6544C165.165 20.3493 165.75 18.7304 167.041 15.1349C167.24 14.5796 167.425 14.0899 167.452 14.0466C167.543 13.8986 167.654 14.0637 167.948 14.7802Z" fill="#322B3D"/>
<g style="mix-blend-mode:darken">
<path d="M14.775 2.22357C14.3216 2.1538 14.3025 2.14562 14.5158 2.1131C14.9247 2.05075 15.89 2.13572 16.5552 2.29262C18.1082 2.65879 19.5213 3.59678 21.0297 5.26265L21.4305 5.70521L22.0037 5.61381C24.419 5.22882 26.8757 5.53479 28.9308 6.4764C29.496 6.73547 30.3874 7.25113 30.4988 7.38365C30.5342 7.42589 30.5994 7.69774 30.6435 7.98782C30.7961 8.99143 30.7197 9.76068 30.4104 10.3353C30.2418 10.6479 30.2325 10.747 30.3458 11.0146C30.4361 11.2281 30.688 11.3861 30.9375 11.3858C31.4484 11.3851 31.9979 10.5663 32.2526 9.42694L32.3538 8.97438L32.5543 9.19955C33.6535 10.4349 34.5169 12.1197 34.6652 13.3189L34.7039 13.6315L34.519 13.3473C34.201 12.8582 33.8815 12.5252 33.4723 12.2567C32.7348 11.7726 31.955 11.6078 29.8896 11.4999C28.0243 11.4024 26.9687 11.2444 25.9218 10.9058C24.1407 10.3298 23.2429 9.56268 21.1272 6.80942C20.1876 5.58651 19.6068 4.90991 19.0291 4.36503C17.7162 3.12693 16.4262 2.47761 14.775 2.22357Z" fill="#322B3D"/>
<path d="M30.9215 4.95352C30.9685 4.13405 31.0805 3.59354 31.3058 3.09992C31.3948 2.90455 31.4785 2.74463 31.4913 2.74463C31.5041 2.74463 31.4654 2.88884 31.4052 3.06509C31.2414 3.54414 31.2145 4.19937 31.3273 4.9617C31.4706 5.92896 31.552 6.06852 32.5827 7.1134C33.066 7.60348 33.6283 8.22158 33.8323 8.48695L34.2029 8.96949L33.8323 8.62465C33.379 8.20294 32.3365 7.38052 32.1063 7.26296C31.9518 7.18411 31.9288 7.18547 31.8336 7.27951C31.746 7.36614 31.7273 7.49632 31.7151 8.11175C31.6963 9.07095 31.5644 9.68661 31.2464 10.3022C31.0743 10.6352 31.0472 10.5641 31.2029 10.1883C31.319 9.90769 31.3308 9.78435 31.33 8.8558C31.3283 6.99009 31.1049 6.54156 29.7953 5.7732C29.4636 5.57856 28.917 5.29784 28.5807 5.14935C28.2444 5.00086 27.9773 4.87155 27.9871 4.86188C28.0241 4.82526 29.3013 5.195 29.8152 5.39112C30.5798 5.68287 30.7059 5.72067 30.7989 5.6855C30.8612 5.6619 30.8912 5.48208 30.9215 4.95352Z" fill="#322B3D"/>
<path d="M15.6566 8.14545C14.7363 6.88871 14.1669 4.96185 14.2901 3.52145L14.3283 3.07568L14.5377 3.1136C14.9311 3.18479 15.6094 3.43519 15.927 3.62654C16.7986 4.15159 17.1759 4.84286 17.5598 6.61795C17.6723 7.13788 17.8198 7.72626 17.8877 7.92544C17.997 8.24607 18.4099 8.99499 18.7457 9.48137C18.9875 9.83169 18.8269 9.99768 18.2923 9.94981C17.4759 9.8767 16.37 9.11965 15.6566 8.14545Z" fill="#322B3D"/>
<path d="M29.8014 17.4987C25.5007 15.7811 23.9858 14.2902 23.9858 11.7746C23.9858 11.4045 23.9987 11.1016 24.0144 11.1016C24.0302 11.1016 24.1964 11.2237 24.3842 11.3731C25.2563 12.0669 26.2328 12.3632 28.9366 12.7545C30.5274 12.9847 31.4227 13.1707 32.2486 13.4423C34.8735 14.3059 36.4976 16.0582 36.885 18.4451C36.9975 19.1386 36.9316 20.4394 36.749 21.1248C36.6051 21.6662 36.1655 22.6422 36.049 22.6796C36.0164 22.6899 35.9848 22.567 35.9765 22.3998C35.9324 21.5036 35.4756 20.631 34.7089 19.9774C33.837 19.2343 32.6656 18.6425 29.8014 17.4987Z" fill="#322B3D"/>
<path d="M26.783 18.2124C26.7292 17.8944 26.6356 17.4881 26.5753 17.3098L26.4656 16.9856L26.6693 17.2125C26.9516 17.5264 27.1743 17.9283 27.3634 18.4635C27.5075 18.872 27.5236 18.9935 27.5226 19.6574C27.5216 20.309 27.5036 20.4458 27.3704 20.8134C27.1605 21.3932 26.8998 21.8042 26.4627 22.2456C25.6771 23.0387 24.6671 23.4778 23.2094 23.6598C22.956 23.6914 22.2176 23.7448 21.5685 23.7782C19.9323 23.8627 18.8554 24.0372 17.888 24.3742C17.7488 24.4225 17.6246 24.4521 17.612 24.4395C17.5729 24.4008 18.2316 24.0113 18.7758 23.7514C19.5431 23.3848 20.3067 23.1848 22.018 22.9021C22.8632 22.7624 23.7364 22.593 23.9579 22.5256C26.0513 21.8889 27.1273 20.2459 26.783 18.2124Z" fill="#322B3D"/>
<path d="M28.7545 21.6855C28.183 20.4672 28.0518 19.2908 28.3648 18.1937C28.3984 18.0763 28.4522 17.9805 28.4847 17.9805C28.517 17.9805 28.6518 18.0528 28.7841 18.141C29.0475 18.3169 29.5757 18.613 30.9827 19.374C32.7383 20.3233 33.7394 21.0586 34.42 21.8986C35.0163 22.6344 35.3851 23.4721 35.5627 24.4937C35.6634 25.0725 35.6044 26.4649 35.4547 27.0478C34.9826 28.8852 33.8856 30.3284 32.3207 31.1707C32.0914 31.294 31.8856 31.3953 31.8633 31.3957C31.8411 31.3963 31.9245 31.1855 32.049 30.9276C32.5753 29.8362 32.6354 28.7745 32.2374 27.5927C31.9937 26.869 31.4968 25.9861 30.4936 24.4939C29.3272 22.759 29.0413 22.2974 28.7545 21.6855Z" fill="#322B3D"/>
<path d="M12.5948 28.2602C14.1908 26.9234 16.1766 25.9739 17.9855 25.6823C18.765 25.5567 20.0637 25.6065 20.7855 25.7898C21.9427 26.0836 22.9778 26.7416 23.5162 27.5253C24.0423 28.2914 24.268 28.959 24.503 30.4443C24.5956 31.0302 24.6964 31.6187 24.727 31.7517C24.9034 32.5215 25.247 33.1368 25.6725 33.446C26.3483 33.9365 27.5124 33.9671 28.6572 33.5241C28.8516 33.4489 29.0204 33.397 29.0322 33.4088C29.0738 33.4497 28.4971 33.8324 28.0905 34.0339C27.543 34.3052 27.108 34.4099 26.5297 34.4099C25.4809 34.4099 24.6105 33.8807 23.8839 32.8019C23.7408 32.5897 23.4197 31.9536 23.1698 31.3887C22.4028 29.6533 22.0241 29.1247 21.1336 28.5461C20.3583 28.0428 19.3589 27.9527 18.607 28.3182C17.6193 28.7987 17.3437 30.0507 18.0511 30.8442C18.3323 31.1595 18.8566 31.4314 19.2854 31.4843C20.0875 31.5833 20.7768 30.9781 20.7768 30.1749C20.7768 29.6533 20.5745 29.3556 20.0658 29.1278C19.3709 28.8168 18.624 29.1803 18.6276 29.8279C18.6292 30.104 18.7504 30.2774 19.0295 30.4026C19.2084 30.483 19.2125 30.4894 19.0665 30.4592C18.429 30.328 18.2796 29.5657 18.7923 29.0594C19.4078 28.4519 20.6805 28.7201 21.1174 29.5494C21.3011 29.8978 21.3224 30.5917 21.1624 31.0105C20.8041 31.9482 19.7595 32.4413 18.6997 32.1731C17.9783 31.9904 17.6845 31.7924 16.8146 30.9037C15.3031 29.3593 14.7163 29.0601 12.5372 28.7226L12.1196 28.6579L12.5948 28.2602Z" fill="#322B3D"/>
<path fill-rule="evenodd" clip-rule="evenodd" d="M5.50855 0.617872C10.5563 6.6948 14.033 9.20205 14.4194 9.73175C14.7384 10.1691 14.6183 10.5624 14.0718 10.8705C13.7679 11.0419 13.1431 11.2155 12.8303 11.2155C12.4764 11.2155 12.355 11.0801 12.355 11.0801C12.1498 10.8871 12.0343 10.9209 10.9807 9.06592C9.51809 6.81473 8.29406 4.94727 8.26066 4.91601C8.18345 4.8437 8.18477 4.84614 10.8316 9.54367C11.2593 10.5227 10.9167 10.8821 10.9167 11.0216C10.9167 11.3052 10.8386 11.4544 10.4859 11.8447C9.89773 12.4955 9.63481 13.2267 9.44504 14.7401C9.23227 16.4366 8.63402 17.6349 6.97606 19.6858C6.00556 20.8864 5.84675 21.1064 5.60187 21.5904C5.29341 22.1998 5.2086 22.5409 5.17423 23.3105C5.13789 24.124 5.20865 24.6497 5.45925 25.4275C5.67862 26.1086 5.90761 26.5582 6.49304 27.4575C6.99824 28.2336 7.28913 28.8104 7.28913 29.036C7.28913 29.2156 7.32369 29.2158 8.10655 29.0406C9.98002 28.6209 11.5013 27.8828 12.3568 26.9783C12.8863 26.4185 13.0107 26.1094 13.0147 25.3421C13.0173 24.8404 12.9996 24.7354 12.8628 24.4468C12.6402 23.9769 12.235 23.5861 11.3418 22.9805C10.1715 22.187 9.6716 21.548 9.53354 20.6696C9.42028 19.9486 9.55168 19.4401 10.1991 18.0941C10.8692 16.7009 11.0353 16.1072 11.1476 14.7029C11.2202 13.7958 11.3206 13.4379 11.5834 13.1508C11.8575 12.8513 12.1042 12.7499 12.7825 12.6579C13.8884 12.5081 14.5925 12.2243 15.1713 11.6953C15.6734 11.2364 15.8835 10.7941 15.9157 10.1284L15.9402 9.62387L15.6596 9.29936C14.6435 8.1242 4.82805 -0.305908 4.76552 -0.305908C4.75217 -0.305908 5.08654 0.109829 5.50855 0.617872ZM7.85953 24.231C8.08926 23.8275 7.9672 23.3086 7.5829 23.0553C7.21981 22.8158 6.65576 22.9286 6.65576 23.2406C6.65576 23.3359 6.70883 23.4051 6.82849 23.4663C7.02996 23.569 7.0446 23.6847 6.88607 23.9211C6.72554 24.1604 6.7385 24.3707 6.92264 24.5137C7.21941 24.7443 7.63951 24.6175 7.85953 24.231Z" fill="#322B3D"/>
<path fill-rule="evenodd" clip-rule="evenodd" d="M16.6335 12.9224C16.1144 13.0805 15.6098 13.6263 15.4535 14.1985C15.3583 14.5477 15.4123 15.16 15.5551 15.349C15.7857 15.6547 16.0087 15.735 16.6125 15.7309C17.7948 15.7226 18.8225 15.2197 18.9419 14.5911C19.0398 14.0755 18.5885 13.3614 17.9668 13.0478C17.646 12.8861 16.9637 12.8219 16.6335 12.9224ZM18.0156 13.9943C18.1979 13.7375 18.1181 13.4596 17.808 13.2718C17.2176 12.9142 16.3246 13.2101 16.3246 13.7635C16.3246 14.0389 16.7903 14.3394 17.2171 14.3394C17.5012 14.3394 17.89 14.1714 18.0156 13.9943Z" fill="#322B3D"/>
</g>
</g>
<defs>
<clipPath id="clip0_1641_73671">
<rect width="196.518" height="34.8661" fill="white" transform="translate(0.407227 0.0549316)"/>
</clipPath>
</defs>
</svg>
