<svg width="25" height="27" viewBox="0 0 25 27" fill="none" xmlns="http://www.w3.org/2000/svg">
<g style="mix-blend-mode:darken">
<path d="M8.08441 2.68107C7.7553 2.63042 7.74142 2.62448 7.8963 2.60087C8.1931 2.55561 8.89393 2.6173 9.37687 2.73121C10.5043 2.99704 11.5302 3.67802 12.6253 4.88743L12.9163 5.20872L13.3324 5.14237C15.0859 4.86287 16.8695 5.085 18.3615 5.76861C18.7718 5.95669 19.419 6.33106 19.4998 6.42726C19.5255 6.45793 19.5729 6.65529 19.6049 6.86589C19.7157 7.5945 19.6602 8.15298 19.4357 8.57012C19.3133 8.7971 19.3065 8.86905 19.3888 9.06331C19.4543 9.21832 19.6372 9.33306 19.8184 9.33281C20.1892 9.3323 20.5882 8.73784 20.7731 7.91068L20.8466 7.58212L20.9921 7.7456C21.7901 8.64246 22.417 9.86558 22.5246 10.7362L22.5527 10.9632L22.4185 10.7568C22.1876 10.4017 21.9557 10.16 21.6586 9.96504C21.1232 9.61362 20.5571 9.49401 19.0576 9.41564C17.7033 9.34486 16.937 9.23013 16.177 8.98431C14.8839 8.56614 14.2321 8.00923 12.6961 6.01038C12.014 5.12255 11.5923 4.63134 11.1729 4.23576C10.2197 3.33691 9.28323 2.8655 8.08441 2.68107Z" fill="#EA337A"/>
<path d="M19.8063 4.66419C19.8405 4.06926 19.9218 3.67686 20.0853 3.31849C20.15 3.17665 20.2107 3.06055 20.22 3.06055C20.2293 3.06055 20.2012 3.16525 20.1575 3.2932C20.0386 3.64099 20.019 4.11668 20.101 4.67013C20.205 5.37236 20.2641 5.47368 21.0124 6.23225C21.3632 6.58805 21.7715 7.03679 21.9196 7.22944L22.1886 7.57976L21.9196 7.32941C21.5905 7.02325 20.8336 6.42618 20.6665 6.34083C20.5543 6.28359 20.5376 6.28458 20.4685 6.35285C20.4049 6.41574 20.3914 6.51025 20.3825 6.95705C20.3688 7.65342 20.2731 8.10039 20.0422 8.54733C19.9173 8.78905 19.8976 8.73746 20.0106 8.46462C20.0949 8.2609 20.1035 8.17135 20.1029 7.49723C20.1017 6.14273 19.9395 5.8171 18.9887 5.25927C18.7479 5.11797 18.3511 4.91417 18.1069 4.80636C17.8628 4.69856 17.6689 4.60468 17.676 4.59766C17.7029 4.57107 18.6301 4.8395 19.0032 4.98189C19.5583 5.1937 19.6498 5.22114 19.7173 5.1956C19.7626 5.17847 19.7844 5.04792 19.8063 4.66419Z" fill="#EA337A"/>
<path d="M8.7229 6.97945C8.05476 6.06707 7.64138 4.66817 7.73088 3.62245L7.75855 3.29883L7.91063 3.32636C8.19623 3.37804 8.68865 3.55983 8.91925 3.69875C9.55201 4.07993 9.82594 4.58179 10.1046 5.8705C10.1863 6.24796 10.2934 6.67513 10.3427 6.81973C10.422 7.0525 10.7218 7.59621 10.9656 7.94933C11.1411 8.20365 11.0245 8.32416 10.6364 8.2894C10.0437 8.23633 9.24083 7.68672 8.7229 6.97945Z" fill="#EA337A"/>
<path d="M18.9916 13.7693C15.8693 12.5223 14.7695 11.44 14.7695 9.61366C14.7695 9.3449 14.7789 9.125 14.7903 9.125C14.8017 9.125 14.9224 9.21369 15.0588 9.32211C15.6919 9.82583 16.4008 10.041 18.3637 10.325C19.5187 10.4922 20.1686 10.6272 20.7683 10.8244C22.6739 11.4514 23.853 12.7235 24.1343 14.4564C24.2159 14.9599 24.1681 15.9042 24.0355 16.4018C23.9311 16.7949 23.6119 17.5034 23.5273 17.5306C23.5037 17.5381 23.4807 17.4488 23.4747 17.3275C23.4427 16.6768 23.111 16.0433 22.5544 15.5688C21.9214 15.0293 21.071 14.5997 18.9916 13.7693Z" fill="#EA337A"/>
<path d="M16.7999 14.2871C16.7608 14.0563 16.6929 13.7613 16.6492 13.6319L16.5695 13.3965L16.7174 13.5612C16.9223 13.7891 17.084 14.0809 17.2213 14.4694C17.3259 14.766 17.3376 14.8542 17.3369 15.3362C17.3361 15.8092 17.323 15.9085 17.2264 16.1754C17.074 16.5964 16.8847 16.8948 16.5674 17.2152C15.9971 17.791 15.2638 18.1098 14.2055 18.2419C14.0215 18.2649 13.4855 18.3036 13.0142 18.3279C11.8264 18.3893 11.0445 18.5159 10.3422 18.7606C10.2412 18.7957 10.151 18.8171 10.1418 18.808C10.1134 18.7799 10.5917 18.4971 10.9867 18.3084C11.5438 18.0423 12.0982 17.897 13.3406 17.6918C13.9542 17.5904 14.5881 17.4674 14.7489 17.4185C16.2687 16.9563 17.0499 15.7635 16.7999 14.2871Z" fill="#EA337A"/>
<path d="M18.2313 16.809C17.8164 15.9245 17.7211 15.0704 17.9484 14.274C17.9727 14.1887 18.0118 14.1191 18.0354 14.1191C18.0588 14.1191 18.1567 14.1716 18.2528 14.2357C18.444 14.3634 18.8274 14.5783 19.8489 15.1309C21.1235 15.8201 21.8503 16.3538 22.3444 16.9636C22.7773 17.4979 23.045 18.106 23.174 18.8477C23.2471 19.2679 23.2042 20.2788 23.0955 20.702C22.7528 22.0359 21.9564 23.0837 20.8203 23.6951C20.6539 23.7847 20.5044 23.8582 20.4882 23.8585C20.4721 23.859 20.5327 23.7059 20.623 23.5187C21.0052 22.7263 21.0488 21.9555 20.7598 21.0976C20.5829 20.5722 20.2221 19.9312 19.4938 18.8479C18.6471 17.5883 18.4395 17.2532 18.2313 16.809Z" fill="#EA337A"/>
<path d="M6.50121 21.5821C7.65991 20.6117 9.10158 19.9223 10.4148 19.7106C10.9808 19.6194 11.9236 19.6556 12.4476 19.7887C13.2878 20.002 14.0392 20.4796 14.4301 21.0487C14.812 21.6048 14.9759 22.0895 15.1465 23.1678C15.2137 23.5931 15.2869 24.0204 15.3092 24.117C15.4372 24.6758 15.6866 25.1226 15.9955 25.347C16.4862 25.7031 17.3313 25.7253 18.1624 25.4037C18.3036 25.3491 18.4261 25.3114 18.4347 25.32C18.4649 25.3497 18.0462 25.6275 17.751 25.7738C17.3535 25.9708 17.0377 26.0468 16.6179 26.0468C15.8565 26.0468 15.2245 25.6626 14.6971 24.8794C14.5932 24.7253 14.36 24.2636 14.1786 23.8534C13.6218 22.5936 13.3469 22.2098 12.7003 21.7898C12.1375 21.4243 11.4119 21.3589 10.866 21.6243C10.149 21.9731 9.94889 22.882 10.4625 23.4581C10.6666 23.687 11.0472 23.8845 11.3585 23.9229C11.9409 23.9947 12.4413 23.5553 12.4413 22.9722C12.4413 22.5936 12.2945 22.3774 11.9251 22.2121C11.4206 21.9863 10.8784 22.2502 10.881 22.7203C10.8821 22.9207 10.9701 23.0466 11.1728 23.1375C11.3026 23.1959 11.3056 23.2005 11.1997 23.1786C10.7368 23.0834 10.6284 22.5299 11.0006 22.1624C11.4474 21.7213 12.3714 21.9161 12.6886 22.5181C12.8219 22.771 12.8374 23.2748 12.7212 23.5789C12.4612 24.2597 11.7028 24.6176 10.9334 24.4229C10.4096 24.2903 10.1963 24.1466 9.5648 23.5013C8.46744 22.3801 8.04142 22.1629 6.4594 21.9179L6.15625 21.8709L6.50121 21.5821Z" fill="#EA337A"/>
<path fill-rule="evenodd" clip-rule="evenodd" d="M1.35612 1.51441C5.02079 5.92623 7.54483 7.74648 7.82533 8.13104C8.05692 8.44858 7.96974 8.73405 7.573 8.95779C7.35237 9.08217 6.89876 9.20822 6.67165 9.20822C6.41477 9.20822 6.32659 9.10993 6.32659 9.10993C6.17764 8.96981 6.09376 8.99432 5.3289 7.64765C4.26703 6.0133 3.37838 4.65753 3.35414 4.63483C3.29808 4.58234 3.29904 4.58411 5.22063 7.99449C5.5311 8.7053 5.28238 8.96621 5.28238 9.06744C5.28238 9.27339 5.22574 9.38164 4.96962 9.66501C4.54264 10.1375 4.35176 10.6684 4.21399 11.7671C4.05952 12.9987 3.6252 13.8687 2.42153 15.3576C1.71695 16.2292 1.60165 16.389 1.42387 16.7404C1.19993 17.1828 1.13836 17.4304 1.11341 17.9891C1.08703 18.5797 1.13839 18.9614 1.32033 19.5261C1.47959 20.0205 1.64583 20.347 2.07085 20.9998C2.43762 21.5633 2.64881 21.982 2.64881 22.1458C2.64881 22.2762 2.6739 22.2764 3.24225 22.1491C4.60238 21.8444 5.7068 21.3086 6.32794 20.6519C6.71236 20.2455 6.80261 20.0211 6.80555 19.4641C6.80747 19.0999 6.79456 19.0236 6.69527 18.8141C6.53366 18.4729 6.23946 18.1892 5.59102 17.7495C4.74137 17.1735 4.37848 16.7096 4.27824 16.0719C4.19602 15.5485 4.29141 15.1793 4.76144 14.202C5.24794 13.1906 5.3685 12.7596 5.45005 11.7401C5.50272 11.0815 5.57567 10.8217 5.76646 10.6132C5.96544 10.3958 6.14456 10.3222 6.637 10.2554C7.43981 10.1466 7.95103 9.94063 8.37122 9.55655C8.73574 9.22337 8.88827 8.90232 8.91169 8.41903L8.92946 8.05271L8.72574 7.81712C7.98805 6.96397 0.862084 0.84375 0.816687 0.84375C0.806991 0.84375 1.04975 1.14557 1.35612 1.51441ZM3.06292 18.6574C3.2297 18.3645 3.14109 17.9878 2.86209 17.8038C2.59848 17.63 2.18899 17.7119 2.18899 17.9384C2.18899 18.0076 2.22752 18.0578 2.31439 18.1022C2.46065 18.1768 2.47128 18.2608 2.35619 18.4324C2.23965 18.6061 2.24906 18.7589 2.38274 18.8627C2.5982 19.0301 2.90319 18.938 3.06292 18.6574Z" fill="#EA337A"/>
<path fill-rule="evenodd" clip-rule="evenodd" d="M9.43042 10.447C9.05354 10.5619 8.68717 10.9581 8.57376 11.3735C8.50458 11.627 8.54383 12.0715 8.64746 12.2088C8.81489 12.4307 8.97678 12.489 9.41517 12.486C10.2735 12.48 11.0196 12.1149 11.1063 11.6585C11.1774 11.2842 10.8498 10.7657 10.3984 10.5381C10.1654 10.4207 9.67008 10.3741 9.43042 10.447ZM10.4338 11.2253C10.5661 11.0388 10.5082 10.8371 10.2831 10.7007C9.85442 10.4411 9.20616 10.656 9.20616 11.0577C9.20616 11.2577 9.54422 11.4758 9.85409 11.4758C10.0603 11.4758 10.3426 11.3538 10.4338 11.2253Z" fill="#EA337A"/>
</g>
</svg>
