<svg width="220" height="41" viewBox="0 0 220 41" fill="none" xmlns="http://www.w3.org/2000/svg">
<g opacity="0.4">
<g clip-path="url(#clip0_1641_73715)">
<path d="M21.5773 16.9344C24.0971 14.4747 27.0225 12.5694 30.2736 11.267C33.3507 10.0355 36.5888 9.40041 39.9075 9.37463V4.5873C33.1026 4.67757 26.404 6.96968 20.9684 11.0864L20.5495 11.4024L20.0631 11.2025C19.5539 10.993 17.727 10.1645 15.5747 8.33657C13.0809 6.21532 11.0607 3.55569 9.55601 0.418945L6.41455 3.78457C9.26926 10.1548 14.8885 15.0291 21.5773 16.9344Z" fill="#322B3D"/>
<path d="M20.8041 19.7974C13.5868 17.7632 7.61313 12.8244 4.23646 6.1189L0.440918 10.1905C3.90459 16.2738 9.34337 21.1095 15.8067 23.8464L15.8132 23.8497L16.319 24.0657L16.3513 24.3107L16.3931 24.6621C16.5349 25.8645 16.9667 31.9091 12.633 38.5792H17.6466C19.4089 35.8776 20.6237 32.7699 21.1715 29.5655C21.7256 26.3191 21.5968 22.9535 20.8041 19.7974Z" fill="#322B3D"/>
<path d="M23.6779 19.0332C24.5704 22.5406 24.7411 26.1222 24.1902 29.6813C23.7005 32.8213 22.6695 35.8065 21.1196 38.579H27.0869C28.1629 36.0709 28.9169 33.4274 29.3294 30.7097C29.774 27.789 29.8159 24.8328 29.4517 21.9313L29.3873 21.4058L29.8062 21.0867C30.4925 20.5644 34.0787 18.0306 39.9137 17.4278V12.3567C33.8563 12.4341 28.0019 14.8358 23.6779 19.0332Z" fill="#322B3D"/>
</g>
<path opacity="0.9" d="M58.6887 22.847V29.9475H55.2681V22.847L49.2819 11.8075H53.0394L56.4083 18.2602C56.4428 18.312 56.4774 18.3898 56.512 18.4934C56.5638 18.5971 56.5983 18.6662 56.6156 18.7007L56.9784 19.5818C57.013 19.4609 57.0734 19.3054 57.1598 19.1154C57.2462 18.9253 57.3067 18.7871 57.3412 18.7007C57.3585 18.6662 57.3844 18.5971 57.419 18.4934C57.4708 18.3898 57.514 18.312 57.5485 18.2602L60.9174 11.8075H64.6749L58.6887 22.847ZM66.3739 29.9475V17.094H69.6391V29.9475H66.3739ZM66.2185 15.2282V11.8075H69.7946V15.2282H66.2185ZM85.1877 24.2982H75.2884C75.3921 25.2829 75.7635 26.069 76.4028 26.6564C77.042 27.2265 77.8453 27.5116 78.8128 27.5116C80.4022 27.5116 81.5856 26.7255 82.363 25.1534L84.799 26.5527C83.5896 29.0578 81.577 30.3103 78.7609 30.3103C76.9297 30.3103 75.3662 29.6797 74.0705 28.4186C72.792 27.1401 72.1528 25.5075 72.1528 23.5208C72.1528 21.534 72.8007 19.9101 74.0964 18.6489C75.4094 17.3705 77.0161 16.7312 78.9164 16.7312C80.7477 16.7312 82.2507 17.3359 83.4255 18.5452C84.6003 19.7546 85.1877 21.2922 85.1877 23.158V24.2982ZM78.8128 19.219C77.9662 19.219 77.232 19.4695 76.6101 19.9705C75.9881 20.4715 75.5476 21.1194 75.2884 21.9141H82.1816C82.0261 21.0676 81.6547 20.4111 81.0673 19.9446C80.4799 19.4609 79.7284 19.219 78.8128 19.219ZM87.7842 29.9475V11.8075H91.0494V29.9475H87.7842ZM107.219 11.8075V29.9475H103.953V28.1335C103.573 28.79 103.038 29.3169 102.347 29.7143C101.656 30.1116 100.844 30.3103 99.9108 30.3103C98.0968 30.3103 96.5852 29.697 95.3758 28.4704C94.1838 27.2438 93.5877 25.5939 93.5877 23.5208C93.5877 21.4822 94.2183 19.841 95.4795 18.5971C96.7579 17.3532 98.235 16.7312 99.9108 16.7312C101.828 16.7312 103.176 17.3791 103.953 18.6748V11.8075H107.219ZM97.9413 26.2159C98.6324 26.9069 99.4962 27.2524 100.533 27.2524C101.569 27.2524 102.433 26.9069 103.124 26.2159C103.815 25.5075 104.161 24.6092 104.161 23.5208C104.161 22.4324 103.815 21.5427 103.124 20.8516C102.433 20.1433 101.569 19.7891 100.533 19.7891C99.4962 19.7891 98.6324 20.1433 97.9413 20.8516C97.2503 21.5427 96.9048 22.4324 96.9048 23.5208C96.9048 24.6092 97.2503 25.5075 97.9413 26.2159ZM117.905 29.9475V11.8075H126.146C128.237 11.8075 129.886 12.3258 131.096 13.3624C132.322 14.3817 132.936 15.8329 132.936 17.716C132.936 19.5991 132.322 21.0589 131.096 22.0955C129.886 23.1148 128.237 23.6244 126.146 23.6244H121.326V29.9475H117.905ZM121.326 14.8654V20.5666H126.042C127.2 20.5666 128.064 20.3161 128.634 19.815C129.221 19.314 129.515 18.6143 129.515 17.716C129.515 16.8176 129.221 16.1179 128.634 15.6169C128.064 15.1159 127.2 14.8654 126.042 14.8654H121.326ZM143.064 16.8867L142.545 19.9705C142.234 19.8496 141.88 19.7891 141.483 19.7891C140.515 19.7891 139.755 20.1433 139.202 20.8516C138.65 21.5599 138.373 22.4756 138.373 23.5985V29.9475H135.108V17.094H138.373V19.1413C139.168 17.5346 140.36 16.7312 141.949 16.7312C142.347 16.7312 142.718 16.7831 143.064 16.8867ZM155.692 18.5452C157.092 19.7373 157.791 21.3958 157.791 23.5208C157.791 25.6457 157.092 27.3129 155.692 28.5222C154.31 29.7143 152.669 30.3103 150.769 30.3103C148.868 30.3103 147.218 29.7143 145.819 28.5222C144.437 27.3129 143.746 25.6457 143.746 23.5208C143.746 21.3958 144.437 19.7373 145.819 18.5452C147.218 17.3359 148.868 16.7312 150.769 16.7312C152.669 16.7312 154.31 17.3359 155.692 18.5452ZM148.151 26.2418C148.877 26.9155 149.749 27.2524 150.769 27.2524C151.788 27.2524 152.66 26.9155 153.386 26.2418C154.112 25.568 154.474 24.661 154.474 23.5208C154.474 22.3806 154.112 21.4736 153.386 20.7998C152.66 20.126 151.788 19.7891 150.769 19.7891C149.749 19.7891 148.877 20.126 148.151 20.7998C147.426 21.4736 147.063 22.3806 147.063 23.5208C147.063 24.661 147.426 25.568 148.151 26.2418ZM158.873 19.7373V17.094H160.868V13.6215H164.133V17.094H166.932V19.7373H164.133V25.5939C164.133 26.8032 164.678 27.4079 165.766 27.4079C166.112 27.4079 166.474 27.3561 166.854 27.2524L167.165 29.9475C166.474 30.1894 165.749 30.3103 164.989 30.3103C162.242 30.3103 160.868 28.9455 160.868 26.2159V19.7373H158.873ZM180.443 18.5452C181.842 19.7373 182.542 21.3958 182.542 23.5208C182.542 25.6457 181.842 27.3129 180.443 28.5222C179.06 29.7143 177.419 30.3103 175.519 30.3103C173.618 30.3103 171.969 29.7143 170.569 28.5222C169.187 27.3129 168.496 25.6457 168.496 23.5208C168.496 21.3958 169.187 19.7373 170.569 18.5452C171.969 17.3359 173.618 16.7312 175.519 16.7312C177.419 16.7312 179.06 17.3359 180.443 18.5452ZM172.902 26.2418C173.627 26.9155 174.5 27.2524 175.519 27.2524C176.538 27.2524 177.411 26.9155 178.136 26.2418C178.862 25.568 179.225 24.661 179.225 23.5208C179.225 22.3806 178.862 21.4736 178.136 20.7998C177.411 20.126 176.538 19.7891 175.519 19.7891C174.5 19.7891 173.627 20.126 172.902 20.7998C172.176 21.4736 171.813 22.3806 171.813 23.5208C171.813 24.661 172.176 25.568 172.902 26.2418ZM194.496 24.8942L197.139 26.6046C195.913 29.0751 193.909 30.3103 191.127 30.3103C189.192 30.3103 187.577 29.6884 186.281 28.4445C185.003 27.1833 184.363 25.5421 184.363 23.5208C184.363 21.5167 185.02 19.8841 186.333 18.623C187.646 17.3618 189.244 16.7312 191.127 16.7312C192.561 16.7312 193.788 17.0422 194.807 17.6642C195.826 18.2688 196.56 19.124 197.01 20.2297L194.34 21.9918C193.667 20.5234 192.587 19.7891 191.101 19.7891C190.116 19.7891 189.296 20.1347 188.639 20.8257C188 21.4995 187.681 22.3978 187.681 23.5208C187.681 24.661 188 25.568 188.639 26.2418C189.279 26.9155 190.099 27.2524 191.101 27.2524C191.93 27.2524 192.604 27.0624 193.123 26.6823C193.658 26.285 194.116 25.6889 194.496 24.8942ZM210.558 18.5452C211.957 19.7373 212.657 21.3958 212.657 23.5208C212.657 25.6457 211.957 27.3129 210.558 28.5222C209.176 29.7143 207.534 30.3103 205.634 30.3103C203.734 30.3103 202.084 29.7143 200.684 28.5222C199.302 27.3129 198.611 25.6457 198.611 23.5208C198.611 21.3958 199.302 19.7373 200.684 18.5452C202.084 17.3359 203.734 16.7312 205.634 16.7312C207.534 16.7312 209.176 17.3359 210.558 18.5452ZM203.017 26.2418C203.742 26.9155 204.615 27.2524 205.634 27.2524C206.653 27.2524 207.526 26.9155 208.251 26.2418C208.977 25.568 209.34 24.661 209.34 23.5208C209.34 22.3806 208.977 21.4736 208.251 20.7998C207.526 20.126 206.653 19.7891 205.634 19.7891C204.615 19.7891 203.742 20.126 203.017 20.7998C202.291 21.4736 201.928 22.3806 201.928 23.5208C201.928 24.661 202.291 25.568 203.017 26.2418ZM215.204 29.9475V11.8075H218.469V29.9475H215.204Z" fill="#322B3D"/>
</g>
<defs>
<clipPath id="clip0_1641_73715">
<rect width="41.2673" height="40.7818" fill="white" transform="translate(0.407715 0.289551)"/>
</clipPath>
</defs>
</svg>
